SplineFontDB: 3.2
FontName: granjon-boxes
FullName: Granjon Boxes
FamilyName: Granjon Boxes
Weight: Book
Copyright: 
Version: 
ItalicAngle: 0
UnderlinePosition: 0
UnderlineWidth: 0
Ascent: 512
Descent: 0
InvalidEm: 0
sfntRevision: 0x00010000
LayerCount: 2
Layer: 0 1 "Back" 1
Layer: 1 1 "Fore" 0
HasVMetrics: 1
XUID: [1021 795 -371388666 1000495]
StyleMap: 0x0040
FSType: 8
OS2Version: 1
OS2_WeightWidthSlopeOnly: 0
OS2_UseTypoMetrics: 0
CreationTime: 1760139088
ModificationTime: 1766435836
PfmFamily: 17
TTFWeight: 400
TTFWidth: 5
LineGap: 46
VLineGap: 46
Panose: 2 0 5 9 0 0 0 0 0 0
OS2TypoAscent: 512
OS2TypoAOffset: 0
OS2TypoDescent: 0
OS2TypoDOffset: 0
OS2TypoLinegap: 46
OS2WinAscent: 519
OS2WinAOffset: 0
OS2WinDescent: 7
OS2WinDOffset: 0
HheadAscent: 519
HheadAOffset: 0
HheadDescent: -7
HheadDOffset: 0
OS2SubXSize: 332
OS2SubYSize: 358
OS2SubXOff: 0
OS2SubYOff: 71
OS2SupXSize: 332
OS2SupYSize: 358
OS2SupXOff: 0
OS2SupYOff: 245
OS2StrikeYSize: 25
OS2StrikeYPos: 132
OS2Vendor: 'PfEd'
OS2CodePages: 00000001.00000000
OS2UnicodeRanges: 00000001.02000800.00000000.00000000
MarkAttachClasses: 1
DEI: 91125
ShortTable: maxp 16
  1
  0
  133
  312
  4
  0
  0
  2
  0
  1
  1
  0
  64
  0
  0
  0
EndShort
LangName: 1033 "" "" "" "https://6t.lt/granjon-boxes" "" "" "" "" "" "" "" "" "" "This Font Software is licensed under the SIL Open Font License, Version 1.1.+AAoA-This license is available with an FAQ at:+AAoA-https://openfontlicense.org" "https://openfontlicense.org"
GaspTable: 1 65535 2 0
Encoding: UnicodeFull
Compacted: 1
UnicodeInterp: none
NameList: AGL For New Fonts
DisplaySize: -48
AntiAlias: 1
FitToEm: 0
WinInfo: 0 27 9
BeginPrivate: 0
EndPrivate
BeginChars: 1114115 133

StartChar: SE Down and Right
Encoding: 9487 9487 3
Width: 512
VWidth: 1024
GlyphClass: 2
Flags: W
LayerCount: 2
Fore
SplineSet
22 506 m 0,0,1
 14 506 14 506 10 502 c 0,2,3
 2 494 2 494 9 477 c 0,4,5
 10 474 10 474 16.5 466.5 c 128,-1,6
 23 459 23 459 23 454 c 0,7,8
 24 442 24 442 16 422 c 128,-1,9
 8 402 8 402 7 389 c 0,10,11
 5 366 5 366 8 282 c 0,12,13
 9 248 9 248 23.5 229.5 c 128,-1,14
 38 211 38 211 59 215 c 0,15,16
 90 221 90 221 88 249 c 0,17,18
 86 272 86 272 68 277 c 0,19,20
 61 279 61 279 54 275 c 0,21,22
 50 274 50 274 59 270 c 0,23,24
 71 265 71 265 73 263 c 0,25,26
 82 253 82 253 75 240 c 128,-1,27
 68 227 68 227 55 227 c 0,28,29
 36 228 36 228 26 250.5 c 128,-1,30
 16 273 16 273 18 297 c 0,31,32
 22 298 22 298 31.5 295.5 c 128,-1,33
 41 293 41 293 43 299 c 0,34,35
 52 310 52 310 33 343 c 0,36,37
 29 350 29 350 34 351.5 c 128,-1,38
 39 353 39 353 48.5 353.5 c 128,-1,39
 58 354 58 354 61 357 c 0,40,41
 67 363 67 363 68 371 c 128,-1,42
 69 379 69 379 67 390 c 1,43,44
 108 357 108 357 155 342 c 1,45,46
 164 292 164 292 147.5 242.5 c 128,-1,47
 131 193 131 193 91 156 c 0,48,49
 42 109 42 109 19 0 c 0,50,51
 18 -3 18 -3 26.5 -4 c 128,-1,52
 35 -5 35 -5 44.5 -4 c 128,-1,53
 54 -3 54 -3 55 0 c 0,54,55
 61 17 61 17 68 30.5 c 128,-1,56
 75 44 75 44 80.5 50.5 c 128,-1,57
 86 57 86 57 88 55 c 0,58,59
 92 52 92 52 90.5 42.5 c 128,-1,60
 89 33 89 33 89 22.5 c 128,-1,61
 89 12 89 12 95 12 c 0,62,63
 117 13 117 13 135.5 37.5 c 128,-1,64
 154 62 154 62 160.5 90 c 128,-1,65
 167 118 167 118 160 130 c 0,66,67
 141 162 141 162 168 171 c 0,68,69
 191 179 191 179 205 165 c 256,70,71
 219 151 219 151 198 127 c 0,72,73
 173 98 173 98 175.5 74 c 128,-1,74
 178 50 178 50 190.5 34 c 128,-1,75
 203 18 203 18 211 19 c 0,76,77
 215 20 215 20 218 30 c 128,-1,78
 221 40 221 40 222.5 40.5 c 128,-1,79
 224 41 224 41 229.5 33.5 c 128,-1,80
 235 26 235 26 245 17 c 128,-1,81
 255 8 255 8 267 6 c 0,82,83
 292 2 292 2 324 7 c 0,84,85
 346 10 346 10 354 26.5 c 128,-1,86
 362 43 362 43 359 61 c 256,87,88
 356 79 356 79 341 88 c 128,-1,89
 326 97 326 97 305 85 c 0,90,91
 298 81 298 81 297.5 71.5 c 128,-1,92
 297 62 297 62 302 57 c 0,93,94
 303 55 303 55 306.5 61.5 c 128,-1,95
 310 68 310 68 316.5 74 c 128,-1,96
 323 80 323 80 331 76 c 0,97,98
 347 69 347 69 347 50.5 c 128,-1,99
 347 32 347 32 331 23 c 0,100,101
 310 12 310 12 283 24 c 128,-1,102
 256 36 256 36 249 64 c 0,103,104
 245 82 245 82 263 156 c 0,105,106
 272 195 272 195 247 228 c 0,107,108
 238 240 238 240 238 233 c 0,109,110
 239 198 239 198 224.5 193 c 128,-1,111
 210 188 210 188 195 202 c 128,-1,112
 180 216 180 216 180 227 c 0,113,114
 180 229 180 229 181 252 c 128,-1,115
 182 275 182 275 181 295.5 c 128,-1,116
 180 316 180 316 175 337 c 1,117,118
 196 332 196 332 216.5 331 c 128,-1,119
 237 330 237 330 260 331 c 128,-1,120
 283 332 283 332 285 332 c 0,121,122
 296 332 296 332 310 317 c 128,-1,123
 324 302 324 302 319 287.5 c 128,-1,124
 314 273 314 273 279 274 c 0,125,126
 271 274 271 274 286 264 c 0,127,128
 319 240 319 240 356 249 c 0,129,130
 430 267 430 267 448 263 c 0,131,132
 476 256 476 256 488 229 c 128,-1,133
 500 202 500 202 489 181 c 0,134,135
 480 165 480 165 461.5 165 c 128,-1,136
 443 165 443 165 436 181 c 0,137,138
 432 189 432 189 438 195.5 c 128,-1,139
 444 202 444 202 450.5 205.5 c 128,-1,140
 457 209 457 209 455 210 c 0,141,142
 450 215 450 215 440.5 214.5 c 128,-1,143
 431 214 431 214 427 207 c 0,144,145
 415 186 415 186 424 171 c 128,-1,146
 433 156 433 156 451 153 c 256,147,148
 469 150 469 150 485.5 158 c 128,-1,149
 502 166 502 166 505 188 c 0,150,151
 510 220 510 220 506 245 c 0,152,153
 504 257 504 257 495 267 c 128,-1,154
 486 277 486 277 478.5 282.5 c 128,-1,155
 471 288 471 288 471.5 289.5 c 128,-1,156
 472 291 472 291 482 294 c 128,-1,157
 492 297 492 297 493 301 c 0,158,159
 494 309 494 309 478 321.5 c 128,-1,160
 462 334 462 334 438 336.5 c 128,-1,161
 414 339 414 339 385 314 c 0,162,163
 356 288 356 288 343 313 c 0,164,165
 332 334 332 334 344 351 c 128,-1,166
 356 368 356 368 382 352 c 0,167,168
 394 345 394 345 422 351.5 c 128,-1,169
 450 358 450 358 474.5 376.5 c 128,-1,170
 499 395 499 395 500 417 c 0,171,172
 500 423 500 423 489.5 423 c 128,-1,173
 479 423 479 423 469.5 421.5 c 128,-1,174
 460 420 460 420 457 424 c 0,175,176
 455 426 455 426 461.5 431.5 c 128,-1,177
 468 437 468 437 481.5 444 c 128,-1,178
 495 451 495 451 512 457 c 0,179,180
 515 458 515 458 516 467.5 c 128,-1,181
 517 477 517 477 516 485.5 c 128,-1,182
 515 494 515 494 512 493 c 0,183,184
 403 470 403 470 356 421 c 0,185,186
 319 381 319 381 269.5 364.5 c 128,-1,187
 220 348 220 348 170 357 c 1,188,189
 155 404 155 404 122 445 c 1,190,191
 133 443 133 443 141 444 c 128,-1,192
 149 445 149 445 155 451 c 0,193,194
 158 454 158 454 158.5 463.5 c 128,-1,195
 159 473 159 473 160.5 478 c 128,-1,196
 162 483 162 483 169 479 c 0,197,198
 202 460 202 460 213 469 c 0,199,200
 219 471 219 471 216.5 480.5 c 128,-1,201
 214 490 214 490 215 494 c 0,202,203
 239 496 239 496 261.5 486 c 128,-1,204
 284 476 284 476 285 457 c 0,205,206
 285 444 285 444 272 437 c 128,-1,207
 259 430 259 430 249 439 c 0,208,209
 247 441 247 441 243 451 c 0,210,211
 238 458 238 458 237 458 c 0,212,213
 227 440 227 440 249 428 c 0,214,215
 273 416 273 416 289 434 c 0,216,217
 295 441 295 441 297 453 c 0,218,219
 301 474 301 474 282.5 488.5 c 128,-1,220
 264 503 264 503 230 504 c 0,221,222
 146 507 146 507 123 505 c 0,223,224
 110 504 110 504 90 496 c 128,-1,225
 70 488 70 488 58 489 c 0,226,227
 53 489 53 489 45.5 495.5 c 128,-1,228
 38 502 38 502 35 503 c 0,229,230
 29 506 29 506 22 506 c 0,0,1
26 494 m 0,231,232
 36 494 36 494 52 477 c 0,233,234
 64 465 64 465 73 459 c 128,-1,235
 82 453 82 453 86 451.5 c 128,-1,236
 90 450 90 450 105 445 c 1,237,238
 139 409 139 409 151 361 c 1,239,240
 103 373 103 373 67 407 c 0,241,242
 66 409 66 409 65 412 c 0,243,244
 61 427 61 427 56 435.5 c 128,-1,245
 51 444 51 444 35 460 c 0,246,247
 11 482 11 482 20 492 c 0,248,249
 23 494 23 494 26 494 c 0,231,232
414 100 m 256,250,251
 412 100 412 100 412 97.5 c 128,-1,252
 412 95 412 95 415 90 c 0,253,254
 416 89 416 89 424 76.5 c 128,-1,255
 432 64 432 64 435 57.5 c 128,-1,256
 438 51 438 51 441.5 35 c 128,-1,257
 445 19 445 19 445 0 c 0,258,259
 445 -3 445 -3 449 -4 c 128,-1,260
 453 -5 453 -5 457.5 -4 c 128,-1,261
 462 -3 462 -3 462 0 c 0,262,263
 462 22 462 22 454 43 c 0,264,265
 452 49 452 49 449.5 55 c 128,-1,266
 447 61 447 61 446 63.5 c 128,-1,267
 445 66 445 66 445 67 c 1,268,269
 446 67 446 67 448.5 66 c 128,-1,270
 451 65 451 65 457 62.5 c 128,-1,271
 463 60 463 60 469 58 c 0,272,273
 490 50 490 50 512 50 c 0,274,275
 515 50 515 50 516 54.5 c 128,-1,276
 517 59 517 59 516 63 c 128,-1,277
 515 67 515 67 512 67 c 0,278,279
 493 67 493 67 477 70.5 c 128,-1,280
 461 74 461 74 454.5 77 c 128,-1,281
 448 80 448 80 435.5 88 c 128,-1,282
 423 96 423 96 422 97 c 0,283,284
 416 100 416 100 414 100 c 256,250,251
473 41 m 0,285,286
 469 41 469 41 472 34 c 0,287,288
 476 26 476 26 478 14 c 0,289,290
 479 5 479 5 479 0 c 0,291,292
 479 -4 479 -4 494.5 -4 c 128,-1,293
 510 -4 510 -4 513 -1 c 256,294,295
 516 2 516 2 516 17.5 c 128,-1,296
 516 33 516 33 512 33 c 0,297,298
 507 33 507 33 498 34 c 0,299,300
 486 36 486 36 478 40 c 0,301,302
 475 41 475 41 473 41 c 0,285,286
EndSplineSet
EndChar

StartChar: SW Down and Left
Encoding: 9489 9489 4
Width: 512
VWidth: 1024
GlyphClass: 2
Flags: W
LayerCount: 2
Fore
SplineSet
506 490 m 0,0,1
 506 498 506 498 502 502 c 0,2,3
 494 510 494 510 477 503 c 0,4,5
 474 502 474 502 466.5 495.5 c 128,-1,6
 459 489 459 489 454 489 c 0,7,8
 442 488 442 488 422 496 c 128,-1,9
 402 504 402 504 389 505 c 0,10,11
 366 507 366 507 282 504 c 0,12,13
 248 503 248 503 229.5 488.5 c 128,-1,14
 211 474 211 474 215 453 c 0,15,16
 221 422 221 422 249 424 c 0,17,18
 272 426 272 426 277 444 c 0,19,20
 279 451 279 451 275 458 c 0,21,22
 274 462 274 462 270 453 c 0,23,24
 265 441 265 441 263 439 c 0,25,26
 253 430 253 430 240 437 c 128,-1,27
 227 444 227 444 227 457 c 0,28,29
 228 476 228 476 250.5 486 c 128,-1,30
 273 496 273 496 297 494 c 0,31,32
 298 490 298 490 295.5 480.5 c 128,-1,33
 293 471 293 471 299 469 c 0,34,35
 310 460 310 460 343 479 c 0,36,37
 350 483 350 483 351.5 478 c 128,-1,38
 353 473 353 473 353.5 463.5 c 128,-1,39
 354 454 354 454 357 451 c 0,40,41
 363 445 363 445 371 444 c 128,-1,42
 379 443 379 443 390 445 c 1,43,44
 357 404 357 404 342 357 c 1,45,46
 292 348 292 348 242.5 364.5 c 128,-1,47
 193 381 193 381 156 421 c 0,48,49
 109 470 109 470 0 493 c 0,50,51
 -3 494 -3 494 -4 485.5 c 128,-1,52
 -5 477 -5 477 -4 467.5 c 128,-1,53
 -3 458 -3 458 0 457 c 0,54,55
 17 451 17 451 30.5 444 c 128,-1,56
 44 437 44 437 50.5 431.5 c 128,-1,57
 57 426 57 426 55 424 c 0,58,59
 52 420 52 420 42.5 421.5 c 128,-1,60
 33 423 33 423 22.5 423 c 128,-1,61
 12 423 12 423 12 417 c 0,62,63
 13 395 13 395 37.5 376.5 c 128,-1,64
 62 358 62 358 90 351.5 c 128,-1,65
 118 345 118 345 130 352 c 0,66,67
 162 371 162 371 171 344 c 0,68,69
 179 321 179 321 165 307 c 256,70,71
 151 293 151 293 127 314 c 0,72,73
 98 339 98 339 74 336.5 c 128,-1,74
 50 334 50 334 34 321.5 c 128,-1,75
 18 309 18 309 19 301 c 0,76,77
 20 297 20 297 30 294 c 128,-1,78
 40 291 40 291 40.5 289.5 c 128,-1,79
 41 288 41 288 33.5 282.5 c 128,-1,80
 26 277 26 277 17 267 c 128,-1,81
 8 257 8 257 6 245 c 0,82,83
 2 220 2 220 7 188 c 0,84,85
 10 166 10 166 26.5 158 c 128,-1,86
 43 150 43 150 61 153 c 256,87,88
 79 156 79 156 88 171 c 128,-1,89
 97 186 97 186 85 207 c 0,90,91
 81 214 81 214 71.5 214.5 c 128,-1,92
 62 215 62 215 57 210 c 0,93,94
 55 209 55 209 61.5 205.5 c 128,-1,95
 68 202 68 202 74 195.5 c 128,-1,96
 80 189 80 189 76 181 c 0,97,98
 69 165 69 165 50.5 165 c 128,-1,99
 32 165 32 165 23 181 c 0,100,101
 12 202 12 202 24 229 c 128,-1,102
 36 256 36 256 64 263 c 0,103,104
 82 267 82 267 156 249 c 0,105,106
 195 240 195 240 228 265 c 0,107,108
 240 274 240 274 233 274 c 0,109,110
 198 273 198 273 193 287.5 c 128,-1,111
 188 302 188 302 202 317 c 128,-1,112
 216 332 216 332 227 332 c 0,113,114
 229 332 229 332 252 331 c 128,-1,115
 275 330 275 330 295.5 331 c 128,-1,116
 316 332 316 332 337 337 c 1,117,118
 332 316 332 316 331 295.5 c 128,-1,119
 330 275 330 275 331 252 c 128,-1,120
 332 229 332 229 332 227 c 0,121,122
 332 216 332 216 317 202 c 128,-1,123
 302 188 302 188 287.5 193 c 128,-1,124
 273 198 273 198 274 233 c 0,125,126
 274 241 274 241 264 226 c 0,127,128
 240 193 240 193 249 156 c 0,129,130
 267 82 267 82 263 64 c 0,131,132
 256 36 256 36 229 24 c 128,-1,133
 202 12 202 12 181 23 c 0,134,135
 165 32 165 32 165 50.5 c 128,-1,136
 165 69 165 69 181 76 c 0,137,138
 189 80 189 80 195.5 74 c 128,-1,139
 202 68 202 68 205.5 61.5 c 128,-1,140
 209 55 209 55 210 57 c 0,141,142
 215 62 215 62 214.5 71.5 c 128,-1,143
 214 81 214 81 207 85 c 0,144,145
 186 97 186 97 171 88 c 128,-1,146
 156 79 156 79 153 61 c 256,147,148
 150 43 150 43 158 26.5 c 128,-1,149
 166 10 166 10 188 7 c 0,150,151
 220 2 220 2 245 6 c 0,152,153
 257 8 257 8 267 17 c 128,-1,154
 277 26 277 26 282.5 33.5 c 128,-1,155
 288 41 288 41 289.5 40.5 c 128,-1,156
 291 40 291 40 294 30 c 128,-1,157
 297 20 297 20 301 19 c 0,158,159
 309 18 309 18 321.5 34 c 128,-1,160
 334 50 334 50 336.5 74 c 128,-1,161
 339 98 339 98 314 127 c 0,162,163
 288 156 288 156 313 169 c 0,164,165
 334 180 334 180 351 168 c 128,-1,166
 368 156 368 156 352 130 c 0,167,168
 345 118 345 118 351.5 90 c 128,-1,169
 358 62 358 62 376.5 37.5 c 128,-1,170
 395 13 395 13 417 12 c 0,171,172
 423 12 423 12 423 22.5 c 128,-1,173
 423 33 423 33 421.5 42.5 c 128,-1,174
 420 52 420 52 424 55 c 0,175,176
 426 57 426 57 431.5 50.5 c 128,-1,177
 437 44 437 44 444 30.5 c 128,-1,178
 451 17 451 17 457 0 c 0,179,180
 458 -3 458 -3 467.5 -4 c 128,-1,181
 477 -5 477 -5 485.5 -4 c 128,-1,182
 494 -3 494 -3 493 0 c 0,183,184
 470 109 470 109 421 156 c 0,185,186
 381 193 381 193 364.5 242.5 c 128,-1,187
 348 292 348 292 357 342 c 1,188,189
 404 357 404 357 445 390 c 1,190,191
 443 379 443 379 444 371 c 128,-1,192
 445 363 445 363 451 357 c 0,193,194
 454 354 454 354 463.5 353.5 c 128,-1,195
 473 353 473 353 478 351.5 c 128,-1,196
 483 350 483 350 479 343 c 0,197,198
 460 310 460 310 469 299 c 0,199,200
 471 293 471 293 480.5 295.5 c 128,-1,201
 490 298 490 298 494 297 c 0,202,203
 496 273 496 273 486 250.5 c 128,-1,204
 476 228 476 228 457 227 c 0,205,206
 444 227 444 227 437 240 c 128,-1,207
 430 253 430 253 439 263 c 0,208,209
 441 265 441 265 451 269 c 0,210,211
 458 274 458 274 458 275 c 0,212,213
 440 285 440 285 428 263 c 0,214,215
 416 239 416 239 434 223 c 0,216,217
 441 217 441 217 453 215 c 0,218,219
 474 211 474 211 488.5 229.5 c 128,-1,220
 503 248 503 248 504 282 c 0,221,222
 507 366 507 366 505 389 c 0,223,224
 504 402 504 402 496 422 c 128,-1,225
 488 442 488 442 489 454 c 0,226,227
 489 459 489 459 495.5 466.5 c 128,-1,228
 502 474 502 474 503 477 c 0,229,230
 506 483 506 483 506 490 c 0,0,1
494 486 m 0,231,232
 494 476 494 476 477 460 c 0,233,234
 465 448 465 448 459 439 c 128,-1,235
 453 430 453 430 451.5 426 c 128,-1,236
 450 422 450 422 445 407 c 1,237,238
 409 373 409 373 361 361 c 1,239,240
 373 409 373 409 407 445 c 0,241,242
 409 446 409 446 412 447 c 0,243,244
 427 451 427 451 435.5 456 c 128,-1,245
 444 461 444 461 460 477 c 0,246,247
 482 501 482 501 492 492 c 0,248,249
 494 489 494 489 494 486 c 0,231,232
100 98 m 256,250,251
 100 100 100 100 97.5 100 c 128,-1,252
 95 100 95 100 90 97 c 0,253,254
 89 96 89 96 76.5 88 c 128,-1,255
 64 80 64 80 57.5 77 c 128,-1,256
 51 74 51 74 35 70.5 c 128,-1,257
 19 67 19 67 0 67 c 0,258,259
 -3 67 -3 67 -4 63 c 128,-1,260
 -5 59 -5 59 -4 54.5 c 128,-1,261
 -3 50 -3 50 0 50 c 0,262,263
 22 50 22 50 43 58 c 0,264,265
 49 60 49 60 55 62.5 c 128,-1,266
 61 65 61 65 63.5 66 c 128,-1,267
 66 67 66 67 67 67 c 1,268,269
 67 66 67 66 66 63.5 c 128,-1,270
 65 61 65 61 62.5 55 c 128,-1,271
 60 49 60 49 58 43 c 0,272,273
 50 22 50 22 50 0 c 0,274,275
 50 -3 50 -3 54.5 -4 c 128,-1,276
 59 -5 59 -5 63 -4 c 128,-1,277
 67 -3 67 -3 67 0 c 0,278,279
 67 19 67 19 70.5 35 c 128,-1,280
 74 51 74 51 77 57.5 c 128,-1,281
 80 64 80 64 88 76.5 c 128,-1,282
 96 89 96 89 97 90 c 0,283,284
 100 96 100 96 100 98 c 256,250,251
41 39 m 0,285,286
 41 43 41 43 34 40 c 0,287,288
 26 36 26 36 14 34 c 0,289,290
 5 33 5 33 0 33 c 0,291,292
 -4 33 -4 33 -4 17.5 c 128,-1,293
 -4 2 -4 2 -1 -1 c 256,294,295
 2 -4 2 -4 17.5 -4 c 128,-1,296
 33 -4 33 -4 33 0 c 0,297,298
 33 5 33 5 34 14 c 0,299,300
 36 26 36 26 40 34 c 0,301,302
 41 37 41 37 41 39 c 0,285,286
EndSplineSet
EndChar

StartChar: NE Up and Right
Encoding: 9494 9494 5
Width: 512
VWidth: 1024
GlyphClass: 2
Flags: W
LayerCount: 2
Fore
SplineSet
6 22 m 0,0,1
 6 14 6 14 10 10 c 0,2,3
 18 2 18 2 35 9 c 0,4,5
 38 10 38 10 45.5 16.5 c 128,-1,6
 53 23 53 23 58 23 c 0,7,8
 70 24 70 24 90 16 c 128,-1,9
 110 8 110 8 123 7 c 0,10,11
 146 5 146 5 230 8 c 0,12,13
 264 9 264 9 282.5 23.5 c 128,-1,14
 301 38 301 38 297 59 c 0,15,16
 291 90 291 90 263 88 c 0,17,18
 240 86 240 86 235 68 c 0,19,20
 233 61 233 61 237 54 c 0,21,22
 238 50 238 50 242 59 c 0,23,24
 247 71 247 71 249 73 c 0,25,26
 259 82 259 82 272 75 c 128,-1,27
 285 68 285 68 285 55 c 0,28,29
 284 36 284 36 261.5 26 c 128,-1,30
 239 16 239 16 215 18 c 0,31,32
 214 22 214 22 216.5 31.5 c 128,-1,33
 219 41 219 41 213 43 c 0,34,35
 202 52 202 52 169 33 c 0,36,37
 162 29 162 29 160.5 34 c 128,-1,38
 159 39 159 39 158.5 48.5 c 128,-1,39
 158 58 158 58 155 61 c 0,40,41
 149 67 149 67 141 68 c 128,-1,42
 133 69 133 69 122 67 c 1,43,44
 155 108 155 108 170 155 c 1,45,46
 220 164 220 164 269.5 147.5 c 128,-1,47
 319 131 319 131 356 91 c 0,48,49
 403 42 403 42 512 19 c 0,50,51
 515 18 515 18 516 26.5 c 128,-1,52
 517 35 517 35 516 44.5 c 128,-1,53
 515 54 515 54 512 55 c 0,54,55
 495 61 495 61 481.5 68 c 128,-1,56
 468 75 468 75 461.5 80.5 c 128,-1,57
 455 86 455 86 457 88 c 0,58,59
 460 92 460 92 469.5 90.5 c 128,-1,60
 479 89 479 89 489.5 89 c 128,-1,61
 500 89 500 89 500 95 c 0,62,63
 499 117 499 117 474.5 135.5 c 128,-1,64
 450 154 450 154 422 160.5 c 128,-1,65
 394 167 394 167 382 160 c 0,66,67
 350 141 350 141 341 168 c 0,68,69
 333 191 333 191 347 205 c 256,70,71
 361 219 361 219 385 198 c 0,72,73
 414 173 414 173 438 175.5 c 128,-1,74
 462 178 462 178 478 190.5 c 128,-1,75
 494 203 494 203 493 211 c 0,76,77
 492 215 492 215 482 218 c 128,-1,78
 472 221 472 221 471.5 222.5 c 128,-1,79
 471 224 471 224 478.5 229.5 c 128,-1,80
 486 235 486 235 495 245 c 128,-1,81
 504 255 504 255 506 267 c 0,82,83
 510 292 510 292 505 324 c 0,84,85
 502 346 502 346 485.5 354 c 128,-1,86
 469 362 469 362 451 359 c 256,87,88
 433 356 433 356 424 341 c 128,-1,89
 415 326 415 326 427 305 c 0,90,91
 431 298 431 298 440.5 297.5 c 128,-1,92
 450 297 450 297 455 302 c 0,93,94
 457 303 457 303 450.5 306.5 c 128,-1,95
 444 310 444 310 438 316.5 c 128,-1,96
 432 323 432 323 436 331 c 0,97,98
 443 347 443 347 461.5 347 c 128,-1,99
 480 347 480 347 489 331 c 0,100,101
 500 310 500 310 488 283 c 128,-1,102
 476 256 476 256 448 249 c 0,103,104
 430 245 430 245 356 263 c 0,105,106
 317 272 317 272 284 247 c 0,107,108
 272 238 272 238 279 238 c 0,109,110
 314 239 314 239 319 224.5 c 128,-1,111
 324 210 324 210 310 195 c 128,-1,112
 296 180 296 180 285 180 c 0,113,114
 283 180 283 180 260 181 c 128,-1,115
 237 182 237 182 216.5 181 c 128,-1,116
 196 180 196 180 175 175 c 1,117,118
 180 196 180 196 181 216.5 c 128,-1,119
 182 237 182 237 181 260 c 128,-1,120
 180 283 180 283 180 285 c 0,121,122
 180 296 180 296 195 310 c 128,-1,123
 210 324 210 324 224.5 319 c 128,-1,124
 239 314 239 314 238 279 c 0,125,126
 238 271 238 271 248 286 c 0,127,128
 272 319 272 319 263 356 c 0,129,130
 245 430 245 430 249 448 c 0,131,132
 256 476 256 476 283 488 c 128,-1,133
 310 500 310 500 331 489 c 0,134,135
 347 480 347 480 347 461.5 c 128,-1,136
 347 443 347 443 331 436 c 0,137,138
 323 432 323 432 316.5 438 c 128,-1,139
 310 444 310 444 306.5 450.5 c 128,-1,140
 303 457 303 457 302 455 c 0,141,142
 297 450 297 450 297.5 440.5 c 128,-1,143
 298 431 298 431 305 427 c 0,144,145
 326 415 326 415 341 424 c 128,-1,146
 356 433 356 433 359 451 c 256,147,148
 362 469 362 469 354 485.5 c 128,-1,149
 346 502 346 502 324 505 c 0,150,151
 292 510 292 510 267 506 c 0,152,153
 255 504 255 504 245 495 c 128,-1,154
 235 486 235 486 229.5 478.5 c 128,-1,155
 224 471 224 471 222.5 471.5 c 128,-1,156
 221 472 221 472 218 482 c 128,-1,157
 215 492 215 492 211 493 c 0,158,159
 203 494 203 494 190.5 478 c 128,-1,160
 178 462 178 462 175.5 438 c 128,-1,161
 173 414 173 414 198 385 c 0,162,163
 224 356 224 356 199 343 c 0,164,165
 178 332 178 332 161 344 c 128,-1,166
 144 356 144 356 160 382 c 0,167,168
 167 394 167 394 160.5 422 c 128,-1,169
 154 450 154 450 135.5 474.5 c 128,-1,170
 117 499 117 499 95 500 c 0,171,172
 89 500 89 500 89 489.5 c 128,-1,173
 89 479 89 479 90.5 469.5 c 128,-1,174
 92 460 92 460 88 457 c 0,175,176
 86 455 86 455 80.5 461.5 c 128,-1,177
 75 468 75 468 68 481.5 c 128,-1,178
 61 495 61 495 55 512 c 0,179,180
 54 515 54 515 44.5 516 c 128,-1,181
 35 517 35 517 26.5 516 c 128,-1,182
 18 515 18 515 19 512 c 0,183,184
 42 403 42 403 91 356 c 0,185,186
 131 319 131 319 147.5 269.5 c 128,-1,187
 164 220 164 220 155 170 c 1,188,189
 108 155 108 155 67 122 c 1,190,191
 69 133 69 133 68 141 c 128,-1,192
 67 149 67 149 61 155 c 0,193,194
 58 158 58 158 48.5 158.5 c 128,-1,195
 39 159 39 159 34 160.5 c 128,-1,196
 29 162 29 162 33 169 c 0,197,198
 52 202 52 202 43 213 c 0,199,200
 41 219 41 219 31.5 216.5 c 128,-1,201
 22 214 22 214 18 215 c 0,202,203
 16 239 16 239 26 261.5 c 128,-1,204
 36 284 36 284 55 285 c 0,205,206
 68 285 68 285 75 272 c 128,-1,207
 82 259 82 259 73 249 c 0,208,209
 71 247 71 247 61 243 c 0,210,211
 54 238 54 238 54 237 c 0,212,213
 72 227 72 227 84 249 c 0,214,215
 96 273 96 273 78 289 c 0,216,217
 71 295 71 295 59 297 c 0,218,219
 38 301 38 301 23.5 282.5 c 128,-1,220
 9 264 9 264 8 230 c 0,221,222
 5 146 5 146 7 123 c 0,223,224
 8 110 8 110 16 90 c 128,-1,225
 24 70 24 70 23 58 c 0,226,227
 23 53 23 53 16.5 45.5 c 128,-1,228
 10 38 10 38 9 35 c 0,229,230
 6 29 6 29 6 22 c 0,0,1
18 26 m 0,231,232
 18 36 18 36 35 52 c 0,233,234
 47 64 47 64 53 73 c 128,-1,235
 59 82 59 82 60.5 86 c 128,-1,236
 62 90 62 90 67 105 c 1,237,238
 103 139 103 139 151 151 c 1,239,240
 139 103 139 103 105 67 c 0,241,242
 103 66 103 66 100 65 c 0,243,244
 85 61 85 61 76.5 56 c 128,-1,245
 68 51 68 51 52 35 c 0,246,247
 30 11 30 11 20 20 c 0,248,249
 18 23 18 23 18 26 c 0,231,232
412 414 m 256,250,251
 412 412 412 412 414.5 412 c 128,-1,252
 417 412 417 412 422 415 c 0,253,254
 423 416 423 416 435.5 424 c 128,-1,255
 448 432 448 432 454.5 435 c 128,-1,256
 461 438 461 438 477 441.5 c 128,-1,257
 493 445 493 445 512 445 c 0,258,259
 515 445 515 445 516 449 c 128,-1,260
 517 453 517 453 516 457.5 c 128,-1,261
 515 462 515 462 512 462 c 0,262,263
 490 462 490 462 469 454 c 0,264,265
 463 452 463 452 457 449.5 c 128,-1,266
 451 447 451 447 448.5 446 c 128,-1,267
 446 445 446 445 445 445 c 1,268,269
 445 446 445 446 446 448.5 c 128,-1,270
 447 451 447 451 449.5 457 c 128,-1,271
 452 463 452 463 454 469 c 0,272,273
 462 490 462 490 462 512 c 0,274,275
 462 515 462 515 457.5 516 c 128,-1,276
 453 517 453 517 449 516 c 128,-1,277
 445 515 445 515 445 512 c 0,278,279
 445 493 445 493 441.5 477 c 128,-1,280
 438 461 438 461 435 454.5 c 128,-1,281
 432 448 432 448 424 435.5 c 128,-1,282
 416 423 416 423 415 422 c 0,283,284
 412 416 412 416 412 414 c 256,250,251
471 473 m 0,285,286
 471 469 471 469 478 472 c 0,287,288
 486 476 486 476 498 478 c 0,289,290
 507 479 507 479 512 479 c 0,291,292
 516 479 516 479 516 494.5 c 128,-1,293
 516 510 516 510 513 513 c 256,294,295
 510 516 510 516 494.5 516 c 128,-1,296
 479 516 479 516 479 512 c 0,297,298
 479 507 479 507 478 498 c 0,299,300
 476 486 476 486 472 478 c 0,301,302
 471 475 471 475 471 473 c 0,285,286
EndSplineSet
EndChar

StartChar: NW Up and Left
Encoding: 9496 9496 6
Width: 512
VWidth: 1024
GlyphClass: 2
Flags: W
LayerCount: 2
Fore
SplineSet
490 6 m 0,0,1
 498 6 498 6 502 10 c 0,2,3
 510 18 510 18 503 35 c 0,4,5
 502 38 502 38 495.5 45.5 c 128,-1,6
 489 53 489 53 489 58 c 0,7,8
 488 70 488 70 496 90 c 128,-1,9
 504 110 504 110 505 123 c 0,10,11
 507 146 507 146 504 230 c 0,12,13
 503 264 503 264 488.5 282.5 c 128,-1,14
 474 301 474 301 453 297 c 0,15,16
 422 291 422 291 424 263 c 0,17,18
 426 240 426 240 444 235 c 0,19,20
 451 233 451 233 458 237 c 0,21,22
 462 238 462 238 453 242 c 0,23,24
 441 247 441 247 439 249 c 0,25,26
 430 259 430 259 437 272 c 128,-1,27
 444 285 444 285 457 285 c 0,28,29
 476 284 476 284 486 261.5 c 128,-1,30
 496 239 496 239 494 215 c 0,31,32
 490 214 490 214 480.5 216.5 c 128,-1,33
 471 219 471 219 469 213 c 0,34,35
 460 202 460 202 479 169 c 0,36,37
 483 162 483 162 478 160.5 c 128,-1,38
 473 159 473 159 463.5 158.5 c 128,-1,39
 454 158 454 158 451 155 c 0,40,41
 445 149 445 149 444 141 c 128,-1,42
 443 133 443 133 445 122 c 1,43,44
 404 155 404 155 357 170 c 1,45,46
 348 220 348 220 364.5 269.5 c 128,-1,47
 381 319 381 319 421 356 c 0,48,49
 470 403 470 403 493 512 c 0,50,51
 494 515 494 515 485.5 516 c 128,-1,52
 477 517 477 517 467.5 516 c 128,-1,53
 458 515 458 515 457 512 c 0,54,55
 451 495 451 495 444 481.5 c 128,-1,56
 437 468 437 468 431.5 461.5 c 128,-1,57
 426 455 426 455 424 457 c 0,58,59
 420 460 420 460 421.5 469.5 c 128,-1,60
 423 479 423 479 423 489.5 c 128,-1,61
 423 500 423 500 417 500 c 0,62,63
 395 499 395 499 376.5 474.5 c 128,-1,64
 358 450 358 450 351.5 422 c 128,-1,65
 345 394 345 394 352 382 c 0,66,67
 371 350 371 350 344 341 c 0,68,69
 321 333 321 333 307 347 c 256,70,71
 293 361 293 361 314 385 c 0,72,73
 339 414 339 414 336.5 438 c 128,-1,74
 334 462 334 462 321.5 478 c 128,-1,75
 309 494 309 494 301 493 c 0,76,77
 297 492 297 492 294 482 c 128,-1,78
 291 472 291 472 289.5 471.5 c 128,-1,79
 288 471 288 471 282.5 478.5 c 128,-1,80
 277 486 277 486 267 495 c 128,-1,81
 257 504 257 504 245 506 c 0,82,83
 220 510 220 510 188 505 c 0,84,85
 166 502 166 502 158 485.5 c 128,-1,86
 150 469 150 469 153 451 c 256,87,88
 156 433 156 433 171 424 c 128,-1,89
 186 415 186 415 207 427 c 0,90,91
 214 431 214 431 214.5 440.5 c 128,-1,92
 215 450 215 450 210 455 c 0,93,94
 209 457 209 457 205.5 450.5 c 128,-1,95
 202 444 202 444 195.5 438 c 128,-1,96
 189 432 189 432 181 436 c 0,97,98
 165 443 165 443 165 461.5 c 128,-1,99
 165 480 165 480 181 489 c 0,100,101
 202 500 202 500 229 488 c 128,-1,102
 256 476 256 476 263 448 c 0,103,104
 267 430 267 430 249 356 c 0,105,106
 240 317 240 317 265 284 c 0,107,108
 274 272 274 272 274 279 c 0,109,110
 273 314 273 314 287.5 319 c 128,-1,111
 302 324 302 324 317 310 c 128,-1,112
 332 296 332 296 332 285 c 0,113,114
 332 283 332 283 331 260 c 128,-1,115
 330 237 330 237 331 216.5 c 128,-1,116
 332 196 332 196 337 175 c 1,117,118
 316 180 316 180 295.5 181 c 128,-1,119
 275 182 275 182 252 181 c 128,-1,120
 229 180 229 180 227 180 c 0,121,122
 216 180 216 180 202 195 c 128,-1,123
 188 210 188 210 193 224.5 c 128,-1,124
 198 239 198 239 233 238 c 0,125,126
 241 238 241 238 226 248 c 0,127,128
 193 272 193 272 156 263 c 0,129,130
 82 245 82 245 64 249 c 0,131,132
 36 256 36 256 24 283 c 128,-1,133
 12 310 12 310 23 331 c 0,134,135
 32 347 32 347 50.5 347 c 128,-1,136
 69 347 69 347 76 331 c 0,137,138
 80 323 80 323 74 316.5 c 128,-1,139
 68 310 68 310 61.5 306.5 c 128,-1,140
 55 303 55 303 57 302 c 0,141,142
 62 297 62 297 71.5 297.5 c 128,-1,143
 81 298 81 298 85 305 c 0,144,145
 97 326 97 326 88 341 c 128,-1,146
 79 356 79 356 61 359 c 256,147,148
 43 362 43 362 26.5 354 c 128,-1,149
 10 346 10 346 7 324 c 0,150,151
 2 292 2 292 6 267 c 0,152,153
 8 255 8 255 17 245 c 128,-1,154
 26 235 26 235 33.5 229.5 c 128,-1,155
 41 224 41 224 40.5 222.5 c 128,-1,156
 40 221 40 221 30 218 c 128,-1,157
 20 215 20 215 19 211 c 0,158,159
 18 203 18 203 34 190.5 c 128,-1,160
 50 178 50 178 74 175.5 c 128,-1,161
 98 173 98 173 127 198 c 0,162,163
 156 224 156 224 169 199 c 0,164,165
 180 178 180 178 168 161 c 128,-1,166
 156 144 156 144 130 160 c 0,167,168
 118 167 118 167 90 160.5 c 128,-1,169
 62 154 62 154 37.5 135.5 c 128,-1,170
 13 117 13 117 12 95 c 0,171,172
 12 89 12 89 22.5 89 c 128,-1,173
 33 89 33 89 42.5 90.5 c 128,-1,174
 52 92 52 92 55 88 c 0,175,176
 57 86 57 86 50.5 80.5 c 128,-1,177
 44 75 44 75 30.5 68 c 128,-1,178
 17 61 17 61 0 55 c 0,179,180
 -3 54 -3 54 -4 44.5 c 128,-1,181
 -5 35 -5 35 -4 26.5 c 128,-1,182
 -3 18 -3 18 0 19 c 0,183,184
 109 42 109 42 156 91 c 0,185,186
 193 131 193 131 242.5 147.5 c 128,-1,187
 292 164 292 164 342 155 c 1,188,189
 357 108 357 108 390 67 c 1,190,191
 379 69 379 69 371 68 c 128,-1,192
 363 67 363 67 357 61 c 0,193,194
 354 58 354 58 353.5 48.5 c 128,-1,195
 353 39 353 39 351.5 34 c 128,-1,196
 350 29 350 29 343 33 c 0,197,198
 310 52 310 52 299 43 c 0,199,200
 293 41 293 41 295.5 31.5 c 128,-1,201
 298 22 298 22 297 18 c 0,202,203
 273 16 273 16 250.5 26 c 128,-1,204
 228 36 228 36 227 55 c 0,205,206
 227 68 227 68 240 75 c 128,-1,207
 253 82 253 82 263 73 c 0,208,209
 265 71 265 71 269 61 c 0,210,211
 274 54 274 54 275 54 c 0,212,213
 285 72 285 72 263 84 c 0,214,215
 239 96 239 96 223 78 c 0,216,217
 217 71 217 71 215 59 c 0,218,219
 211 38 211 38 229.5 23.5 c 128,-1,220
 248 9 248 9 282 8 c 0,221,222
 366 5 366 5 389 7 c 0,223,224
 402 8 402 8 422 16 c 128,-1,225
 442 24 442 24 454 23 c 0,226,227
 459 23 459 23 466.5 16.5 c 128,-1,228
 474 10 474 10 477 9 c 0,229,230
 483 6 483 6 490 6 c 0,0,1
486 18 m 0,231,232
 476 18 476 18 460 35 c 0,233,234
 448 47 448 47 439 53 c 128,-1,235
 430 59 430 59 426 60.5 c 128,-1,236
 422 62 422 62 407 67 c 1,237,238
 373 103 373 103 361 151 c 1,239,240
 409 139 409 139 445 105 c 0,241,242
 446 103 446 103 447 100 c 0,243,244
 451 85 451 85 456 76.5 c 128,-1,245
 461 68 461 68 477 52 c 0,246,247
 501 30 501 30 492 20 c 0,248,249
 489 18 489 18 486 18 c 0,231,232
98 412 m 256,250,251
 100 412 100 412 100 414.5 c 128,-1,252
 100 417 100 417 97 422 c 0,253,254
 96 423 96 423 88 435.5 c 128,-1,255
 80 448 80 448 77 454.5 c 128,-1,256
 74 461 74 461 70.5 477 c 128,-1,257
 67 493 67 493 67 512 c 0,258,259
 67 515 67 515 63 516 c 128,-1,260
 59 517 59 517 54.5 516 c 128,-1,261
 50 515 50 515 50 512 c 0,262,263
 50 490 50 490 58 469 c 0,264,265
 60 463 60 463 62.5 457 c 128,-1,266
 65 451 65 451 66 448.5 c 128,-1,267
 67 446 67 446 67 445 c 1,268,269
 66 445 66 445 63.5 446 c 128,-1,270
 61 447 61 447 55 449.5 c 128,-1,271
 49 452 49 452 43 454 c 0,272,273
 22 462 22 462 0 462 c 0,274,275
 -3 462 -3 462 -4 457.5 c 128,-1,276
 -5 453 -5 453 -4 449 c 128,-1,277
 -3 445 -3 445 0 445 c 0,278,279
 19 445 19 445 35 441.5 c 128,-1,280
 51 438 51 438 57.5 435 c 128,-1,281
 64 432 64 432 76.5 424 c 128,-1,282
 89 416 89 416 90 415 c 0,283,284
 96 412 96 412 98 412 c 256,250,251
39 471 m 0,285,286
 43 471 43 471 40 478 c 0,287,288
 36 486 36 486 34 498 c 0,289,290
 33 507 33 507 33 512 c 0,291,292
 33 516 33 516 17.5 516 c 128,-1,293
 2 516 2 516 -1 513 c 256,294,295
 -4 510 -4 510 -4 494.5 c 128,-1,296
 -4 479 -4 479 0 479 c 0,297,298
 5 479 5 479 14 478 c 0,299,300
 26 476 26 476 34 472 c 0,301,302
 37 471 37 471 39 471 c 0,285,286
EndSplineSet
EndChar

StartChar: N Left
Encoding: 9588 9588 7
Width: 512
VWidth: 1024
GlyphClass: 2
Flags: W
LayerCount: 2
Fore
SplineSet
-5 495.5 m 128,-1,1
 -5 479 -5 479 0 479 c 0,2,3
 114 479 114 479 167 468 c 0,4,5
 241 452 241 452 303 412.5 c 128,-1,6
 365 373 365 373 404 321.5 c 128,-1,7
 443 270 443 270 466 213.5 c 128,-1,8
 489 157 489 157 492 103 c 0,9,10
 497 25 497 25 491 24 c 0,11,12
 488 23 488 23 481 79 c 0,13,14
 474 132 474 132 454 184.5 c 128,-1,15
 434 237 434 237 400 287.5 c 128,-1,16
 366 338 366 338 311.5 378.5 c 128,-1,17
 257 419 257 419 190 439 c 0,18,19
 113 462 113 462 0 462 c 0,20,21
 -5 462 -5 462 -4.5 453.5 c 128,-1,22
 -4 445 -4 445 0 445 c 0,23,24
 45 445 45 445 79 442 c 0,25,26
 249 429 249 429 359 311 c 0,27,28
 445 216 445 216 472 39 c 0,29,30
 472 37 472 37 473 30 c 128,-1,31
 474 23 474 23 474.5 20 c 128,-1,32
 475 17 475 17 477 12.5 c 128,-1,33
 479 8 479 8 483 6.5 c 128,-1,34
 487 5 487 5 493.5 6.5 c 128,-1,35
 500 8 500 8 502 13 c 0,36,37
 506 21 506 21 507 81.5 c 128,-1,38
 508 142 508 142 504 186 c 0,39,40
 503 199 503 199 486 222 c 128,-1,41
 469 245 469 245 468 252 c 0,42,43
 468 257 468 257 487 249 c 0,44,45
 505 243 505 243 504 251 c 0,46,47
 495 302 495 302 479 323 c 0,48,49
 463 346 463 346 441 346 c 0,50,51
 426 347 426 347 421.5 348.5 c 128,-1,52
 417 350 417 350 417 357 c 0,53,54
 417 367 417 367 428.5 367 c 128,-1,55
 440 367 440 367 453 364 c 128,-1,56
 466 361 466 361 468 363 c 0,57,58
 478 371 478 371 461 393 c 128,-1,59
 444 415 444 415 432 423 c 0,60,61
 399 446 399 446 373 431 c 0,62,63
 367 427 367 427 363.5 425.5 c 128,-1,64
 360 424 360 424 354.5 422.5 c 128,-1,65
 349 421 349 421 345.5 424 c 128,-1,66
 342 427 342 427 340 434 c 0,67,68
 337 444 337 444 344 449 c 128,-1,69
 351 454 351 454 361 454.5 c 128,-1,70
 371 455 371 455 380 456.5 c 128,-1,71
 389 458 389 458 389 462 c 0,72,73
 391 473 391 473 356 493 c 0,74,75
 343 501 343 501 320 506.5 c 128,-1,76
 297 512 297 512 282 512 c 2,77,-1
 0 512 l 2,78,0
 -5 512 -5 512 -5 495.5 c 128,-1,1
-4 39 m 0,79,80
 -4 21 -4 21 0 20 c 0,81,82
 34 12 34 12 68 9 c 0,83,84
 174 -1 174 -1 229 31 c 0,85,86
 270 54 270 54 295 86 c 0,87,88
 305 98 305 98 304 81 c 0,89,90
 304 79 304 79 304 77 c 0,91,92
 302 53 302 53 317 34 c 256,93,94
 332 15 332 15 352 13 c 0,95,96
 382 8 382 8 403 19 c 128,-1,97
 424 30 424 30 431.5 47.5 c 128,-1,98
 439 65 439 65 438 83 c 128,-1,99
 437 101 437 101 428 111 c 0,100,101
 417 122 417 122 417 117 c 0,102,103
 416 115 416 115 418 105 c 0,104,105
 422 74 422 74 415 61 c 0,106,107
 397 28 397 28 362 40 c 0,108,109
 343 46 343 46 342 57 c 0,110,111
 341 61 341 61 344 64 c 0,112,113
 352 73 352 73 367 58 c 0,114,115
 370 54 370 54 373.5 53 c 128,-1,116
 377 52 377 52 379.5 56 c 128,-1,117
 382 60 382 60 381 70 c 0,118,119
 378 89 378 89 369.5 101 c 128,-1,120
 361 113 361 113 349 114 c 0,121,122
 342 116 342 116 331 110 c 0,123,124
 328 109 328 109 323 107 c 0,125,126
 311 101 311 101 309 102 c 128,-1,127
 307 103 307 103 313 119 c 0,128,129
 323 145 323 145 324 171 c 0,130,131
 326 206 326 206 310 237 c 128,-1,132
 294 268 294 268 269 287 c 0,133,134
 267 289 267 289 259 294 c 0,135,136
 224 315 224 315 242 316 c 0,137,138
 243 316 243 316 244 316 c 0,139,140
 263 316 263 316 264 332 c 0,141,142
 264 355 264 355 232 369 c 0,143,144
 218 374 218 374 201 376 c 0,145,146
 196 377 196 377 194.5 373.5 c 128,-1,147
 193 370 193 370 195 364.5 c 128,-1,148
 197 359 197 359 198 354.5 c 128,-1,149
 199 350 199 350 197 349.5 c 128,-1,150
 195 349 195 349 187 354 c 0,151,152
 162 370 162 370 131 354 c 128,-1,153
 100 338 100 338 82 312 c 0,154,155
 72 296 72 296 82 296 c 0,156,157
 86 296 86 296 97 300 c 0,158,159
 118 306 118 306 120 301 c 0,160,161
 122 293 122 293 113 286.5 c 128,-1,162
 104 280 104 280 92 271.5 c 128,-1,163
 80 263 80 263 77 253 c 0,164,165
 71 230 71 230 85.5 212 c 128,-1,166
 100 194 100 194 121 192.5 c 128,-1,167
 142 191 142 191 159 204 c 0,168,169
 166 211 166 211 169.5 226 c 128,-1,170
 173 241 173 241 170 246 c 0,171,172
 167 250 167 250 162 241 c 128,-1,173
 157 232 157 232 148.5 223.5 c 128,-1,174
 140 215 140 215 122 224 c 0,175,176
 114 230 114 230 115 240 c 128,-1,177
 116 250 116 250 127.5 262 c 128,-1,178
 139 274 139 274 155 280 c 0,179,180
 181 290 181 290 213.5 284.5 c 128,-1,181
 246 279 246 279 267 258 c 0,182,183
 294 232 294 232 303.5 204 c 128,-1,184
 313 176 313 176 307 153.5 c 128,-1,185
 301 131 301 131 295 118.5 c 128,-1,186
 289 106 289 106 282 97 c 0,187,188
 276 90 276 90 274.5 97.5 c 128,-1,189
 273 105 273 105 274 112 c 0,190,191
 274 120 274 120 272 131 c 0,192,193
 269 152 269 152 254 158 c 128,-1,194
 239 164 239 164 223 154.5 c 128,-1,195
 207 145 207 145 201 127 c 0,196,197
 197 119 197 119 189 130 c 0,198,199
 175 149 175 149 195 169 c 0,200,201
 198 172 198 172 202 175 c 0,202,203
 214 184 214 184 231 176 c 0,204,205
 236 174 236 174 236 178 c 0,206,207
 236 187 236 187 222 191 c 0,208,209
 214 194 214 194 202 191 c 0,210,211
 188 189 188 189 177 173.5 c 128,-1,212
 166 158 166 158 167 140 c 0,213,214
 168 120 168 120 182 104 c 0,215,216
 202 81 202 81 241 84 c 0,217,218
 243 84 243 84 245 84 c 0,219,220
 258 85 258 85 264 84.5 c 128,-1,221
 270 84 270 84 268 80 c 128,-1,222
 266 76 266 76 254 66 c 0,223,224
 190 14 190 14 84 33 c 0,225,226
 75 35 75 35 91 43 c 0,227,228
 135 66 135 66 118 92 c 0,229,230
 104 111 104 111 77 109 c 0,231,232
 58 108 58 108 51 91 c 0,233,234
 48 83 48 83 59 52 c 0,235,236
 63 38 63 38 57 38 c 0,237,238
 45 39 45 39 11 51 c 0,239,240
 5 53 5 53 0 55 c 0,241,242
 -2 55 -2 55 -3 52 c 0,243,244
 -4 48 -4 48 -4 39 c 0,79,80
EndSplineSet
EndChar

StartChar: W Up
Encoding: 9589 9589 8
Width: 512
VWidth: 1024
GlyphClass: 2
Flags: W
LayerCount: 2
Fore
SplineSet
16.5 517 m 128,-1,1
 33 517 33 517 33 512 c 0,2,3
 33 398 33 398 44 345 c 0,4,5
 60 271 60 271 99.5 209 c 128,-1,6
 139 147 139 147 190.5 108 c 128,-1,7
 242 69 242 69 298.5 46 c 128,-1,8
 355 23 355 23 409 20 c 0,9,10
 487 15 487 15 488 21 c 0,11,12
 489 24 489 24 433 31 c 0,13,14
 380 38 380 38 327.5 58 c 128,-1,15
 275 78 275 78 224.5 112 c 128,-1,16
 174 146 174 146 133.5 200.5 c 128,-1,17
 93 255 93 255 73 322 c 0,18,19
 50 399 50 399 50 512 c 0,20,21
 50 517 50 517 58.5 516.5 c 128,-1,22
 67 516 67 516 67 512 c 0,23,24
 67 467 67 467 70 433 c 0,25,26
 83 263 83 263 201 153 c 0,27,28
 296 67 296 67 473 40 c 0,29,30
 475 40 475 40 482 39 c 128,-1,31
 489 38 489 38 492 37.5 c 128,-1,32
 495 37 495 37 499.5 35 c 128,-1,33
 504 33 504 33 505.5 29 c 128,-1,34
 507 25 507 25 505.5 18.5 c 128,-1,35
 504 12 504 12 499 10 c 0,36,37
 491 6 491 6 430.5 5 c 128,-1,38
 370 4 370 4 326 8 c 0,39,40
 313 9 313 9 290 26 c 128,-1,41
 267 43 267 43 260 44 c 0,42,43
 255 44 255 44 263 25 c 0,44,45
 269 7 269 7 261 8 c 0,46,47
 210 17 210 17 189 33 c 0,48,49
 166 49 166 49 166 71 c 0,50,51
 165 86 165 86 163.5 90.5 c 128,-1,52
 162 95 162 95 155 95 c 0,53,54
 145 95 145 95 145 83.5 c 128,-1,55
 145 72 145 72 148 59 c 128,-1,56
 151 46 151 46 149 44 c 0,57,58
 141 34 141 34 119 51 c 128,-1,59
 97 68 97 68 89 80 c 0,60,61
 66 113 66 113 81 139 c 0,62,63
 85 145 85 145 86.5 148.5 c 128,-1,64
 88 152 88 152 89.5 157.5 c 128,-1,65
 91 163 91 163 88 166.5 c 128,-1,66
 85 170 85 170 78 172 c 0,67,68
 68 175 68 175 63 168 c 128,-1,69
 58 161 58 161 57.5 151 c 128,-1,70
 57 141 57 141 55.5 132 c 128,-1,71
 54 123 54 123 50 123 c 0,72,73
 39 121 39 121 19 156 c 0,74,75
 11 169 11 169 5.5 192 c 128,-1,76
 0 215 0 215 0 230 c 2,77,-1
 0 512 l 2,78,0
 0 517 0 517 16.5 517 c 128,-1,1
473 516 m 0,79,80
 491 516 491 516 492 512 c 0,81,82
 500 478 500 478 503 444 c 0,83,84
 513 338 513 338 481 283 c 0,85,86
 458 242 458 242 426 217 c 0,87,88
 414 207 414 207 431 208 c 0,89,90
 433 208 433 208 435 208 c 0,91,92
 459 210 459 210 478 195 c 256,93,94
 497 180 497 180 499 160 c 0,95,96
 504 130 504 130 493 109 c 128,-1,97
 482 88 482 88 464.5 80.5 c 128,-1,98
 447 73 447 73 429 74 c 128,-1,99
 411 75 411 75 401 84 c 0,100,101
 390 95 390 95 395 95 c 0,102,103
 397 96 397 96 407 94 c 0,104,105
 438 90 438 90 451 97 c 0,106,107
 484 115 484 115 472 150 c 0,108,109
 466 169 466 169 455 170 c 0,110,111
 451 171 451 171 448 168 c 0,112,113
 439 160 439 160 454 145 c 0,114,115
 458 142 458 142 459 138.5 c 128,-1,116
 460 135 460 135 456 132.5 c 128,-1,117
 452 130 452 130 442 131 c 0,118,119
 423 134 423 134 411 142.5 c 128,-1,120
 399 151 399 151 398 163 c 0,121,122
 396 170 396 170 402 181 c 0,123,124
 403 184 403 184 405 189 c 0,125,126
 411 201 411 201 410 203 c 128,-1,127
 409 205 409 205 393 199 c 0,128,129
 367 189 367 189 341 188 c 0,130,131
 306 186 306 186 275 202 c 128,-1,132
 244 218 244 218 225 243 c 0,133,134
 223 245 223 245 218 253 c 0,135,136
 197 288 197 288 196 270 c 0,137,138
 196 269 196 269 196 268 c 0,139,140
 196 249 196 249 180 248 c 0,141,142
 157 248 157 248 143 280 c 0,143,144
 138 294 138 294 136 311 c 0,145,146
 135 316 135 316 138.5 317.5 c 128,-1,147
 142 319 142 319 147.5 317 c 128,-1,148
 153 315 153 315 157.5 314 c 128,-1,149
 162 313 162 313 162.5 315 c 128,-1,150
 163 317 163 317 158 325 c 0,151,152
 142 350 142 350 158 381 c 128,-1,153
 174 412 174 412 200 430 c 0,154,155
 216 440 216 440 216 430 c 0,156,157
 216 426 216 426 212 415 c 0,158,159
 206 394 206 394 211 392 c 0,160,161
 219 390 219 390 225.5 399 c 128,-1,162
 232 408 232 408 240.5 420 c 128,-1,163
 249 432 249 432 259 435 c 0,164,165
 282 441 282 441 300 426.5 c 128,-1,166
 318 412 318 412 319.5 391 c 128,-1,167
 321 370 321 370 308 353 c 0,168,169
 301 346 301 346 286 342.5 c 128,-1,170
 271 339 271 339 266 342 c 0,171,172
 262 345 262 345 271 350 c 128,-1,173
 280 355 280 355 288.5 363.5 c 128,-1,174
 297 372 297 372 288 390 c 0,175,176
 282 398 282 398 272 397 c 128,-1,177
 262 396 262 396 250 384.5 c 128,-1,178
 238 373 238 373 232 357 c 0,179,180
 222 331 222 331 227.5 298.5 c 128,-1,181
 233 266 233 266 254 245 c 0,182,183
 280 218 280 218 308 208.5 c 128,-1,184
 336 199 336 199 358.5 205 c 128,-1,185
 381 211 381 211 393.5 217 c 128,-1,186
 406 223 406 223 415 230 c 0,187,188
 422 236 422 236 414.5 237.5 c 128,-1,189
 407 239 407 239 400 238 c 0,190,191
 392 238 392 238 381 240 c 0,192,193
 360 243 360 243 354 258 c 128,-1,194
 348 273 348 273 357.5 289 c 128,-1,195
 367 305 367 305 385 311 c 0,196,197
 393 315 393 315 382 323 c 0,198,199
 363 337 363 337 343 317 c 0,200,201
 340 314 340 314 337 310 c 0,202,203
 328 298 328 298 336 281 c 0,204,205
 338 276 338 276 334 276 c 0,206,207
 325 276 325 276 321 290 c 0,208,209
 318 298 318 298 321 310 c 0,210,211
 323 324 323 324 338.5 335 c 128,-1,212
 354 346 354 346 372 345 c 0,213,214
 392 344 392 344 408 330 c 0,215,216
 431 310 431 310 428 271 c 0,217,218
 428 269 428 269 428 267 c 0,219,220
 427 254 427 254 427.5 248 c 128,-1,221
 428 242 428 242 432 244 c 128,-1,222
 436 246 436 246 446 258 c 0,223,224
 498 322 498 322 479 428 c 0,225,226
 477 437 477 437 469 421 c 0,227,228
 446 377 446 377 420 394 c 0,229,230
 401 408 401 408 403 435 c 0,231,232
 404 454 404 454 421 461 c 0,233,234
 429 464 429 464 460 453 c 0,235,236
 474 449 474 449 474 455 c 0,237,238
 473 467 473 467 461 501 c 0,239,240
 459 507 459 507 457 512 c 0,241,242
 457 514 457 514 460 515 c 0,243,244
 464 516 464 516 473 516 c 0,79,80
EndSplineSet
EndChar

StartChar: N Right
Encoding: 9590 9590 9
Width: 512
VWidth: 1024
GlyphClass: 2
Flags: W
LayerCount: 2
Fore
SplineSet
517 495.5 m 128,-1,1
 517 479 517 479 512 479 c 0,2,3
 398 479 398 479 345 468 c 0,4,5
 271 452 271 452 209 412.5 c 128,-1,6
 147 373 147 373 108 321.5 c 128,-1,7
 69 270 69 270 46 213.5 c 128,-1,8
 23 157 23 157 20 103 c 0,9,10
 15 25 15 25 21 24 c 0,11,12
 24 23 24 23 31 79 c 0,13,14
 38 132 38 132 58 184.5 c 128,-1,15
 78 237 78 237 112 287.5 c 128,-1,16
 146 338 146 338 200.5 378.5 c 128,-1,17
 255 419 255 419 322 439 c 0,18,19
 399 462 399 462 512 462 c 0,20,21
 517 462 517 462 516.5 453.5 c 128,-1,22
 516 445 516 445 512 445 c 0,23,24
 467 445 467 445 433 442 c 0,25,26
 263 429 263 429 153 311 c 0,27,28
 67 216 67 216 40 39 c 0,29,30
 40 37 40 37 39 30 c 128,-1,31
 38 23 38 23 37.5 20 c 128,-1,32
 37 17 37 17 35 12.5 c 128,-1,33
 33 8 33 8 29 6.5 c 128,-1,34
 25 5 25 5 18.5 6.5 c 128,-1,35
 12 8 12 8 10 13 c 0,36,37
 6 21 6 21 5 81.5 c 128,-1,38
 4 142 4 142 8 186 c 0,39,40
 9 199 9 199 26 222 c 128,-1,41
 43 245 43 245 44 252 c 0,42,43
 44 257 44 257 25 249 c 0,44,45
 7 243 7 243 8 251 c 0,46,47
 17 302 17 302 33 323 c 0,48,49
 49 346 49 346 71 346 c 0,50,51
 86 347 86 347 90.5 348.5 c 128,-1,52
 95 350 95 350 95 357 c 0,53,54
 95 367 95 367 83.5 367 c 128,-1,55
 72 367 72 367 59 364 c 128,-1,56
 46 361 46 361 44 363 c 0,57,58
 34 371 34 371 51 393 c 128,-1,59
 68 415 68 415 80 423 c 0,60,61
 113 446 113 446 139 431 c 0,62,63
 145 427 145 427 148.5 425.5 c 128,-1,64
 152 424 152 424 157.5 422.5 c 128,-1,65
 163 421 163 421 166.5 424 c 128,-1,66
 170 427 170 427 172 434 c 0,67,68
 175 444 175 444 168 449 c 128,-1,69
 161 454 161 454 151 454.5 c 128,-1,70
 141 455 141 455 132 456.5 c 128,-1,71
 123 458 123 458 123 462 c 0,72,73
 121 473 121 473 156 493 c 0,74,75
 169 501 169 501 192 506.5 c 128,-1,76
 215 512 215 512 230 512 c 2,77,-1
 512 512 l 2,78,0
 517 512 517 512 517 495.5 c 128,-1,1
516 39 m 0,79,80
 516 21 516 21 512 20 c 0,81,82
 478 12 478 12 444 9 c 0,83,84
 338 -1 338 -1 283 31 c 0,85,86
 242 54 242 54 217 86 c 0,87,88
 207 98 207 98 208 81 c 0,89,90
 208 79 208 79 208 77 c 0,91,92
 210 53 210 53 195 34 c 256,93,94
 180 15 180 15 160 13 c 0,95,96
 130 8 130 8 109 19 c 128,-1,97
 88 30 88 30 80.5 47.5 c 128,-1,98
 73 65 73 65 74 83 c 128,-1,99
 75 101 75 101 84 111 c 0,100,101
 95 122 95 122 95 117 c 0,102,103
 96 115 96 115 94 105 c 0,104,105
 90 74 90 74 97 61 c 0,106,107
 115 28 115 28 150 40 c 0,108,109
 169 46 169 46 170 57 c 0,110,111
 171 61 171 61 168 64 c 0,112,113
 160 73 160 73 145 58 c 0,114,115
 142 54 142 54 138.5 53 c 128,-1,116
 135 52 135 52 132.5 56 c 128,-1,117
 130 60 130 60 131 70 c 0,118,119
 134 89 134 89 142.5 101 c 128,-1,120
 151 113 151 113 163 114 c 0,121,122
 170 116 170 116 181 110 c 0,123,124
 184 109 184 109 189 107 c 0,125,126
 201 101 201 101 203 102 c 128,-1,127
 205 103 205 103 199 119 c 0,128,129
 189 145 189 145 188 171 c 0,130,131
 186 206 186 206 202 237 c 128,-1,132
 218 268 218 268 243 287 c 0,133,134
 245 289 245 289 253 294 c 0,135,136
 288 315 288 315 270 316 c 0,137,138
 269 316 269 316 268 316 c 0,139,140
 249 316 249 316 248 332 c 0,141,142
 248 355 248 355 280 369 c 0,143,144
 294 374 294 374 311 376 c 0,145,146
 316 377 316 377 317.5 373.5 c 128,-1,147
 319 370 319 370 317 364.5 c 128,-1,148
 315 359 315 359 314 354.5 c 128,-1,149
 313 350 313 350 315 349.5 c 128,-1,150
 317 349 317 349 325 354 c 0,151,152
 350 370 350 370 381 354 c 128,-1,153
 412 338 412 338 430 312 c 0,154,155
 440 296 440 296 430 296 c 0,156,157
 426 296 426 296 415 300 c 0,158,159
 394 306 394 306 392 301 c 0,160,161
 390 293 390 293 399 286.5 c 128,-1,162
 408 280 408 280 420 271.5 c 128,-1,163
 432 263 432 263 435 253 c 0,164,165
 441 230 441 230 426.5 212 c 128,-1,166
 412 194 412 194 391 192.5 c 128,-1,167
 370 191 370 191 353 204 c 0,168,169
 346 211 346 211 342.5 226 c 128,-1,170
 339 241 339 241 342 246 c 0,171,172
 345 250 345 250 350 241 c 128,-1,173
 355 232 355 232 363.5 223.5 c 128,-1,174
 372 215 372 215 390 224 c 0,175,176
 398 230 398 230 397 240 c 128,-1,177
 396 250 396 250 384.5 262 c 128,-1,178
 373 274 373 274 357 280 c 0,179,180
 331 290 331 290 298.5 284.5 c 128,-1,181
 266 279 266 279 245 258 c 0,182,183
 218 232 218 232 208.5 204 c 128,-1,184
 199 176 199 176 205 153.5 c 128,-1,185
 211 131 211 131 217 118.5 c 128,-1,186
 223 106 223 106 230 97 c 0,187,188
 236 90 236 90 237.5 97.5 c 128,-1,189
 239 105 239 105 238 112 c 0,190,191
 238 120 238 120 240 131 c 0,192,193
 243 152 243 152 258 158 c 128,-1,194
 273 164 273 164 289 154.5 c 128,-1,195
 305 145 305 145 311 127 c 0,196,197
 315 119 315 119 323 130 c 0,198,199
 337 149 337 149 317 169 c 0,200,201
 314 172 314 172 310 175 c 0,202,203
 298 184 298 184 281 176 c 0,204,205
 276 174 276 174 276 178 c 0,206,207
 276 187 276 187 290 191 c 0,208,209
 298 194 298 194 310 191 c 0,210,211
 324 189 324 189 335 173.5 c 128,-1,212
 346 158 346 158 345 140 c 0,213,214
 344 120 344 120 330 104 c 0,215,216
 310 81 310 81 271 84 c 0,217,218
 269 84 269 84 267 84 c 0,219,220
 254 85 254 85 248 84.5 c 128,-1,221
 242 84 242 84 244 80 c 128,-1,222
 246 76 246 76 258 66 c 0,223,224
 322 14 322 14 428 33 c 0,225,226
 437 35 437 35 421 43 c 0,227,228
 377 66 377 66 394 92 c 0,229,230
 408 111 408 111 435 109 c 0,231,232
 454 108 454 108 461 91 c 0,233,234
 464 83 464 83 453 52 c 0,235,236
 449 38 449 38 455 38 c 0,237,238
 467 39 467 39 501 51 c 0,239,240
 507 53 507 53 512 55 c 0,241,242
 514 55 514 55 515 52 c 0,243,244
 516 48 516 48 516 39 c 0,79,80
EndSplineSet
EndChar

StartChar: W Down
Encoding: 9591 9591 10
Width: 512
VWidth: 1024
GlyphClass: 2
Flags: W
LayerCount: 2
Fore
SplineSet
16.5 -5 m 128,-1,1
 33 -5 33 -5 33 0 c 0,2,3
 33 114 33 114 44 167 c 0,4,5
 60 241 60 241 99.5 303 c 128,-1,6
 139 365 139 365 190.5 404 c 128,-1,7
 242 443 242 443 298.5 466 c 128,-1,8
 355 489 355 489 409 492 c 0,9,10
 487 497 487 497 488 491 c 0,11,12
 489 488 489 488 433 481 c 0,13,14
 380 474 380 474 327.5 454 c 128,-1,15
 275 434 275 434 224.5 400 c 128,-1,16
 174 366 174 366 133.5 311.5 c 128,-1,17
 93 257 93 257 73 190 c 0,18,19
 50 113 50 113 50 0 c 0,20,21
 50 -5 50 -5 58.5 -4.5 c 128,-1,22
 67 -4 67 -4 67 0 c 0,23,24
 67 45 67 45 70 79 c 0,25,26
 83 249 83 249 201 359 c 0,27,28
 296 445 296 445 473 472 c 0,29,30
 475 472 475 472 482 473 c 128,-1,31
 489 474 489 474 492 474.5 c 128,-1,32
 495 475 495 475 499.5 477 c 128,-1,33
 504 479 504 479 505.5 483 c 128,-1,34
 507 487 507 487 505.5 493.5 c 128,-1,35
 504 500 504 500 499 502 c 0,36,37
 491 506 491 506 430.5 507 c 128,-1,38
 370 508 370 508 326 504 c 0,39,40
 313 503 313 503 290 486 c 128,-1,41
 267 469 267 469 260 468 c 0,42,43
 255 468 255 468 263 487 c 0,44,45
 269 505 269 505 261 504 c 0,46,47
 210 495 210 495 189 479 c 0,48,49
 166 463 166 463 166 441 c 0,50,51
 165 426 165 426 163.5 421.5 c 128,-1,52
 162 417 162 417 155 417 c 0,53,54
 145 417 145 417 145 428.5 c 128,-1,55
 145 440 145 440 148 453 c 128,-1,56
 151 466 151 466 149 468 c 0,57,58
 141 478 141 478 119 461 c 128,-1,59
 97 444 97 444 89 432 c 0,60,61
 66 399 66 399 81 373 c 0,62,63
 85 367 85 367 86.5 363.5 c 128,-1,64
 88 360 88 360 89.5 354.5 c 128,-1,65
 91 349 91 349 88 345.5 c 128,-1,66
 85 342 85 342 78 340 c 0,67,68
 68 337 68 337 63 344 c 128,-1,69
 58 351 58 351 57.5 361 c 128,-1,70
 57 371 57 371 55.5 380 c 128,-1,71
 54 389 54 389 50 389 c 0,72,73
 39 391 39 391 19 356 c 0,74,75
 11 343 11 343 5.5 320 c 128,-1,76
 0 297 0 297 0 282 c 2,77,-1
 0 0 l 2,78,0
 0 -5 0 -5 16.5 -5 c 128,-1,1
473 -4 m 0,79,80
 491 -4 491 -4 492 0 c 0,81,82
 500 34 500 34 503 68 c 0,83,84
 513 174 513 174 481 229 c 0,85,86
 458 270 458 270 426 295 c 0,87,88
 414 305 414 305 431 304 c 0,89,90
 433 304 433 304 435 304 c 0,91,92
 459 302 459 302 478 317 c 256,93,94
 497 332 497 332 499 352 c 0,95,96
 504 382 504 382 493 403 c 128,-1,97
 482 424 482 424 464.5 431.5 c 128,-1,98
 447 439 447 439 429 438 c 128,-1,99
 411 437 411 437 401 428 c 0,100,101
 390 417 390 417 395 417 c 0,102,103
 397 416 397 416 407 418 c 0,104,105
 438 422 438 422 451 415 c 0,106,107
 484 397 484 397 472 362 c 0,108,109
 466 343 466 343 455 342 c 0,110,111
 451 341 451 341 448 344 c 0,112,113
 439 352 439 352 454 367 c 0,114,115
 458 370 458 370 459 373.5 c 128,-1,116
 460 377 460 377 456 379.5 c 128,-1,117
 452 382 452 382 442 381 c 0,118,119
 423 378 423 378 411 369.5 c 128,-1,120
 399 361 399 361 398 349 c 0,121,122
 396 342 396 342 402 331 c 0,123,124
 403 328 403 328 405 323 c 0,125,126
 411 311 411 311 410 309 c 128,-1,127
 409 307 409 307 393 313 c 0,128,129
 367 323 367 323 341 324 c 0,130,131
 306 326 306 326 275 310 c 128,-1,132
 244 294 244 294 225 269 c 0,133,134
 223 267 223 267 218 259 c 0,135,136
 197 224 197 224 196 242 c 0,137,138
 196 243 196 243 196 244 c 0,139,140
 196 263 196 263 180 264 c 0,141,142
 157 264 157 264 143 232 c 0,143,144
 138 218 138 218 136 201 c 0,145,146
 135 196 135 196 138.5 194.5 c 128,-1,147
 142 193 142 193 147.5 195 c 128,-1,148
 153 197 153 197 157.5 198 c 128,-1,149
 162 199 162 199 162.5 197 c 128,-1,150
 163 195 163 195 158 187 c 0,151,152
 142 162 142 162 158 131 c 128,-1,153
 174 100 174 100 200 82 c 0,154,155
 216 72 216 72 216 82 c 0,156,157
 216 86 216 86 212 97 c 0,158,159
 206 118 206 118 211 120 c 0,160,161
 219 122 219 122 225.5 113 c 128,-1,162
 232 104 232 104 240.5 92 c 128,-1,163
 249 80 249 80 259 77 c 0,164,165
 282 71 282 71 300 85.5 c 128,-1,166
 318 100 318 100 319.5 121 c 128,-1,167
 321 142 321 142 308 159 c 0,168,169
 301 166 301 166 286 169.5 c 128,-1,170
 271 173 271 173 266 170 c 0,171,172
 262 167 262 167 271 162 c 128,-1,173
 280 157 280 157 288.5 148.5 c 128,-1,174
 297 140 297 140 288 122 c 0,175,176
 282 114 282 114 272 115 c 128,-1,177
 262 116 262 116 250 127.5 c 128,-1,178
 238 139 238 139 232 155 c 0,179,180
 222 181 222 181 227.5 213.5 c 128,-1,181
 233 246 233 246 254 267 c 0,182,183
 280 294 280 294 308 303.5 c 128,-1,184
 336 313 336 313 358.5 307 c 128,-1,185
 381 301 381 301 393.5 295 c 128,-1,186
 406 289 406 289 415 282 c 0,187,188
 422 276 422 276 414.5 274.5 c 128,-1,189
 407 273 407 273 400 274 c 0,190,191
 392 274 392 274 381 272 c 0,192,193
 360 269 360 269 354 254 c 128,-1,194
 348 239 348 239 357.5 223 c 128,-1,195
 367 207 367 207 385 201 c 0,196,197
 393 197 393 197 382 189 c 0,198,199
 363 175 363 175 343 195 c 0,200,201
 340 198 340 198 337 202 c 0,202,203
 328 214 328 214 336 231 c 0,204,205
 338 236 338 236 334 236 c 0,206,207
 325 236 325 236 321 222 c 0,208,209
 318 214 318 214 321 202 c 0,210,211
 323 188 323 188 338.5 177 c 128,-1,212
 354 166 354 166 372 167 c 0,213,214
 392 168 392 168 408 182 c 0,215,216
 431 202 431 202 428 241 c 0,217,218
 428 243 428 243 428 245 c 0,219,220
 427 258 427 258 427.5 264 c 128,-1,221
 428 270 428 270 432 268 c 128,-1,222
 436 266 436 266 446 254 c 0,223,224
 498 190 498 190 479 84 c 0,225,226
 477 75 477 75 469 91 c 0,227,228
 446 135 446 135 420 118 c 0,229,230
 401 104 401 104 403 77 c 0,231,232
 404 58 404 58 421 51 c 0,233,234
 429 48 429 48 460 59 c 0,235,236
 474 63 474 63 474 57 c 0,237,238
 473 45 473 45 461 11 c 0,239,240
 459 5 459 5 457 0 c 0,241,242
 457 -2 457 -2 460 -3 c 0,243,244
 464 -4 464 -4 473 -4 c 0,79,80
EndSplineSet
EndChar

StartChar: S Left
Encoding: 9592 9592 11
Width: 512
VWidth: 1024
GlyphClass: 2
Flags: W
LayerCount: 2
Fore
SplineSet
-5 16.5 m 128,-1,1
 -5 33 -5 33 0 33 c 0,2,3
 114 33 114 33 167 44 c 0,4,5
 241 60 241 60 303 99.5 c 128,-1,6
 365 139 365 139 404 190.5 c 128,-1,7
 443 242 443 242 466 298.5 c 128,-1,8
 489 355 489 355 492 409 c 0,9,10
 497 487 497 487 491 488 c 0,11,12
 488 489 488 489 481 433 c 0,13,14
 474 380 474 380 454 327.5 c 128,-1,15
 434 275 434 275 400 224.5 c 128,-1,16
 366 174 366 174 311.5 133.5 c 128,-1,17
 257 93 257 93 190 73 c 0,18,19
 113 50 113 50 0 50 c 0,20,21
 -5 50 -5 50 -4.5 58.5 c 128,-1,22
 -4 67 -4 67 0 67 c 0,23,24
 45 67 45 67 79 70 c 0,25,26
 249 83 249 83 359 201 c 0,27,28
 445 296 445 296 472 473 c 0,29,30
 472 475 472 475 473 482 c 128,-1,31
 474 489 474 489 474.5 492 c 128,-1,32
 475 495 475 495 477 499.5 c 128,-1,33
 479 504 479 504 483 505.5 c 128,-1,34
 487 507 487 507 493.5 505.5 c 128,-1,35
 500 504 500 504 502 499 c 0,36,37
 506 491 506 491 507 430.5 c 128,-1,38
 508 370 508 370 504 326 c 0,39,40
 503 313 503 313 486 290 c 128,-1,41
 469 267 469 267 468 260 c 0,42,43
 468 255 468 255 487 263 c 0,44,45
 505 269 505 269 504 261 c 0,46,47
 495 210 495 210 479 189 c 0,48,49
 463 166 463 166 441 166 c 0,50,51
 426 165 426 165 421.5 163.5 c 128,-1,52
 417 162 417 162 417 155 c 0,53,54
 417 145 417 145 428.5 145 c 128,-1,55
 440 145 440 145 453 148 c 128,-1,56
 466 151 466 151 468 149 c 0,57,58
 478 141 478 141 461 119 c 128,-1,59
 444 97 444 97 432 89 c 0,60,61
 399 66 399 66 373 81 c 0,62,63
 367 85 367 85 363.5 86.5 c 128,-1,64
 360 88 360 88 354.5 89.5 c 128,-1,65
 349 91 349 91 345.5 88 c 128,-1,66
 342 85 342 85 340 78 c 0,67,68
 337 68 337 68 344 63 c 128,-1,69
 351 58 351 58 361 57.5 c 128,-1,70
 371 57 371 57 380 55.5 c 128,-1,71
 389 54 389 54 389 50 c 0,72,73
 391 39 391 39 356 19 c 0,74,75
 343 11 343 11 320 5.5 c 128,-1,76
 297 0 297 0 282 0 c 2,77,-1
 0 0 l 2,78,0
 -5 0 -5 0 -5 16.5 c 128,-1,1
-4 473 m 0,79,80
 -4 491 -4 491 0 492 c 0,81,82
 34 500 34 500 68 503 c 0,83,84
 174 513 174 513 229 481 c 0,85,86
 270 458 270 458 295 426 c 0,87,88
 305 414 305 414 304 431 c 0,89,90
 304 433 304 433 304 435 c 0,91,92
 302 459 302 459 317 478 c 256,93,94
 332 497 332 497 352 499 c 0,95,96
 382 504 382 504 403 493 c 128,-1,97
 424 482 424 482 431.5 464.5 c 128,-1,98
 439 447 439 447 438 429 c 128,-1,99
 437 411 437 411 428 401 c 0,100,101
 417 390 417 390 417 395 c 0,102,103
 416 397 416 397 418 407 c 0,104,105
 422 438 422 438 415 451 c 0,106,107
 397 484 397 484 362 472 c 0,108,109
 343 466 343 466 342 455 c 0,110,111
 341 451 341 451 344 448 c 0,112,113
 352 439 352 439 367 454 c 0,114,115
 370 458 370 458 373.5 459 c 128,-1,116
 377 460 377 460 379.5 456 c 128,-1,117
 382 452 382 452 381 442 c 0,118,119
 378 423 378 423 369.5 411 c 128,-1,120
 361 399 361 399 349 398 c 0,121,122
 342 396 342 396 331 402 c 0,123,124
 328 403 328 403 323 405 c 0,125,126
 311 411 311 411 309 410 c 128,-1,127
 307 409 307 409 313 393 c 0,128,129
 323 367 323 367 324 341 c 0,130,131
 326 306 326 306 310 275 c 128,-1,132
 294 244 294 244 269 225 c 0,133,134
 267 223 267 223 259 218 c 0,135,136
 224 197 224 197 242 196 c 0,137,138
 243 196 243 196 244 196 c 0,139,140
 263 196 263 196 264 180 c 0,141,142
 264 157 264 157 232 143 c 0,143,144
 218 138 218 138 201 136 c 0,145,146
 196 135 196 135 194.5 138.5 c 128,-1,147
 193 142 193 142 195 147.5 c 128,-1,148
 197 153 197 153 198 157.5 c 128,-1,149
 199 162 199 162 197 162.5 c 128,-1,150
 195 163 195 163 187 158 c 0,151,152
 162 142 162 142 131 158 c 128,-1,153
 100 174 100 174 82 200 c 0,154,155
 72 216 72 216 82 216 c 0,156,157
 86 216 86 216 97 212 c 0,158,159
 118 206 118 206 120 211 c 0,160,161
 122 219 122 219 113 225.5 c 128,-1,162
 104 232 104 232 92 240.5 c 128,-1,163
 80 249 80 249 77 259 c 0,164,165
 71 282 71 282 85.5 300 c 128,-1,166
 100 318 100 318 121 319.5 c 128,-1,167
 142 321 142 321 159 308 c 0,168,169
 166 301 166 301 169.5 286 c 128,-1,170
 173 271 173 271 170 266 c 0,171,172
 167 262 167 262 162 271 c 128,-1,173
 157 280 157 280 148.5 288.5 c 128,-1,174
 140 297 140 297 122 288 c 0,175,176
 114 282 114 282 115 272 c 128,-1,177
 116 262 116 262 127.5 250 c 128,-1,178
 139 238 139 238 155 232 c 0,179,180
 181 222 181 222 213.5 227.5 c 128,-1,181
 246 233 246 233 267 254 c 0,182,183
 294 280 294 280 303.5 308 c 128,-1,184
 313 336 313 336 307 358.5 c 128,-1,185
 301 381 301 381 295 393.5 c 128,-1,186
 289 406 289 406 282 415 c 0,187,188
 276 422 276 422 274.5 414.5 c 128,-1,189
 273 407 273 407 274 400 c 0,190,191
 274 392 274 392 272 381 c 0,192,193
 269 360 269 360 254 354 c 128,-1,194
 239 348 239 348 223 357.5 c 128,-1,195
 207 367 207 367 201 385 c 0,196,197
 197 393 197 393 189 382 c 0,198,199
 175 363 175 363 195 343 c 0,200,201
 198 340 198 340 202 337 c 0,202,203
 214 328 214 328 231 336 c 0,204,205
 236 338 236 338 236 334 c 0,206,207
 236 325 236 325 222 321 c 0,208,209
 214 318 214 318 202 321 c 0,210,211
 188 323 188 323 177 338.5 c 128,-1,212
 166 354 166 354 167 372 c 0,213,214
 168 392 168 392 182 408 c 0,215,216
 202 431 202 431 241 428 c 0,217,218
 243 428 243 428 245 428 c 0,219,220
 258 427 258 427 264 427.5 c 128,-1,221
 270 428 270 428 268 432 c 128,-1,222
 266 436 266 436 254 446 c 0,223,224
 190 498 190 498 84 479 c 0,225,226
 75 477 75 477 91 469 c 0,227,228
 135 446 135 446 118 420 c 0,229,230
 104 401 104 401 77 403 c 0,231,232
 58 404 58 404 51 421 c 0,233,234
 48 429 48 429 59 460 c 0,235,236
 63 474 63 474 57 474 c 0,237,238
 45 473 45 473 11 461 c 0,239,240
 5 459 5 459 0 457 c 0,241,242
 -2 457 -2 457 -3 460 c 0,243,244
 -4 464 -4 464 -4 473 c 0,79,80
EndSplineSet
EndChar

StartChar: E Up
Encoding: 9593 9593 12
Width: 512
VWidth: 1024
GlyphClass: 2
Flags: W
LayerCount: 2
Fore
SplineSet
495.5 517 m 128,-1,1
 479 517 479 517 479 512 c 0,2,3
 479 398 479 398 468 345 c 0,4,5
 452 271 452 271 412.5 209 c 128,-1,6
 373 147 373 147 321.5 108 c 128,-1,7
 270 69 270 69 213.5 46 c 128,-1,8
 157 23 157 23 103 20 c 0,9,10
 25 15 25 15 24 21 c 0,11,12
 23 24 23 24 79 31 c 0,13,14
 132 38 132 38 184.5 58 c 128,-1,15
 237 78 237 78 287.5 112 c 128,-1,16
 338 146 338 146 378.5 200.5 c 128,-1,17
 419 255 419 255 439 322 c 0,18,19
 462 399 462 399 462 512 c 0,20,21
 462 517 462 517 453.5 516.5 c 128,-1,22
 445 516 445 516 445 512 c 0,23,24
 445 467 445 467 442 433 c 0,25,26
 429 263 429 263 311 153 c 0,27,28
 216 67 216 67 39 40 c 0,29,30
 37 40 37 40 30 39 c 128,-1,31
 23 38 23 38 20 37.5 c 128,-1,32
 17 37 17 37 12.5 35 c 128,-1,33
 8 33 8 33 6.5 29 c 128,-1,34
 5 25 5 25 6.5 18.5 c 128,-1,35
 8 12 8 12 13 10 c 0,36,37
 21 6 21 6 81.5 5 c 128,-1,38
 142 4 142 4 186 8 c 0,39,40
 199 9 199 9 222 26 c 128,-1,41
 245 43 245 43 252 44 c 0,42,43
 257 44 257 44 249 25 c 0,44,45
 243 7 243 7 251 8 c 0,46,47
 302 17 302 17 323 33 c 0,48,49
 346 49 346 49 346 71 c 0,50,51
 347 86 347 86 348.5 90.5 c 128,-1,52
 350 95 350 95 357 95 c 0,53,54
 367 95 367 95 367 83.5 c 128,-1,55
 367 72 367 72 364 59 c 128,-1,56
 361 46 361 46 363 44 c 0,57,58
 371 34 371 34 393 51 c 128,-1,59
 415 68 415 68 423 80 c 0,60,61
 446 113 446 113 431 139 c 0,62,63
 427 145 427 145 425.5 148.5 c 128,-1,64
 424 152 424 152 422.5 157.5 c 128,-1,65
 421 163 421 163 424 166.5 c 128,-1,66
 427 170 427 170 434 172 c 0,67,68
 444 175 444 175 449 168 c 128,-1,69
 454 161 454 161 454.5 151 c 128,-1,70
 455 141 455 141 456.5 132 c 128,-1,71
 458 123 458 123 462 123 c 0,72,73
 473 121 473 121 493 156 c 0,74,75
 501 169 501 169 506.5 192 c 128,-1,76
 512 215 512 215 512 230 c 2,77,-1
 512 512 l 2,78,0
 512 517 512 517 495.5 517 c 128,-1,1
39 516 m 0,79,80
 21 516 21 516 20 512 c 0,81,82
 12 478 12 478 9 444 c 0,83,84
 -1 338 -1 338 31 283 c 0,85,86
 54 242 54 242 86 217 c 0,87,88
 98 207 98 207 81 208 c 0,89,90
 79 208 79 208 77 208 c 0,91,92
 53 210 53 210 34 195 c 256,93,94
 15 180 15 180 13 160 c 0,95,96
 8 130 8 130 19 109 c 128,-1,97
 30 88 30 88 47.5 80.5 c 128,-1,98
 65 73 65 73 83 74 c 128,-1,99
 101 75 101 75 111 84 c 0,100,101
 122 95 122 95 117 95 c 0,102,103
 115 96 115 96 105 94 c 0,104,105
 74 90 74 90 61 97 c 0,106,107
 28 115 28 115 40 150 c 0,108,109
 46 169 46 169 57 170 c 0,110,111
 61 171 61 171 64 168 c 0,112,113
 73 160 73 160 58 145 c 0,114,115
 54 142 54 142 53 138.5 c 128,-1,116
 52 135 52 135 56 132.5 c 128,-1,117
 60 130 60 130 70 131 c 0,118,119
 89 134 89 134 101 142.5 c 128,-1,120
 113 151 113 151 114 163 c 0,121,122
 116 170 116 170 110 181 c 0,123,124
 109 184 109 184 107 189 c 0,125,126
 101 201 101 201 102 203 c 128,-1,127
 103 205 103 205 119 199 c 0,128,129
 145 189 145 189 171 188 c 0,130,131
 206 186 206 186 237 202 c 128,-1,132
 268 218 268 218 287 243 c 0,133,134
 289 245 289 245 294 253 c 0,135,136
 315 288 315 288 316 270 c 0,137,138
 316 269 316 269 316 268 c 0,139,140
 316 249 316 249 332 248 c 0,141,142
 355 248 355 248 369 280 c 0,143,144
 374 294 374 294 376 311 c 0,145,146
 377 316 377 316 373.5 317.5 c 128,-1,147
 370 319 370 319 364.5 317 c 128,-1,148
 359 315 359 315 354.5 314 c 128,-1,149
 350 313 350 313 349.5 315 c 128,-1,150
 349 317 349 317 354 325 c 0,151,152
 370 350 370 350 354 381 c 128,-1,153
 338 412 338 412 312 430 c 0,154,155
 296 440 296 440 296 430 c 0,156,157
 296 426 296 426 300 415 c 0,158,159
 306 394 306 394 301 392 c 0,160,161
 293 390 293 390 286.5 399 c 128,-1,162
 280 408 280 408 271.5 420 c 128,-1,163
 263 432 263 432 253 435 c 0,164,165
 230 441 230 441 212 426.5 c 128,-1,166
 194 412 194 412 192.5 391 c 128,-1,167
 191 370 191 370 204 353 c 0,168,169
 211 346 211 346 226 342.5 c 128,-1,170
 241 339 241 339 246 342 c 0,171,172
 250 345 250 345 241 350 c 128,-1,173
 232 355 232 355 223.5 363.5 c 128,-1,174
 215 372 215 372 224 390 c 0,175,176
 230 398 230 398 240 397 c 128,-1,177
 250 396 250 396 262 384.5 c 128,-1,178
 274 373 274 373 280 357 c 0,179,180
 290 331 290 331 284.5 298.5 c 128,-1,181
 279 266 279 266 258 245 c 0,182,183
 232 218 232 218 204 208.5 c 128,-1,184
 176 199 176 199 153.5 205 c 128,-1,185
 131 211 131 211 118.5 217 c 128,-1,186
 106 223 106 223 97 230 c 0,187,188
 90 236 90 236 97.5 237.5 c 128,-1,189
 105 239 105 239 112 238 c 0,190,191
 120 238 120 238 131 240 c 0,192,193
 152 243 152 243 158 258 c 128,-1,194
 164 273 164 273 154.5 289 c 128,-1,195
 145 305 145 305 127 311 c 0,196,197
 119 315 119 315 130 323 c 0,198,199
 149 337 149 337 169 317 c 0,200,201
 172 314 172 314 175 310 c 0,202,203
 184 298 184 298 176 281 c 0,204,205
 174 276 174 276 178 276 c 0,206,207
 187 276 187 276 191 290 c 0,208,209
 194 298 194 298 191 310 c 0,210,211
 189 324 189 324 173.5 335 c 128,-1,212
 158 346 158 346 140 345 c 0,213,214
 120 344 120 344 104 330 c 0,215,216
 81 310 81 310 84 271 c 0,217,218
 84 269 84 269 84 267 c 0,219,220
 85 254 85 254 84.5 248 c 128,-1,221
 84 242 84 242 80 244 c 128,-1,222
 76 246 76 246 66 258 c 0,223,224
 14 322 14 322 33 428 c 0,225,226
 35 437 35 437 43 421 c 0,227,228
 66 377 66 377 92 394 c 0,229,230
 111 408 111 408 109 435 c 0,231,232
 108 454 108 454 91 461 c 0,233,234
 83 464 83 464 52 453 c 0,235,236
 38 449 38 449 38 455 c 0,237,238
 39 467 39 467 51 501 c 0,239,240
 53 507 53 507 55 512 c 0,241,242
 55 514 55 514 52 515 c 0,243,244
 48 516 48 516 39 516 c 0,79,80
EndSplineSet
EndChar

StartChar: S Right
Encoding: 9594 9594 13
Width: 512
VWidth: 1024
GlyphClass: 2
Flags: W
LayerCount: 2
Fore
SplineSet
517 16.5 m 128,-1,1
 517 33 517 33 512 33 c 0,2,3
 398 33 398 33 345 44 c 0,4,5
 271 60 271 60 209 99.5 c 128,-1,6
 147 139 147 139 108 190.5 c 128,-1,7
 69 242 69 242 46 298.5 c 128,-1,8
 23 355 23 355 20 409 c 0,9,10
 15 487 15 487 21 488 c 0,11,12
 24 489 24 489 31 433 c 0,13,14
 38 380 38 380 58 327.5 c 128,-1,15
 78 275 78 275 112 224.5 c 128,-1,16
 146 174 146 174 200.5 133.5 c 128,-1,17
 255 93 255 93 322 73 c 0,18,19
 399 50 399 50 512 50 c 0,20,21
 517 50 517 50 516.5 58.5 c 128,-1,22
 516 67 516 67 512 67 c 0,23,24
 467 67 467 67 433 70 c 0,25,26
 263 83 263 83 153 201 c 0,27,28
 67 296 67 296 40 473 c 0,29,30
 40 475 40 475 39 482 c 128,-1,31
 38 489 38 489 37.5 492 c 128,-1,32
 37 495 37 495 35 499.5 c 128,-1,33
 33 504 33 504 29 505.5 c 128,-1,34
 25 507 25 507 18.5 505.5 c 128,-1,35
 12 504 12 504 10 499 c 0,36,37
 6 491 6 491 5 430.5 c 128,-1,38
 4 370 4 370 8 326 c 0,39,40
 9 313 9 313 26 290 c 128,-1,41
 43 267 43 267 44 260 c 0,42,43
 44 255 44 255 25 263 c 0,44,45
 7 269 7 269 8 261 c 0,46,47
 17 210 17 210 33 189 c 0,48,49
 49 166 49 166 71 166 c 0,50,51
 86 165 86 165 90.5 163.5 c 128,-1,52
 95 162 95 162 95 155 c 0,53,54
 95 145 95 145 83.5 145 c 128,-1,55
 72 145 72 145 59 148 c 128,-1,56
 46 151 46 151 44 149 c 0,57,58
 34 141 34 141 51 119 c 128,-1,59
 68 97 68 97 80 89 c 0,60,61
 113 66 113 66 139 81 c 0,62,63
 145 85 145 85 148.5 86.5 c 128,-1,64
 152 88 152 88 157.5 89.5 c 128,-1,65
 163 91 163 91 166.5 88 c 128,-1,66
 170 85 170 85 172 78 c 0,67,68
 175 68 175 68 168 63 c 128,-1,69
 161 58 161 58 151 57.5 c 128,-1,70
 141 57 141 57 132 55.5 c 128,-1,71
 123 54 123 54 123 50 c 0,72,73
 121 39 121 39 156 19 c 0,74,75
 169 11 169 11 192 5.5 c 128,-1,76
 215 0 215 0 230 0 c 2,77,-1
 512 0 l 2,78,0
 517 0 517 0 517 16.5 c 128,-1,1
516 473 m 0,79,80
 516 491 516 491 512 492 c 0,81,82
 478 500 478 500 444 503 c 0,83,84
 338 513 338 513 283 481 c 0,85,86
 242 458 242 458 217 426 c 0,87,88
 207 414 207 414 208 431 c 0,89,90
 208 433 208 433 208 435 c 0,91,92
 210 459 210 459 195 478 c 256,93,94
 180 497 180 497 160 499 c 0,95,96
 130 504 130 504 109 493 c 128,-1,97
 88 482 88 482 80.5 464.5 c 128,-1,98
 73 447 73 447 74 429 c 128,-1,99
 75 411 75 411 84 401 c 0,100,101
 95 390 95 390 95 395 c 0,102,103
 96 397 96 397 94 407 c 0,104,105
 90 438 90 438 97 451 c 0,106,107
 115 484 115 484 150 472 c 0,108,109
 169 466 169 466 170 455 c 0,110,111
 171 451 171 451 168 448 c 0,112,113
 160 439 160 439 145 454 c 0,114,115
 142 458 142 458 138.5 459 c 128,-1,116
 135 460 135 460 132.5 456 c 128,-1,117
 130 452 130 452 131 442 c 0,118,119
 134 423 134 423 142.5 411 c 128,-1,120
 151 399 151 399 163 398 c 0,121,122
 170 396 170 396 181 402 c 0,123,124
 184 403 184 403 189 405 c 0,125,126
 201 411 201 411 203 410 c 128,-1,127
 205 409 205 409 199 393 c 0,128,129
 189 367 189 367 188 341 c 0,130,131
 186 306 186 306 202 275 c 128,-1,132
 218 244 218 244 243 225 c 0,133,134
 245 223 245 223 253 218 c 0,135,136
 288 197 288 197 270 196 c 0,137,138
 269 196 269 196 268 196 c 0,139,140
 249 196 249 196 248 180 c 0,141,142
 248 157 248 157 280 143 c 0,143,144
 294 138 294 138 311 136 c 0,145,146
 316 135 316 135 317.5 138.5 c 128,-1,147
 319 142 319 142 317 147.5 c 128,-1,148
 315 153 315 153 314 157.5 c 128,-1,149
 313 162 313 162 315 162.5 c 128,-1,150
 317 163 317 163 325 158 c 0,151,152
 350 142 350 142 381 158 c 128,-1,153
 412 174 412 174 430 200 c 0,154,155
 440 216 440 216 430 216 c 0,156,157
 426 216 426 216 415 212 c 0,158,159
 394 206 394 206 392 211 c 0,160,161
 390 219 390 219 399 225.5 c 128,-1,162
 408 232 408 232 420 240.5 c 128,-1,163
 432 249 432 249 435 259 c 0,164,165
 441 282 441 282 426.5 300 c 128,-1,166
 412 318 412 318 391 319.5 c 128,-1,167
 370 321 370 321 353 308 c 0,168,169
 346 301 346 301 342.5 286 c 128,-1,170
 339 271 339 271 342 266 c 0,171,172
 345 262 345 262 350 271 c 128,-1,173
 355 280 355 280 363.5 288.5 c 128,-1,174
 372 297 372 297 390 288 c 0,175,176
 398 282 398 282 397 272 c 128,-1,177
 396 262 396 262 384.5 250 c 128,-1,178
 373 238 373 238 357 232 c 0,179,180
 331 222 331 222 298.5 227.5 c 128,-1,181
 266 233 266 233 245 254 c 0,182,183
 218 280 218 280 208.5 308 c 128,-1,184
 199 336 199 336 205 358.5 c 128,-1,185
 211 381 211 381 217 393.5 c 128,-1,186
 223 406 223 406 230 415 c 0,187,188
 236 422 236 422 237.5 414.5 c 128,-1,189
 239 407 239 407 238 400 c 0,190,191
 238 392 238 392 240 381 c 0,192,193
 243 360 243 360 258 354 c 128,-1,194
 273 348 273 348 289 357.5 c 128,-1,195
 305 367 305 367 311 385 c 0,196,197
 315 393 315 393 323 382 c 0,198,199
 337 363 337 363 317 343 c 0,200,201
 314 340 314 340 310 337 c 0,202,203
 298 328 298 328 281 336 c 0,204,205
 276 338 276 338 276 334 c 0,206,207
 276 325 276 325 290 321 c 0,208,209
 298 318 298 318 310 321 c 0,210,211
 324 323 324 323 335 338.5 c 128,-1,212
 346 354 346 354 345 372 c 0,213,214
 344 392 344 392 330 408 c 0,215,216
 310 431 310 431 271 428 c 0,217,218
 269 428 269 428 267 428 c 0,219,220
 254 427 254 427 248 427.5 c 128,-1,221
 242 428 242 428 244 432 c 128,-1,222
 246 436 246 436 258 446 c 0,223,224
 322 498 322 498 428 479 c 0,225,226
 437 477 437 477 421 469 c 0,227,228
 377 446 377 446 394 420 c 0,229,230
 408 401 408 401 435 403 c 0,231,232
 454 404 454 404 461 421 c 0,233,234
 464 429 464 429 453 460 c 0,235,236
 449 474 449 474 455 474 c 0,237,238
 467 473 467 473 501 461 c 0,239,240
 507 459 507 459 512 457 c 0,241,242
 514 457 514 457 515 460 c 0,243,244
 516 464 516 464 516 473 c 0,79,80
EndSplineSet
EndChar

StartChar: E Down
Encoding: 9595 9595 14
Width: 512
VWidth: 1024
GlyphClass: 2
Flags: W
LayerCount: 2
Fore
SplineSet
495.5 -5 m 128,-1,1
 479 -5 479 -5 479 0 c 0,2,3
 479 114 479 114 468 167 c 0,4,5
 452 241 452 241 412.5 303 c 128,-1,6
 373 365 373 365 321.5 404 c 128,-1,7
 270 443 270 443 213.5 466 c 128,-1,8
 157 489 157 489 103 492 c 0,9,10
 25 497 25 497 24 491 c 0,11,12
 23 488 23 488 79 481 c 0,13,14
 132 474 132 474 184.5 454 c 128,-1,15
 237 434 237 434 287.5 400 c 128,-1,16
 338 366 338 366 378.5 311.5 c 128,-1,17
 419 257 419 257 439 190 c 0,18,19
 462 113 462 113 462 0 c 0,20,21
 462 -5 462 -5 453.5 -4.5 c 128,-1,22
 445 -4 445 -4 445 0 c 0,23,24
 445 45 445 45 442 79 c 0,25,26
 429 249 429 249 311 359 c 0,27,28
 216 445 216 445 39 472 c 0,29,30
 37 472 37 472 30 473 c 128,-1,31
 23 474 23 474 20 474.5 c 128,-1,32
 17 475 17 475 12.5 477 c 128,-1,33
 8 479 8 479 6.5 483 c 128,-1,34
 5 487 5 487 6.5 493.5 c 128,-1,35
 8 500 8 500 13 502 c 0,36,37
 21 506 21 506 81.5 507 c 128,-1,38
 142 508 142 508 186 504 c 0,39,40
 199 503 199 503 222 486 c 128,-1,41
 245 469 245 469 252 468 c 0,42,43
 257 468 257 468 249 487 c 0,44,45
 243 505 243 505 251 504 c 0,46,47
 302 495 302 495 323 479 c 0,48,49
 346 463 346 463 346 441 c 0,50,51
 347 426 347 426 348.5 421.5 c 128,-1,52
 350 417 350 417 357 417 c 0,53,54
 367 417 367 417 367 428.5 c 128,-1,55
 367 440 367 440 364 453 c 128,-1,56
 361 466 361 466 363 468 c 0,57,58
 371 478 371 478 393 461 c 128,-1,59
 415 444 415 444 423 432 c 0,60,61
 446 399 446 399 431 373 c 0,62,63
 427 367 427 367 425.5 363.5 c 128,-1,64
 424 360 424 360 422.5 354.5 c 128,-1,65
 421 349 421 349 424 345.5 c 128,-1,66
 427 342 427 342 434 340 c 0,67,68
 444 337 444 337 449 344 c 128,-1,69
 454 351 454 351 454.5 361 c 128,-1,70
 455 371 455 371 456.5 380 c 128,-1,71
 458 389 458 389 462 389 c 0,72,73
 473 391 473 391 493 356 c 0,74,75
 501 343 501 343 506.5 320 c 128,-1,76
 512 297 512 297 512 282 c 2,77,-1
 512 0 l 2,78,0
 512 -5 512 -5 495.5 -5 c 128,-1,1
39 -4 m 0,79,80
 21 -4 21 -4 20 0 c 0,81,82
 12 34 12 34 9 68 c 0,83,84
 -1 174 -1 174 31 229 c 0,85,86
 54 270 54 270 86 295 c 0,87,88
 98 305 98 305 81 304 c 0,89,90
 79 304 79 304 77 304 c 0,91,92
 53 302 53 302 34 317 c 256,93,94
 15 332 15 332 13 352 c 0,95,96
 8 382 8 382 19 403 c 128,-1,97
 30 424 30 424 47.5 431.5 c 128,-1,98
 65 439 65 439 83 438 c 128,-1,99
 101 437 101 437 111 428 c 0,100,101
 122 417 122 417 117 417 c 0,102,103
 115 416 115 416 105 418 c 0,104,105
 74 422 74 422 61 415 c 0,106,107
 28 397 28 397 40 362 c 0,108,109
 46 343 46 343 57 342 c 0,110,111
 61 341 61 341 64 344 c 0,112,113
 73 352 73 352 58 367 c 0,114,115
 54 370 54 370 53 373.5 c 128,-1,116
 52 377 52 377 56 379.5 c 128,-1,117
 60 382 60 382 70 381 c 0,118,119
 89 378 89 378 101 369.5 c 128,-1,120
 113 361 113 361 114 349 c 0,121,122
 116 342 116 342 110 331 c 0,123,124
 109 328 109 328 107 323 c 0,125,126
 101 311 101 311 102 309 c 128,-1,127
 103 307 103 307 119 313 c 0,128,129
 145 323 145 323 171 324 c 0,130,131
 206 326 206 326 237 310 c 128,-1,132
 268 294 268 294 287 269 c 0,133,134
 289 267 289 267 294 259 c 0,135,136
 315 224 315 224 316 242 c 0,137,138
 316 243 316 243 316 244 c 0,139,140
 316 263 316 263 332 264 c 0,141,142
 355 264 355 264 369 232 c 0,143,144
 374 218 374 218 376 201 c 0,145,146
 377 196 377 196 373.5 194.5 c 128,-1,147
 370 193 370 193 364.5 195 c 128,-1,148
 359 197 359 197 354.5 198 c 128,-1,149
 350 199 350 199 349.5 197 c 128,-1,150
 349 195 349 195 354 187 c 0,151,152
 370 162 370 162 354 131 c 128,-1,153
 338 100 338 100 312 82 c 0,154,155
 296 72 296 72 296 82 c 0,156,157
 296 86 296 86 300 97 c 0,158,159
 306 118 306 118 301 120 c 0,160,161
 293 122 293 122 286.5 113 c 128,-1,162
 280 104 280 104 271.5 92 c 128,-1,163
 263 80 263 80 253 77 c 0,164,165
 230 71 230 71 212 85.5 c 128,-1,166
 194 100 194 100 192.5 121 c 128,-1,167
 191 142 191 142 204 159 c 0,168,169
 211 166 211 166 226 169.5 c 128,-1,170
 241 173 241 173 246 170 c 0,171,172
 250 167 250 167 241 162 c 128,-1,173
 232 157 232 157 223.5 148.5 c 128,-1,174
 215 140 215 140 224 122 c 0,175,176
 230 114 230 114 240 115 c 128,-1,177
 250 116 250 116 262 127.5 c 128,-1,178
 274 139 274 139 280 155 c 0,179,180
 290 181 290 181 284.5 213.5 c 128,-1,181
 279 246 279 246 258 267 c 0,182,183
 232 294 232 294 204 303.5 c 128,-1,184
 176 313 176 313 153.5 307 c 128,-1,185
 131 301 131 301 118.5 295 c 128,-1,186
 106 289 106 289 97 282 c 0,187,188
 90 276 90 276 97.5 274.5 c 128,-1,189
 105 273 105 273 112 274 c 0,190,191
 120 274 120 274 131 272 c 0,192,193
 152 269 152 269 158 254 c 128,-1,194
 164 239 164 239 154.5 223 c 128,-1,195
 145 207 145 207 127 201 c 0,196,197
 119 197 119 197 130 189 c 0,198,199
 149 175 149 175 169 195 c 0,200,201
 172 198 172 198 175 202 c 0,202,203
 184 214 184 214 176 231 c 0,204,205
 174 236 174 236 178 236 c 0,206,207
 187 236 187 236 191 222 c 0,208,209
 194 214 194 214 191 202 c 0,210,211
 189 188 189 188 173.5 177 c 128,-1,212
 158 166 158 166 140 167 c 0,213,214
 120 168 120 168 104 182 c 0,215,216
 81 202 81 202 84 241 c 0,217,218
 84 243 84 243 84 245 c 0,219,220
 85 258 85 258 84.5 264 c 128,-1,221
 84 270 84 270 80 268 c 128,-1,222
 76 266 76 266 66 254 c 0,223,224
 14 190 14 190 33 84 c 0,225,226
 35 75 35 75 43 91 c 0,227,228
 66 135 66 135 92 118 c 0,229,230
 111 104 111 104 109 77 c 0,231,232
 108 58 108 58 91 51 c 0,233,234
 83 48 83 48 52 59 c 0,235,236
 38 63 38 63 38 57 c 0,237,238
 39 45 39 45 51 11 c 0,239,240
 53 5 53 5 55 0 c 0,241,242
 55 -2 55 -2 52 -3 c 0,243,244
 48 -4 48 -4 39 -4 c 0,79,80
EndSplineSet
EndChar

StartChar: SE Up and Horizontal
Encoding: 9531 9531 15
Width: 512
VWidth: 1024
GlyphClass: 2
Flags: W
LayerCount: 2
Fore
SplineSet
495.5 517 m 128,-1,1
 479 517 479 517 479 512 c 0,2,3
 479 504 479 504 470.5 505.5 c 128,-1,4
 462 507 462 507 462 512 c 0,5,6
 462 519 462 519 445 512 c 0,7,8
 430 506 430 506 422 503.5 c 128,-1,9
 414 501 414 501 411.5 501 c 128,-1,10
 409 501 409 501 402.5 502 c 128,-1,11
 396 503 396 503 389 504 c 0,12,13
 352 503 352 503 330 482 c 0,14,15
 304 458 304 458 309 432 c 0,16,17
 311 419 311 419 304 428 c 0,18,19
 303 429 303 429 300 434 c 0,20,21
 290 447 290 447 276 459 c 0,22,23
 250 482 250 482 221 493 c 128,-1,24
 192 504 192 504 145 505 c 0,25,26
 113 506 113 506 68 503 c 0,27,28
 34 500 34 500 0 493 c 0,29,30
 -6 492 -6 492 -4 467 c 0,31,32
 -2 458 -2 458 0 457 c 0,33,34
 1 458 1 458 2 458 c 0,35,36
 5 459 5 459 9.5 461 c 128,-1,37
 14 463 14 463 17 464 c 128,-1,38
 20 465 20 465 24 466.5 c 128,-1,39
 28 468 28 468 30 468 c 128,-1,40
 32 468 32 468 34.5 468 c 128,-1,41
 37 468 37 468 38.5 466.5 c 128,-1,42
 40 465 40 465 41 463 c 128,-1,43
 42 461 42 461 41.5 457 c 128,-1,44
 41 453 41 453 39 447 c 0,45,46
 32 417 32 417 61 409 c 0,47,48
 86 402 86 402 100 426 c 0,49,50
 113 450 113 450 94 463 c 0,51,52
 89 466 89 466 83 467 c 0,53,54
 69 470 69 470 68 474 c 0,55,56
 68 476 68 476 71 477 c 0,57,58
 85 482 85 482 111.5 486 c 128,-1,59
 138 490 138 490 183 484.5 c 128,-1,60
 228 479 228 479 256 454 c 0,61,62
 273 439 273 439 288 419 c 0,63,64
 295 409 295 409 287 409 c 0,65,66
 283 409 283 409 277 413 c 0,67,68
 250 427 250 427 236 427 c 0,69,70
 216 426 216 426 204 415 c 0,71,72
 180 391 180 391 196 368 c 0,73,74
 209 348 209 348 227 359 c 0,75,76
 231 361 231 361 234 365 c 0,77,78
 240 372 240 372 247.5 370 c 128,-1,79
 255 368 255 368 252 358 c 0,80,81
 243 335 243 335 218 329 c 128,-1,82
 193 323 193 323 170.5 334 c 128,-1,83
 148 345 148 345 145 365 c 0,84,85
 144 371 144 371 145 376 c 128,-1,86
 146 381 146 381 147.5 383.5 c 128,-1,87
 149 386 149 386 152.5 390.5 c 128,-1,88
 156 395 156 395 157 396 c 0,89,90
 166 411 166 411 159 422 c 0,91,92
 156 426 156 426 153 420 c 0,93,94
 150 415 150 415 143 406 c 128,-1,95
 136 397 136 397 132.5 389.5 c 128,-1,96
 129 382 129 382 128 372 c 0,97,98
 128 349 128 349 143 333 c 0,99,100
 182 291 182 291 238 316 c 0,101,102
 259 326 259 326 273.5 345.5 c 128,-1,103
 288 365 288 365 291 384 c 0,104,105
 294 397 294 397 298 396 c 0,106,107
 301 396 301 396 303 389 c 0,108,109
 329 298 329 298 278 235 c 0,110,111
 262 215 262 215 241.5 202.5 c 128,-1,112
 221 190 221 190 190.5 186 c 128,-1,113
 160 182 160 182 128 199 c 0,114,115
 94 216 94 216 99 254 c 0,116,117
 102 275 102 275 114 275 c 256,118,119
 126 275 126 275 128 262 c 0,120,121
 129 259 129 259 128 256 c 0,122,123
 125 243 125 243 125 243 c 2,124,125
 124 229 124 229 135 235 c 0,126,127
 150 243 150 243 148 262 c 0,128,129
 147 275 147 275 134 286 c 0,130,131
 119 300 119 300 91 292 c 0,132,133
 74 288 74 288 78 278 c 0,134,135
 83 270 83 270 82.5 266 c 128,-1,136
 82 262 82 262 73 262 c 256,137,138
 64 262 64 262 61 259.5 c 128,-1,139
 58 257 58 257 57 248 c 0,140,141
 56 236 56 236 59 229 c 0,142,143
 61 224 61 224 67 221.5 c 128,-1,144
 73 219 73 219 78 219 c 128,-1,145
 83 219 83 219 86.5 217.5 c 128,-1,146
 90 216 90 216 88 212 c 0,147,148
 87 210 87 210 74.5 206.5 c 128,-1,149
 62 203 62 203 60 192 c 0,150,151
 58 176 58 176 72.5 160.5 c 128,-1,152
 87 145 87 145 98 147 c 0,153,154
 102 148 102 148 106 150 c 128,-1,155
 110 152 110 152 112 153.5 c 128,-1,156
 114 155 114 155 116 158.5 c 128,-1,157
 118 162 118 162 118.5 163 c 128,-1,158
 119 164 119 164 121 169 c 128,-1,159
 123 174 123 174 123 175 c 0,160,161
 126 179 126 179 131 179 c 128,-1,162
 136 179 136 179 140.5 175.5 c 128,-1,163
 145 172 145 172 143 167 c 0,164,165
 142 165 142 165 136.5 156.5 c 128,-1,166
 131 148 131 148 130 143.5 c 128,-1,167
 129 139 129 139 131 130 c 0,168,169
 139 113 139 113 159.5 103.5 c 128,-1,170
 180 94 180 94 194 104 c 0,171,172
 208 115 208 115 210.5 125 c 128,-1,173
 213 135 213 135 208.5 145.5 c 128,-1,174
 204 156 204 156 204 159 c 0,175,176
 204 165 204 165 212 167.5 c 128,-1,177
 220 170 220 170 227.5 166 c 128,-1,178
 235 162 235 162 234 154 c 0,179,180
 231 124 231 124 256 118 c 0,181,182
 271 113 271 113 287.5 124.5 c 128,-1,183
 304 136 304 136 310 150 c 0,184,185
 326 188 326 188 289 201 c 0,186,187
 285 202 285 202 284.5 203 c 128,-1,188
 284 204 284 204 285.5 206 c 128,-1,189
 287 208 287 208 290.5 211 c 128,-1,190
 294 214 294 214 298.5 219.5 c 128,-1,191
 303 225 303 225 307.5 231.5 c 128,-1,192
 312 238 312 238 316.5 248.5 c 128,-1,193
 321 259 321 259 324 272 c 0,194,195
 340 340 340 340 320 395 c 0,196,197
 315 410 315 410 317 410 c 0,198,199
 318 411 318 411 323 406 c 0,200,201
 349 378 349 378 375 400 c 0,202,203
 395 418 395 418 389 440 c 0,204,205
 385 450 385 450 374 455 c 0,206,207
 368 458 368 458 355 452 c 128,-1,208
 342 446 342 446 338 445 c 0,209,210
 325 445 325 445 340 463 c 0,211,212
 351 477 351 477 365 483 c 0,213,214
 389 493 389 493 411 487 c 128,-1,215
 433 481 433 481 437 462 c 0,216,217
 440 447 440 447 429 444 c 0,218,219
 424 442 424 442 422 446 c 0,220,221
 421 446 421 446 419.5 450.5 c 128,-1,222
 418 455 418 455 416 457 c 0,223,224
 407 466 407 466 408 454 c 0,225,226
 409 434 409 434 422 427 c 0,227,228
 427 424 427 424 432 426 c 0,229,230
 444 430 444 430 452 440 c 128,-1,231
 460 450 460 450 459 463.5 c 128,-1,232
 458 477 458 477 442 487 c 0,233,234
 434 492 434 492 434 494 c 128,-1,235
 434 496 434 496 439 498 c 0,236,237
 441 499 441 499 442 500 c 0,238,239
 453 505 453 505 458 496 c 128,-1,240
 463 487 463 487 485 485 c 0,241,242
 499 484 499 484 505.5 492 c 128,-1,243
 512 500 512 500 512 512 c 0,244,0
 512 517 512 517 495.5 517 c 128,-1,1
446 379 m 0,245,246
 426 379 426 379 411 362 c 0,247,248
 398 348 398 348 407 325 c 0,249,250
 413 312 413 312 417 321 c 0,251,252
 417 322 417 322 418 324 c 0,253,254
 420 330 420 330 418.5 335 c 128,-1,255
 417 340 417 340 419 345 c 128,-1,256
 421 350 421 350 427 353 c 0,257,258
 439 359 439 359 449 352 c 128,-1,259
 459 345 459 345 458 332 c 0,260,261
 458 324 458 324 456.5 317 c 128,-1,262
 455 310 455 310 451 302 c 128,-1,263
 447 294 447 294 445 290 c 128,-1,264
 443 286 443 286 437.5 277 c 128,-1,265
 432 268 432 268 430 265 c 0,266,267
 381 181 381 181 435 140 c 0,268,269
 440 136 440 136 443 140 c 128,-1,270
 446 144 446 144 449 154 c 0,271,272
 458 180 458 180 478 173 c 128,-1,273
 498 166 498 166 499 141 c 0,274,275
 499 127 499 127 490 113 c 0,276,277
 470 84 470 84 487 80 c 0,278,279
 500 78 500 78 509 92 c 0,280,281
 512 97 512 97 512 103 c 2,282,-1
 512 189 l 1,283,284
 494 189 494 189 481 197 c 128,-1,285
 468 205 468 205 468 215.5 c 128,-1,286
 468 226 468 226 481 234 c 128,-1,287
 494 242 494 242 512 242 c 1,288,-1
 512 295 l 2,289,290
 512 312 512 312 501 334.5 c 128,-1,291
 490 357 490 357 480 366 c 0,292,293
 465 378 465 378 450 379 c 0,294,295
 448 379 448 379 446 379 c 0,245,246
0 67 m 2,296,297
 -4 67 -4 67 -4 58.5 c 128,-1,298
 -4 50 -4 50 0 50 c 2,299,-1
 512 50 l 2,300,301
 516 50 516 50 516 58.5 c 128,-1,302
 516 67 516 67 512 67 c 2,303,-1
 0 67 l 2,296,297
0 33 m 2,304,305
 -4 33 -4 33 -4 16.5 c 128,-1,306
 -4 0 -4 0 0 0 c 2,307,-1
 512 0 l 2,308,309
 516 0 516 0 516 16.5 c 128,-1,310
 516 33 516 33 512 33 c 2,311,-1
 0 33 l 2,304,305
EndSplineSet
EndChar

StartChar: SW Vertical and Right
Encoding: 9501 9501 16
Width: 512
VWidth: 1024
GlyphClass: 2
Flags: W
LayerCount: 2
Fore
SplineSet
517 16.5 m 128,-1,1
 517 33 517 33 512 33 c 0,2,3
 504 33 504 33 505.5 41.5 c 128,-1,4
 507 50 507 50 512 50 c 0,5,6
 519 50 519 50 512 67 c 0,7,8
 506 82 506 82 503.5 90 c 128,-1,9
 501 98 501 98 501 100.5 c 128,-1,10
 501 103 501 103 502 109.5 c 128,-1,11
 503 116 503 116 504 123 c 0,12,13
 503 160 503 160 482 182 c 0,14,15
 458 208 458 208 432 203 c 0,16,17
 419 201 419 201 428 208 c 0,18,19
 429 209 429 209 434 212 c 0,20,21
 447 222 447 222 459 236 c 0,22,23
 482 262 482 262 493 291 c 128,-1,24
 504 320 504 320 505 367 c 0,25,26
 506 399 506 399 503 444 c 0,27,28
 500 478 500 478 493 512 c 0,29,30
 492 518 492 518 467 516 c 0,31,32
 458 514 458 514 457 512 c 0,33,34
 458 511 458 511 458 510 c 0,35,36
 459 507 459 507 461 502.5 c 128,-1,37
 463 498 463 498 464 495 c 128,-1,38
 465 492 465 492 466.5 488 c 128,-1,39
 468 484 468 484 468 482 c 128,-1,40
 468 480 468 480 468 477.5 c 128,-1,41
 468 475 468 475 466.5 473.5 c 128,-1,42
 465 472 465 472 463 471 c 128,-1,43
 461 470 461 470 457 470.5 c 128,-1,44
 453 471 453 471 447 473 c 0,45,46
 417 480 417 480 409 451 c 0,47,48
 402 426 402 426 426 412 c 0,49,50
 450 399 450 399 463 418 c 0,51,52
 466 423 466 423 467 429 c 0,53,54
 470 443 470 443 474 444 c 0,55,56
 476 444 476 444 477 441 c 0,57,58
 482 427 482 427 486 400.5 c 128,-1,59
 490 374 490 374 484.5 329 c 128,-1,60
 479 284 479 284 454 256 c 0,61,62
 439 239 439 239 419 224 c 0,63,64
 409 217 409 217 409 225 c 0,65,66
 409 229 409 229 413 235 c 0,67,68
 427 262 427 262 427 276 c 0,69,70
 426 296 426 296 415 308 c 0,71,72
 391 332 391 332 368 316 c 0,73,74
 348 303 348 303 359 285 c 0,75,76
 361 281 361 281 365 278 c 0,77,78
 372 272 372 272 370 264.5 c 128,-1,79
 368 257 368 257 358 260 c 0,80,81
 335 269 335 269 329 294 c 128,-1,82
 323 319 323 319 334 341.5 c 128,-1,83
 345 364 345 364 365 367 c 0,84,85
 371 368 371 368 376 367 c 128,-1,86
 381 366 381 366 383.5 364.5 c 128,-1,87
 386 363 386 363 390.5 359.5 c 128,-1,88
 395 356 395 356 396 355 c 0,89,90
 411 346 411 346 422 353 c 0,91,92
 426 356 426 356 420 359 c 0,93,94
 415 362 415 362 406 369 c 128,-1,95
 397 376 397 376 389.5 379.5 c 128,-1,96
 382 383 382 383 372 384 c 0,97,98
 349 384 349 384 333 369 c 0,99,100
 291 330 291 330 316 274 c 0,101,102
 326 253 326 253 345.5 238.5 c 128,-1,103
 365 224 365 224 384 221 c 0,104,105
 397 218 397 218 396 214 c 0,106,107
 396 211 396 211 389 209 c 0,108,109
 298 183 298 183 235 234 c 0,110,111
 215 250 215 250 202.5 270.5 c 128,-1,112
 190 291 190 291 186 321.5 c 128,-1,113
 182 352 182 352 199 384 c 0,114,115
 216 418 216 418 254 413 c 0,116,117
 275 410 275 410 275 398 c 256,118,119
 275 386 275 386 262 384 c 0,120,121
 259 383 259 383 256 384 c 0,122,123
 243 387 243 387 243 387 c 2,124,125
 229 388 229 388 235 377 c 0,126,127
 243 362 243 362 262 364 c 0,128,129
 275 365 275 365 286 378 c 0,130,131
 300 393 300 393 292 421 c 0,132,133
 288 438 288 438 278 434 c 0,134,135
 270 429 270 429 266 429.5 c 128,-1,136
 262 430 262 430 262 439 c 256,137,138
 262 448 262 448 259.5 451 c 128,-1,139
 257 454 257 454 248 455 c 0,140,141
 236 456 236 456 229 453 c 0,142,143
 224 451 224 451 221.5 445 c 128,-1,144
 219 439 219 439 219 434 c 128,-1,145
 219 429 219 429 217.5 425.5 c 128,-1,146
 216 422 216 422 212 424 c 0,147,148
 210 425 210 425 206.5 437.5 c 128,-1,149
 203 450 203 450 192 452 c 0,150,151
 176 454 176 454 160.5 439.5 c 128,-1,152
 145 425 145 425 147 414 c 0,153,154
 148 410 148 410 150 406 c 128,-1,155
 152 402 152 402 153.5 400 c 128,-1,156
 155 398 155 398 158.5 396 c 128,-1,157
 162 394 162 394 163 393.5 c 128,-1,158
 164 393 164 393 169 391 c 128,-1,159
 174 389 174 389 175 389 c 0,160,161
 179 386 179 386 179 381 c 128,-1,162
 179 376 179 376 175.5 371.5 c 128,-1,163
 172 367 172 367 167 369 c 0,164,165
 165 370 165 370 156.5 375.5 c 128,-1,166
 148 381 148 381 143.5 382 c 128,-1,167
 139 383 139 383 130 381 c 0,168,169
 113 373 113 373 103.5 352.5 c 128,-1,170
 94 332 94 332 104 318 c 0,171,172
 115 304 115 304 125 301.5 c 128,-1,173
 135 299 135 299 145.5 303.5 c 128,-1,174
 156 308 156 308 159 308 c 0,175,176
 165 308 165 308 167.5 300 c 128,-1,177
 170 292 170 292 166 284.5 c 128,-1,178
 162 277 162 277 154 278 c 0,179,180
 124 281 124 281 118 256 c 0,181,182
 113 241 113 241 124.5 224.5 c 128,-1,183
 136 208 136 208 150 202 c 0,184,185
 188 186 188 186 201 223 c 0,186,187
 202 227 202 227 203 227.5 c 128,-1,188
 204 228 204 228 206 226.5 c 128,-1,189
 208 225 208 225 211 221.5 c 128,-1,190
 214 218 214 218 219.5 213.5 c 128,-1,191
 225 209 225 209 231.5 204.5 c 128,-1,192
 238 200 238 200 248.5 195.5 c 128,-1,193
 259 191 259 191 272 188 c 0,194,195
 340 172 340 172 395 192 c 0,196,197
 410 197 410 197 410 195 c 0,198,199
 411 194 411 194 406 189 c 0,200,201
 378 163 378 163 400 137 c 0,202,203
 418 117 418 117 440 123 c 0,204,205
 450 127 450 127 455 138 c 0,206,207
 458 144 458 144 452 157 c 128,-1,208
 446 170 446 170 445 174 c 0,209,210
 445 187 445 187 463 172 c 0,211,212
 477 161 477 161 483 147 c 0,213,214
 493 123 493 123 487 101 c 128,-1,215
 481 79 481 79 462 75 c 0,216,217
 447 72 447 72 444 83 c 0,218,219
 442 88 442 88 446 90 c 0,220,221
 446 91 446 91 450.5 92.5 c 128,-1,222
 455 94 455 94 457 96 c 0,223,224
 466 105 466 105 454 104 c 0,225,226
 434 103 434 103 427 90 c 0,227,228
 424 85 424 85 426 80 c 0,229,230
 430 68 430 68 440 60 c 128,-1,231
 450 52 450 52 463.5 53 c 128,-1,232
 477 54 477 54 487 70 c 0,233,234
 492 78 492 78 494 78 c 128,-1,235
 496 78 496 78 498 73 c 0,236,237
 499 71 499 71 500 70 c 0,238,239
 505 59 505 59 496 54 c 128,-1,240
 487 49 487 49 485 27 c 0,241,242
 484 13 484 13 492 6.5 c 128,-1,243
 500 0 500 0 512 0 c 0,244,0
 517 0 517 0 517 16.5 c 128,-1,1
379 66 m 0,245,246
 379 86 379 86 362 101 c 0,247,248
 348 114 348 114 325 105 c 0,249,250
 312 99 312 99 321 95 c 0,251,252
 322 95 322 95 324 94 c 0,253,254
 330 92 330 92 335 93.5 c 128,-1,255
 340 95 340 95 345 93 c 128,-1,256
 350 91 350 91 353 85 c 0,257,258
 359 73 359 73 352 63 c 128,-1,259
 345 53 345 53 332 54 c 0,260,261
 324 54 324 54 317 55.5 c 128,-1,262
 310 57 310 57 302 61 c 128,-1,263
 294 65 294 65 290 67 c 128,-1,264
 286 69 286 69 277 74.5 c 128,-1,265
 268 80 268 80 265 82 c 0,266,267
 181 131 181 131 140 77 c 0,268,269
 136 72 136 72 140 69 c 128,-1,270
 144 66 144 66 154 63 c 0,271,272
 180 54 180 54 173 34 c 128,-1,273
 166 14 166 14 141 13 c 0,274,275
 127 13 127 13 113 22 c 0,276,277
 84 42 84 42 80 25 c 0,278,279
 78 12 78 12 92 3 c 0,280,281
 97 0 97 0 103 0 c 2,282,-1
 189 0 l 1,283,284
 189 18 189 18 197 31 c 128,-1,285
 205 44 205 44 215.5 44 c 128,-1,286
 226 44 226 44 234 31 c 128,-1,287
 242 18 242 18 242 0 c 1,288,-1
 295 0 l 2,289,290
 312 0 312 0 334.5 11 c 128,-1,291
 357 22 357 22 366 32 c 0,292,293
 378 47 378 47 379 62 c 0,294,295
 379 64 379 64 379 66 c 0,245,246
67 512 m 2,296,297
 67 516 67 516 58.5 516 c 128,-1,298
 50 516 50 516 50 512 c 2,299,-1
 50 0 l 2,300,301
 50 -4 50 -4 58.5 -4 c 128,-1,302
 67 -4 67 -4 67 0 c 2,303,-1
 67 512 l 2,296,297
33 512 m 2,304,305
 33 516 33 516 16.5 516 c 128,-1,306
 0 516 0 516 0 512 c 2,307,-1
 0 0 l 2,308,309
 0 -4 0 -4 16.5 -4 c 128,-1,310
 33 -4 33 -4 33 0 c 2,311,-1
 33 512 l 2,304,305
EndSplineSet
EndChar

StartChar: NW Down and Horizontal
Encoding: 9516 9516 17
Width: 512
VWidth: 1024
GlyphClass: 2
Flags: W
LayerCount: 2
Fore
SplineSet
16.5 -5 m 128,-1,1
 33 -5 33 -5 33 0 c 0,2,3
 33 8 33 8 41.5 6.5 c 128,-1,4
 50 5 50 5 50 0 c 0,5,6
 50 -7 50 -7 67 0 c 0,7,8
 82 6 82 6 90 8.5 c 128,-1,9
 98 11 98 11 100.5 11 c 128,-1,10
 103 11 103 11 109.5 10 c 128,-1,11
 116 9 116 9 123 8 c 0,12,13
 160 9 160 9 182 30 c 0,14,15
 208 54 208 54 203 80 c 0,16,17
 201 93 201 93 208 84 c 0,18,19
 209 83 209 83 212 78 c 0,20,21
 222 65 222 65 236 53 c 0,22,23
 262 30 262 30 291 19 c 128,-1,24
 320 8 320 8 367 7 c 0,25,26
 399 6 399 6 444 9 c 0,27,28
 478 12 478 12 512 19 c 0,29,30
 518 20 518 20 516 45 c 0,31,32
 514 54 514 54 512 55 c 0,33,34
 511 54 511 54 510 54 c 0,35,36
 507 53 507 53 502.5 51 c 128,-1,37
 498 49 498 49 495 48 c 128,-1,38
 492 47 492 47 488 45.5 c 128,-1,39
 484 44 484 44 482 44 c 128,-1,40
 480 44 480 44 477.5 44 c 128,-1,41
 475 44 475 44 473.5 45.5 c 128,-1,42
 472 47 472 47 471 49 c 128,-1,43
 470 51 470 51 470.5 55 c 128,-1,44
 471 59 471 59 473 65 c 0,45,46
 480 95 480 95 451 103 c 0,47,48
 426 110 426 110 412 86 c 0,49,50
 399 62 399 62 418 49 c 0,51,52
 423 46 423 46 429 45 c 0,53,54
 443 42 443 42 444 38 c 0,55,56
 444 36 444 36 441 35 c 0,57,58
 427 30 427 30 400.5 26 c 128,-1,59
 374 22 374 22 329 27.5 c 128,-1,60
 284 33 284 33 256 58 c 0,61,62
 239 73 239 73 224 93 c 0,63,64
 217 103 217 103 225 103 c 0,65,66
 229 103 229 103 235 99 c 0,67,68
 262 85 262 85 276 85 c 0,69,70
 296 86 296 86 308 97 c 0,71,72
 332 121 332 121 316 144 c 0,73,74
 303 164 303 164 285 153 c 0,75,76
 281 151 281 151 278 147 c 0,77,78
 272 140 272 140 264.5 142 c 128,-1,79
 257 144 257 144 260 154 c 0,80,81
 269 177 269 177 294 183 c 128,-1,82
 319 189 319 189 341.5 178 c 128,-1,83
 364 167 364 167 367 147 c 0,84,85
 368 141 368 141 367 136 c 128,-1,86
 366 131 366 131 364.5 128.5 c 128,-1,87
 363 126 363 126 359.5 121.5 c 128,-1,88
 356 117 356 117 355 116 c 0,89,90
 346 101 346 101 353 90 c 0,91,92
 356 86 356 86 359 92 c 0,93,94
 362 97 362 97 369 106 c 128,-1,95
 376 115 376 115 379.5 122.5 c 128,-1,96
 383 130 383 130 384 140 c 0,97,98
 384 163 384 163 369 179 c 0,99,100
 330 221 330 221 274 196 c 0,101,102
 253 186 253 186 238.5 166.5 c 128,-1,103
 224 147 224 147 221 128 c 0,104,105
 218 115 218 115 214 116 c 0,106,107
 211 116 211 116 209 123 c 0,108,109
 183 214 183 214 234 277 c 0,110,111
 250 297 250 297 270.5 309.5 c 128,-1,112
 291 322 291 322 321.5 326 c 128,-1,113
 352 330 352 330 384 313 c 0,114,115
 418 296 418 296 413 258 c 0,116,117
 410 237 410 237 398 237 c 256,118,119
 386 237 386 237 384 250 c 0,120,121
 383 253 383 253 384 256 c 0,122,123
 387 269 387 269 387 269 c 2,124,125
 388 283 388 283 377 277 c 0,126,127
 362 269 362 269 364 250 c 0,128,129
 365 237 365 237 378 226 c 0,130,131
 393 212 393 212 421 220 c 0,132,133
 438 224 438 224 434 234 c 0,134,135
 429 242 429 242 429.5 246 c 128,-1,136
 430 250 430 250 439 250 c 256,137,138
 448 250 448 250 451 252.5 c 128,-1,139
 454 255 454 255 455 264 c 0,140,141
 456 276 456 276 453 283 c 0,142,143
 451 288 451 288 445 290.5 c 128,-1,144
 439 293 439 293 434 293 c 128,-1,145
 429 293 429 293 425.5 294.5 c 128,-1,146
 422 296 422 296 424 300 c 0,147,148
 425 302 425 302 437.5 305.5 c 128,-1,149
 450 309 450 309 452 320 c 0,150,151
 454 336 454 336 439.5 351.5 c 128,-1,152
 425 367 425 367 414 365 c 0,153,154
 410 364 410 364 406 362 c 128,-1,155
 402 360 402 360 400 358.5 c 128,-1,156
 398 357 398 357 396 353.5 c 128,-1,157
 394 350 394 350 393.5 349 c 128,-1,158
 393 348 393 348 391 343 c 128,-1,159
 389 338 389 338 389 337 c 0,160,161
 386 333 386 333 381 333 c 128,-1,162
 376 333 376 333 371.5 336.5 c 128,-1,163
 367 340 367 340 369 345 c 0,164,165
 370 347 370 347 375.5 355.5 c 128,-1,166
 381 364 381 364 382 368.5 c 128,-1,167
 383 373 383 373 381 382 c 0,168,169
 373 399 373 399 352.5 408.5 c 128,-1,170
 332 418 332 418 318 408 c 0,171,172
 304 397 304 397 301.5 387 c 128,-1,173
 299 377 299 377 303.5 366.5 c 128,-1,174
 308 356 308 356 308 353 c 0,175,176
 308 347 308 347 300 344.5 c 128,-1,177
 292 342 292 342 284.5 346 c 128,-1,178
 277 350 277 350 278 358 c 0,179,180
 281 388 281 388 256 394 c 0,181,182
 241 399 241 399 224.5 387.5 c 128,-1,183
 208 376 208 376 202 362 c 0,184,185
 186 324 186 324 223 311 c 0,186,187
 227 310 227 310 227.5 309 c 128,-1,188
 228 308 228 308 226.5 306 c 128,-1,189
 225 304 225 304 221.5 301 c 128,-1,190
 218 298 218 298 213.5 292.5 c 128,-1,191
 209 287 209 287 204.5 280.5 c 128,-1,192
 200 274 200 274 195.5 263.5 c 128,-1,193
 191 253 191 253 188 240 c 0,194,195
 172 172 172 172 192 117 c 0,196,197
 197 102 197 102 195 102 c 0,198,199
 194 101 194 101 189 106 c 0,200,201
 163 134 163 134 137 112 c 0,202,203
 117 94 117 94 123 72 c 0,204,205
 127 62 127 62 138 57 c 0,206,207
 144 54 144 54 157 60 c 128,-1,208
 170 66 170 66 174 67 c 0,209,210
 187 67 187 67 172 49 c 0,211,212
 161 35 161 35 147 29 c 0,213,214
 123 19 123 19 101 25 c 128,-1,215
 79 31 79 31 75 50 c 0,216,217
 72 65 72 65 83 68 c 0,218,219
 88 70 88 70 90 66 c 0,220,221
 91 66 91 66 92.5 61.5 c 128,-1,222
 94 57 94 57 96 55 c 0,223,224
 105 46 105 46 104 58 c 0,225,226
 103 78 103 78 90 85 c 0,227,228
 85 88 85 88 80 86 c 0,229,230
 68 82 68 82 60 72 c 128,-1,231
 52 62 52 62 53 48.5 c 128,-1,232
 54 35 54 35 70 25 c 0,233,234
 78 20 78 20 78 18 c 128,-1,235
 78 16 78 16 73 14 c 0,236,237
 71 13 71 13 70 12 c 0,238,239
 59 7 59 7 54 16 c 128,-1,240
 49 25 49 25 27 27 c 0,241,242
 13 28 13 28 6.5 20 c 128,-1,243
 0 12 0 12 0 0 c 0,244,0
 0 -5 0 -5 16.5 -5 c 128,-1,1
66 133 m 0,245,246
 86 133 86 133 101 150 c 0,247,248
 114 164 114 164 105 187 c 0,249,250
 99 200 99 200 95 191 c 0,251,252
 95 190 95 190 94 188 c 0,253,254
 92 182 92 182 93.5 177 c 128,-1,255
 95 172 95 172 93 167 c 128,-1,256
 91 162 91 162 85 159 c 0,257,258
 73 153 73 153 63 160 c 128,-1,259
 53 167 53 167 54 180 c 0,260,261
 54 188 54 188 55.5 195 c 128,-1,262
 57 202 57 202 61 210 c 128,-1,263
 65 218 65 218 67 222 c 128,-1,264
 69 226 69 226 74.5 235 c 128,-1,265
 80 244 80 244 82 247 c 0,266,267
 131 331 131 331 77 372 c 0,268,269
 72 376 72 376 69 372 c 128,-1,270
 66 368 66 368 63 358 c 0,271,272
 54 332 54 332 34 339 c 128,-1,273
 14 346 14 346 13 371 c 0,274,275
 13 385 13 385 22 399 c 0,276,277
 42 428 42 428 25 432 c 0,278,279
 12 434 12 434 3 420 c 0,280,281
 0 415 0 415 0 409 c 2,282,-1
 0 323 l 1,283,284
 18 323 18 323 31 315 c 128,-1,285
 44 307 44 307 44 296.5 c 128,-1,286
 44 286 44 286 31 278 c 128,-1,287
 18 270 18 270 0 270 c 1,288,-1
 0 217 l 2,289,290
 0 200 0 200 11 177.5 c 128,-1,291
 22 155 22 155 32 146 c 0,292,293
 47 134 47 134 62 133 c 0,294,295
 64 133 64 133 66 133 c 0,245,246
512 445 m 2,296,297
 516 445 516 445 516 453.5 c 128,-1,298
 516 462 516 462 512 462 c 2,299,-1
 0 462 l 2,300,301
 -4 462 -4 462 -4 453.5 c 128,-1,302
 -4 445 -4 445 0 445 c 2,303,-1
 512 445 l 2,296,297
512 479 m 2,304,305
 516 479 516 479 516 495.5 c 128,-1,306
 516 512 516 512 512 512 c 2,307,-1
 0 512 l 2,308,309
 -4 512 -4 512 -4 495.5 c 128,-1,310
 -4 479 -4 479 0 479 c 2,311,-1
 512 479 l 2,304,305
EndSplineSet
EndChar

StartChar: NE Vertical and Left
Encoding: 9512 9512 18
Width: 512
VWidth: 1024
GlyphClass: 2
Flags: W
LayerCount: 2
Fore
SplineSet
-5 495.5 m 128,-1,1
 -5 479 -5 479 0 479 c 0,2,3
 8 479 8 479 6.5 470.5 c 128,-1,4
 5 462 5 462 0 462 c 0,5,6
 -7 462 -7 462 0 445 c 0,7,8
 6 430 6 430 8.5 422 c 128,-1,9
 11 414 11 414 11 411.5 c 128,-1,10
 11 409 11 409 10 402.5 c 128,-1,11
 9 396 9 396 8 389 c 0,12,13
 9 352 9 352 30 330 c 0,14,15
 54 304 54 304 80 309 c 0,16,17
 93 311 93 311 84 304 c 0,18,19
 83 303 83 303 78 300 c 0,20,21
 65 290 65 290 53 276 c 0,22,23
 30 250 30 250 19 221 c 128,-1,24
 8 192 8 192 7 145 c 0,25,26
 6 113 6 113 9 68 c 0,27,28
 12 34 12 34 19 0 c 0,29,30
 20 -6 20 -6 45 -4 c 0,31,32
 54 -2 54 -2 55 0 c 0,33,34
 54 1 54 1 54 2 c 0,35,36
 53 5 53 5 51 9.5 c 128,-1,37
 49 14 49 14 48 17 c 128,-1,38
 47 20 47 20 45.5 24 c 128,-1,39
 44 28 44 28 44 30 c 128,-1,40
 44 32 44 32 44 34.5 c 128,-1,41
 44 37 44 37 45.5 38.5 c 128,-1,42
 47 40 47 40 49 41 c 128,-1,43
 51 42 51 42 55 41.5 c 128,-1,44
 59 41 59 41 65 39 c 0,45,46
 95 32 95 32 103 61 c 0,47,48
 110 86 110 86 86 100 c 0,49,50
 62 113 62 113 49 94 c 0,51,52
 46 89 46 89 45 83 c 0,53,54
 42 69 42 69 38 68 c 0,55,56
 36 68 36 68 35 71 c 0,57,58
 30 85 30 85 26 111.5 c 128,-1,59
 22 138 22 138 27.5 183 c 128,-1,60
 33 228 33 228 58 256 c 0,61,62
 73 273 73 273 93 288 c 0,63,64
 103 295 103 295 103 287 c 0,65,66
 103 283 103 283 99 277 c 0,67,68
 85 250 85 250 85 236 c 0,69,70
 86 216 86 216 97 204 c 0,71,72
 121 180 121 180 144 196 c 0,73,74
 164 209 164 209 153 227 c 0,75,76
 151 231 151 231 147 234 c 0,77,78
 140 240 140 240 142 247.5 c 128,-1,79
 144 255 144 255 154 252 c 0,80,81
 177 243 177 243 183 218 c 128,-1,82
 189 193 189 193 178 170.5 c 128,-1,83
 167 148 167 148 147 145 c 0,84,85
 141 144 141 144 136 145 c 128,-1,86
 131 146 131 146 128.5 147.5 c 128,-1,87
 126 149 126 149 121.5 152.5 c 128,-1,88
 117 156 117 156 116 157 c 0,89,90
 101 166 101 166 90 159 c 0,91,92
 86 156 86 156 92 153 c 0,93,94
 97 150 97 150 106 143 c 128,-1,95
 115 136 115 136 122.5 132.5 c 128,-1,96
 130 129 130 129 140 128 c 0,97,98
 163 128 163 128 179 143 c 0,99,100
 221 182 221 182 196 238 c 0,101,102
 186 259 186 259 166.5 273.5 c 128,-1,103
 147 288 147 288 128 291 c 0,104,105
 115 294 115 294 116 298 c 0,106,107
 116 301 116 301 123 303 c 0,108,109
 214 329 214 329 277 278 c 0,110,111
 297 262 297 262 309.5 241.5 c 128,-1,112
 322 221 322 221 326 190.5 c 128,-1,113
 330 160 330 160 313 128 c 0,114,115
 296 94 296 94 258 99 c 0,116,117
 237 102 237 102 237 114 c 256,118,119
 237 126 237 126 250 128 c 0,120,121
 253 129 253 129 256 128 c 0,122,123
 269 125 269 125 269 125 c 2,124,125
 283 124 283 124 277 135 c 0,126,127
 269 150 269 150 250 148 c 0,128,129
 237 147 237 147 226 134 c 0,130,131
 212 119 212 119 220 91 c 0,132,133
 224 74 224 74 234 78 c 0,134,135
 242 83 242 83 246 82.5 c 128,-1,136
 250 82 250 82 250 73 c 256,137,138
 250 64 250 64 252.5 61 c 128,-1,139
 255 58 255 58 264 57 c 0,140,141
 276 56 276 56 283 59 c 0,142,143
 288 61 288 61 290.5 67 c 128,-1,144
 293 73 293 73 293 78 c 128,-1,145
 293 83 293 83 294.5 86.5 c 128,-1,146
 296 90 296 90 300 88 c 0,147,148
 302 87 302 87 305.5 74.5 c 128,-1,149
 309 62 309 62 320 60 c 0,150,151
 336 58 336 58 351.5 72.5 c 128,-1,152
 367 87 367 87 365 98 c 0,153,154
 364 102 364 102 362 106 c 128,-1,155
 360 110 360 110 358.5 112 c 128,-1,156
 357 114 357 114 353.5 116 c 128,-1,157
 350 118 350 118 349 118.5 c 128,-1,158
 348 119 348 119 343 121 c 128,-1,159
 338 123 338 123 337 123 c 0,160,161
 333 126 333 126 333 131 c 128,-1,162
 333 136 333 136 336.5 140.5 c 128,-1,163
 340 145 340 145 345 143 c 0,164,165
 347 142 347 142 355.5 136.5 c 128,-1,166
 364 131 364 131 368.5 130 c 128,-1,167
 373 129 373 129 382 131 c 0,168,169
 399 139 399 139 408.5 159.5 c 128,-1,170
 418 180 418 180 408 194 c 0,171,172
 397 208 397 208 387 210.5 c 128,-1,173
 377 213 377 213 366.5 208.5 c 128,-1,174
 356 204 356 204 353 204 c 0,175,176
 347 204 347 204 344.5 212 c 128,-1,177
 342 220 342 220 346 227.5 c 128,-1,178
 350 235 350 235 358 234 c 0,179,180
 388 231 388 231 394 256 c 0,181,182
 399 271 399 271 387.5 287.5 c 128,-1,183
 376 304 376 304 362 310 c 0,184,185
 324 326 324 326 311 289 c 0,186,187
 310 285 310 285 309 284.5 c 128,-1,188
 308 284 308 284 306 285.5 c 128,-1,189
 304 287 304 287 301 290.5 c 128,-1,190
 298 294 298 294 292.5 298.5 c 128,-1,191
 287 303 287 303 280.5 307.5 c 128,-1,192
 274 312 274 312 263.5 316.5 c 128,-1,193
 253 321 253 321 240 324 c 0,194,195
 172 340 172 340 117 320 c 0,196,197
 102 315 102 315 102 317 c 0,198,199
 101 318 101 318 106 323 c 0,200,201
 134 349 134 349 112 375 c 0,202,203
 94 395 94 395 72 389 c 0,204,205
 62 385 62 385 57 374 c 0,206,207
 54 368 54 368 60 355 c 128,-1,208
 66 342 66 342 67 338 c 0,209,210
 67 325 67 325 49 340 c 0,211,212
 35 351 35 351 29 365 c 0,213,214
 19 389 19 389 25 411 c 128,-1,215
 31 433 31 433 50 437 c 0,216,217
 65 440 65 440 68 429 c 0,218,219
 70 424 70 424 66 422 c 0,220,221
 66 421 66 421 61.5 419.5 c 128,-1,222
 57 418 57 418 55 416 c 0,223,224
 46 407 46 407 58 408 c 0,225,226
 78 409 78 409 85 422 c 0,227,228
 88 427 88 427 86 432 c 0,229,230
 82 444 82 444 72 452 c 128,-1,231
 62 460 62 460 48.5 459 c 128,-1,232
 35 458 35 458 25 442 c 0,233,234
 20 434 20 434 18 434 c 128,-1,235
 16 434 16 434 14 439 c 0,236,237
 13 441 13 441 12 442 c 0,238,239
 7 453 7 453 16 458 c 128,-1,240
 25 463 25 463 27 485 c 0,241,242
 28 499 28 499 20 505.5 c 128,-1,243
 12 512 12 512 0 512 c 0,244,0
 -5 512 -5 512 -5 495.5 c 128,-1,1
133 446 m 0,245,246
 133 426 133 426 150 411 c 0,247,248
 164 398 164 398 187 407 c 0,249,250
 200 413 200 413 191 417 c 0,251,252
 190 417 190 417 188 418 c 0,253,254
 182 420 182 420 177 418.5 c 128,-1,255
 172 417 172 417 167 419 c 128,-1,256
 162 421 162 421 159 427 c 0,257,258
 153 439 153 439 160 449 c 128,-1,259
 167 459 167 459 180 458 c 0,260,261
 188 458 188 458 195 456.5 c 128,-1,262
 202 455 202 455 210 451 c 128,-1,263
 218 447 218 447 222 445 c 128,-1,264
 226 443 226 443 235 437.5 c 128,-1,265
 244 432 244 432 247 430 c 0,266,267
 331 381 331 381 372 435 c 0,268,269
 376 440 376 440 372 443 c 128,-1,270
 368 446 368 446 358 449 c 0,271,272
 332 458 332 458 339 478 c 128,-1,273
 346 498 346 498 371 499 c 0,274,275
 385 499 385 499 399 490 c 0,276,277
 428 470 428 470 432 487 c 0,278,279
 434 500 434 500 420 509 c 0,280,281
 415 512 415 512 409 512 c 2,282,-1
 323 512 l 1,283,284
 323 494 323 494 315 481 c 128,-1,285
 307 468 307 468 296.5 468 c 128,-1,286
 286 468 286 468 278 481 c 128,-1,287
 270 494 270 494 270 512 c 1,288,-1
 217 512 l 2,289,290
 200 512 200 512 177.5 501 c 128,-1,291
 155 490 155 490 146 480 c 0,292,293
 134 465 134 465 133 450 c 0,294,295
 133 448 133 448 133 446 c 0,245,246
445 0 m 2,296,297
 445 -4 445 -4 453.5 -4 c 128,-1,298
 462 -4 462 -4 462 0 c 2,299,-1
 462 512 l 2,300,301
 462 516 462 516 453.5 516 c 128,-1,302
 445 516 445 516 445 512 c 2,303,-1
 445 0 l 2,296,297
479 0 m 2,304,305
 479 -4 479 -4 495.5 -4 c 128,-1,306
 512 -4 512 -4 512 0 c 2,307,-1
 512 512 l 2,308,309
 512 516 512 516 495.5 516 c 128,-1,310
 479 516 479 516 479 512 c 2,311,-1
 479 0 l 2,304,305
EndSplineSet
EndChar

StartChar: SW Up and Horizontal
Encoding: 9527 9527 19
Width: 512
VWidth: 1024
GlyphClass: 2
Flags: W
LayerCount: 2
Fore
SplineSet
16.5 517 m 128,-1,1
 33 517 33 517 33 512 c 0,2,3
 33 504 33 504 41.5 505.5 c 128,-1,4
 50 507 50 507 50 512 c 0,5,6
 50 519 50 519 67 512 c 0,7,8
 82 506 82 506 90 503.5 c 128,-1,9
 98 501 98 501 100.5 501 c 128,-1,10
 103 501 103 501 109.5 502 c 128,-1,11
 116 503 116 503 123 504 c 0,12,13
 160 503 160 503 182 482 c 0,14,15
 208 458 208 458 203 432 c 0,16,17
 201 419 201 419 208 428 c 0,18,19
 209 429 209 429 212 434 c 0,20,21
 222 447 222 447 236 459 c 0,22,23
 262 482 262 482 291 493 c 128,-1,24
 320 504 320 504 367 505 c 0,25,26
 399 506 399 506 444 503 c 0,27,28
 478 500 478 500 512 493 c 0,29,30
 518 492 518 492 516 467 c 0,31,32
 514 458 514 458 512 457 c 0,33,34
 511 458 511 458 510 458 c 0,35,36
 507 459 507 459 502.5 461 c 128,-1,37
 498 463 498 463 495 464 c 128,-1,38
 492 465 492 465 488 466.5 c 128,-1,39
 484 468 484 468 482 468 c 128,-1,40
 480 468 480 468 477.5 468 c 128,-1,41
 475 468 475 468 473.5 466.5 c 128,-1,42
 472 465 472 465 471 463 c 128,-1,43
 470 461 470 461 470.5 457 c 128,-1,44
 471 453 471 453 473 447 c 0,45,46
 480 417 480 417 451 409 c 0,47,48
 426 402 426 402 412 426 c 0,49,50
 399 450 399 450 418 463 c 0,51,52
 423 466 423 466 429 467 c 0,53,54
 443 470 443 470 444 474 c 0,55,56
 444 476 444 476 441 477 c 0,57,58
 427 482 427 482 400.5 486 c 128,-1,59
 374 490 374 490 329 484.5 c 128,-1,60
 284 479 284 479 256 454 c 0,61,62
 239 439 239 439 224 419 c 0,63,64
 217 409 217 409 225 409 c 0,65,66
 229 409 229 409 235 413 c 0,67,68
 262 427 262 427 276 427 c 0,69,70
 296 426 296 426 308 415 c 0,71,72
 332 391 332 391 316 368 c 0,73,74
 303 348 303 348 285 359 c 0,75,76
 281 361 281 361 278 365 c 0,77,78
 272 372 272 372 264.5 370 c 128,-1,79
 257 368 257 368 260 358 c 0,80,81
 269 335 269 335 294 329 c 128,-1,82
 319 323 319 323 341.5 334 c 128,-1,83
 364 345 364 345 367 365 c 0,84,85
 368 371 368 371 367 376 c 128,-1,86
 366 381 366 381 364.5 383.5 c 128,-1,87
 363 386 363 386 359.5 390.5 c 128,-1,88
 356 395 356 395 355 396 c 0,89,90
 346 411 346 411 353 422 c 0,91,92
 356 426 356 426 359 420 c 0,93,94
 362 415 362 415 369 406 c 128,-1,95
 376 397 376 397 379.5 389.5 c 128,-1,96
 383 382 383 382 384 372 c 0,97,98
 384 349 384 349 369 333 c 0,99,100
 330 291 330 291 274 316 c 0,101,102
 253 326 253 326 238.5 345.5 c 128,-1,103
 224 365 224 365 221 384 c 0,104,105
 218 397 218 397 214 396 c 0,106,107
 211 396 211 396 209 389 c 0,108,109
 183 298 183 298 234 235 c 0,110,111
 250 215 250 215 270.5 202.5 c 128,-1,112
 291 190 291 190 321.5 186 c 128,-1,113
 352 182 352 182 384 199 c 0,114,115
 418 216 418 216 413 254 c 0,116,117
 410 275 410 275 398 275 c 256,118,119
 386 275 386 275 384 262 c 0,120,121
 383 259 383 259 384 256 c 0,122,123
 387 243 387 243 387 243 c 2,124,125
 388 229 388 229 377 235 c 0,126,127
 362 243 362 243 364 262 c 0,128,129
 365 275 365 275 378 286 c 0,130,131
 393 300 393 300 421 292 c 0,132,133
 438 288 438 288 434 278 c 0,134,135
 429 270 429 270 429.5 266 c 128,-1,136
 430 262 430 262 439 262 c 256,137,138
 448 262 448 262 451 259.5 c 128,-1,139
 454 257 454 257 455 248 c 0,140,141
 456 236 456 236 453 229 c 0,142,143
 451 224 451 224 445 221.5 c 128,-1,144
 439 219 439 219 434 219 c 128,-1,145
 429 219 429 219 425.5 217.5 c 128,-1,146
 422 216 422 216 424 212 c 0,147,148
 425 210 425 210 437.5 206.5 c 128,-1,149
 450 203 450 203 452 192 c 0,150,151
 454 176 454 176 439.5 160.5 c 128,-1,152
 425 145 425 145 414 147 c 0,153,154
 410 148 410 148 406 150 c 128,-1,155
 402 152 402 152 400 153.5 c 128,-1,156
 398 155 398 155 396 158.5 c 128,-1,157
 394 162 394 162 393.5 163 c 128,-1,158
 393 164 393 164 391 169 c 128,-1,159
 389 174 389 174 389 175 c 0,160,161
 386 179 386 179 381 179 c 128,-1,162
 376 179 376 179 371.5 175.5 c 128,-1,163
 367 172 367 172 369 167 c 0,164,165
 370 165 370 165 375.5 156.5 c 128,-1,166
 381 148 381 148 382 143.5 c 128,-1,167
 383 139 383 139 381 130 c 0,168,169
 373 113 373 113 352.5 103.5 c 128,-1,170
 332 94 332 94 318 104 c 0,171,172
 304 115 304 115 301.5 125 c 128,-1,173
 299 135 299 135 303.5 145.5 c 128,-1,174
 308 156 308 156 308 159 c 0,175,176
 308 165 308 165 300 167.5 c 128,-1,177
 292 170 292 170 284.5 166 c 128,-1,178
 277 162 277 162 278 154 c 0,179,180
 281 124 281 124 256 118 c 0,181,182
 241 113 241 113 224.5 124.5 c 128,-1,183
 208 136 208 136 202 150 c 0,184,185
 186 188 186 188 223 201 c 0,186,187
 227 202 227 202 227.5 203 c 128,-1,188
 228 204 228 204 226.5 206 c 128,-1,189
 225 208 225 208 221.5 211 c 128,-1,190
 218 214 218 214 213.5 219.5 c 128,-1,191
 209 225 209 225 204.5 231.5 c 128,-1,192
 200 238 200 238 195.5 248.5 c 128,-1,193
 191 259 191 259 188 272 c 0,194,195
 172 340 172 340 192 395 c 0,196,197
 197 410 197 410 195 410 c 0,198,199
 194 411 194 411 189 406 c 0,200,201
 163 378 163 378 137 400 c 0,202,203
 117 418 117 418 123 440 c 0,204,205
 127 450 127 450 138 455 c 0,206,207
 144 458 144 458 157 452 c 128,-1,208
 170 446 170 446 174 445 c 0,209,210
 187 445 187 445 172 463 c 0,211,212
 161 477 161 477 147 483 c 0,213,214
 123 493 123 493 101 487 c 128,-1,215
 79 481 79 481 75 462 c 0,216,217
 72 447 72 447 83 444 c 0,218,219
 88 442 88 442 90 446 c 0,220,221
 91 446 91 446 92.5 450.5 c 128,-1,222
 94 455 94 455 96 457 c 0,223,224
 105 466 105 466 104 454 c 0,225,226
 103 434 103 434 90 427 c 0,227,228
 85 424 85 424 80 426 c 0,229,230
 68 430 68 430 60 440 c 128,-1,231
 52 450 52 450 53 463.5 c 128,-1,232
 54 477 54 477 70 487 c 0,233,234
 78 492 78 492 78 494 c 128,-1,235
 78 496 78 496 73 498 c 0,236,237
 71 499 71 499 70 500 c 0,238,239
 59 505 59 505 54 496 c 128,-1,240
 49 487 49 487 27 485 c 0,241,242
 13 484 13 484 6.5 492 c 128,-1,243
 0 500 0 500 0 512 c 0,244,0
 0 517 0 517 16.5 517 c 128,-1,1
66 379 m 0,245,246
 86 379 86 379 101 362 c 0,247,248
 114 348 114 348 105 325 c 0,249,250
 99 312 99 312 95 321 c 0,251,252
 95 322 95 322 94 324 c 0,253,254
 92 330 92 330 93.5 335 c 128,-1,255
 95 340 95 340 93 345 c 128,-1,256
 91 350 91 350 85 353 c 0,257,258
 73 359 73 359 63 352 c 128,-1,259
 53 345 53 345 54 332 c 0,260,261
 54 324 54 324 55.5 317 c 128,-1,262
 57 310 57 310 61 302 c 128,-1,263
 65 294 65 294 67 290 c 128,-1,264
 69 286 69 286 74.5 277 c 128,-1,265
 80 268 80 268 82 265 c 0,266,267
 131 181 131 181 77 140 c 0,268,269
 72 136 72 136 69 140 c 128,-1,270
 66 144 66 144 63 154 c 0,271,272
 54 180 54 180 34 173 c 128,-1,273
 14 166 14 166 13 141 c 0,274,275
 13 127 13 127 22 113 c 0,276,277
 42 84 42 84 25 80 c 0,278,279
 12 78 12 78 3 92 c 0,280,281
 0 97 0 97 0 103 c 2,282,-1
 0 189 l 1,283,284
 18 189 18 189 31 197 c 128,-1,285
 44 205 44 205 44 215.5 c 128,-1,286
 44 226 44 226 31 234 c 128,-1,287
 18 242 18 242 0 242 c 1,288,-1
 0 295 l 2,289,290
 0 312 0 312 11 334.5 c 128,-1,291
 22 357 22 357 32 366 c 0,292,293
 47 378 47 378 62 379 c 0,294,295
 64 379 64 379 66 379 c 0,245,246
512 67 m 2,296,297
 516 67 516 67 516 58.5 c 128,-1,298
 516 50 516 50 512 50 c 2,299,-1
 0 50 l 2,300,301
 -4 50 -4 50 -4 58.5 c 128,-1,302
 -4 67 -4 67 0 67 c 2,303,-1
 512 67 l 2,296,297
512 33 m 2,304,305
 516 33 516 33 516 16.5 c 128,-1,306
 516 0 516 0 512 0 c 2,307,-1
 0 0 l 2,308,309
 -4 0 -4 0 -4 16.5 c 128,-1,310
 -4 33 -4 33 0 33 c 2,311,-1
 512 33 l 2,304,305
EndSplineSet
EndChar

StartChar: NW Vertical and Right
Encoding: 9500 9500 20
Width: 512
VWidth: 1024
GlyphClass: 2
Flags: W
LayerCount: 2
Fore
SplineSet
517 495.5 m 128,-1,1
 517 479 517 479 512 479 c 0,2,3
 504 479 504 479 505.5 470.5 c 128,-1,4
 507 462 507 462 512 462 c 0,5,6
 519 462 519 462 512 445 c 0,7,8
 506 430 506 430 503.5 422 c 128,-1,9
 501 414 501 414 501 411.5 c 128,-1,10
 501 409 501 409 502 402.5 c 128,-1,11
 503 396 503 396 504 389 c 0,12,13
 503 352 503 352 482 330 c 0,14,15
 458 304 458 304 432 309 c 0,16,17
 419 311 419 311 428 304 c 0,18,19
 429 303 429 303 434 300 c 0,20,21
 447 290 447 290 459 276 c 0,22,23
 482 250 482 250 493 221 c 128,-1,24
 504 192 504 192 505 145 c 0,25,26
 506 113 506 113 503 68 c 0,27,28
 500 34 500 34 493 0 c 0,29,30
 492 -6 492 -6 467 -4 c 0,31,32
 458 -2 458 -2 457 0 c 0,33,34
 458 1 458 1 458 2 c 0,35,36
 459 5 459 5 461 9.5 c 128,-1,37
 463 14 463 14 464 17 c 128,-1,38
 465 20 465 20 466.5 24 c 128,-1,39
 468 28 468 28 468 30 c 128,-1,40
 468 32 468 32 468 34.5 c 128,-1,41
 468 37 468 37 466.5 38.5 c 128,-1,42
 465 40 465 40 463 41 c 128,-1,43
 461 42 461 42 457 41.5 c 128,-1,44
 453 41 453 41 447 39 c 0,45,46
 417 32 417 32 409 61 c 0,47,48
 402 86 402 86 426 100 c 0,49,50
 450 113 450 113 463 94 c 0,51,52
 466 89 466 89 467 83 c 0,53,54
 470 69 470 69 474 68 c 0,55,56
 476 68 476 68 477 71 c 0,57,58
 482 85 482 85 486 111.5 c 128,-1,59
 490 138 490 138 484.5 183 c 128,-1,60
 479 228 479 228 454 256 c 0,61,62
 439 273 439 273 419 288 c 0,63,64
 409 295 409 295 409 287 c 0,65,66
 409 283 409 283 413 277 c 0,67,68
 427 250 427 250 427 236 c 0,69,70
 426 216 426 216 415 204 c 0,71,72
 391 180 391 180 368 196 c 0,73,74
 348 209 348 209 359 227 c 0,75,76
 361 231 361 231 365 234 c 0,77,78
 372 240 372 240 370 247.5 c 128,-1,79
 368 255 368 255 358 252 c 0,80,81
 335 243 335 243 329 218 c 128,-1,82
 323 193 323 193 334 170.5 c 128,-1,83
 345 148 345 148 365 145 c 0,84,85
 371 144 371 144 376 145 c 128,-1,86
 381 146 381 146 383.5 147.5 c 128,-1,87
 386 149 386 149 390.5 152.5 c 128,-1,88
 395 156 395 156 396 157 c 0,89,90
 411 166 411 166 422 159 c 0,91,92
 426 156 426 156 420 153 c 0,93,94
 415 150 415 150 406 143 c 128,-1,95
 397 136 397 136 389.5 132.5 c 128,-1,96
 382 129 382 129 372 128 c 0,97,98
 349 128 349 128 333 143 c 0,99,100
 291 182 291 182 316 238 c 0,101,102
 326 259 326 259 345.5 273.5 c 128,-1,103
 365 288 365 288 384 291 c 0,104,105
 397 294 397 294 396 298 c 0,106,107
 396 301 396 301 389 303 c 0,108,109
 298 329 298 329 235 278 c 0,110,111
 215 262 215 262 202.5 241.5 c 128,-1,112
 190 221 190 221 186 190.5 c 128,-1,113
 182 160 182 160 199 128 c 0,114,115
 216 94 216 94 254 99 c 0,116,117
 275 102 275 102 275 114 c 256,118,119
 275 126 275 126 262 128 c 0,120,121
 259 129 259 129 256 128 c 0,122,123
 243 125 243 125 243 125 c 2,124,125
 229 124 229 124 235 135 c 0,126,127
 243 150 243 150 262 148 c 0,128,129
 275 147 275 147 286 134 c 0,130,131
 300 119 300 119 292 91 c 0,132,133
 288 74 288 74 278 78 c 0,134,135
 270 83 270 83 266 82.5 c 128,-1,136
 262 82 262 82 262 73 c 256,137,138
 262 64 262 64 259.5 61 c 128,-1,139
 257 58 257 58 248 57 c 0,140,141
 236 56 236 56 229 59 c 0,142,143
 224 61 224 61 221.5 67 c 128,-1,144
 219 73 219 73 219 78 c 128,-1,145
 219 83 219 83 217.5 86.5 c 128,-1,146
 216 90 216 90 212 88 c 0,147,148
 210 87 210 87 206.5 74.5 c 128,-1,149
 203 62 203 62 192 60 c 0,150,151
 176 58 176 58 160.5 72.5 c 128,-1,152
 145 87 145 87 147 98 c 0,153,154
 148 102 148 102 150 106 c 128,-1,155
 152 110 152 110 153.5 112 c 128,-1,156
 155 114 155 114 158.5 116 c 128,-1,157
 162 118 162 118 163 118.5 c 128,-1,158
 164 119 164 119 169 121 c 128,-1,159
 174 123 174 123 175 123 c 0,160,161
 179 126 179 126 179 131 c 128,-1,162
 179 136 179 136 175.5 140.5 c 128,-1,163
 172 145 172 145 167 143 c 0,164,165
 165 142 165 142 156.5 136.5 c 128,-1,166
 148 131 148 131 143.5 130 c 128,-1,167
 139 129 139 129 130 131 c 0,168,169
 113 139 113 139 103.5 159.5 c 128,-1,170
 94 180 94 180 104 194 c 0,171,172
 115 208 115 208 125 210.5 c 128,-1,173
 135 213 135 213 145.5 208.5 c 128,-1,174
 156 204 156 204 159 204 c 0,175,176
 165 204 165 204 167.5 212 c 128,-1,177
 170 220 170 220 166 227.5 c 128,-1,178
 162 235 162 235 154 234 c 0,179,180
 124 231 124 231 118 256 c 0,181,182
 113 271 113 271 124.5 287.5 c 128,-1,183
 136 304 136 304 150 310 c 0,184,185
 188 326 188 326 201 289 c 0,186,187
 202 285 202 285 203 284.5 c 128,-1,188
 204 284 204 284 206 285.5 c 128,-1,189
 208 287 208 287 211 290.5 c 128,-1,190
 214 294 214 294 219.5 298.5 c 128,-1,191
 225 303 225 303 231.5 307.5 c 128,-1,192
 238 312 238 312 248.5 316.5 c 128,-1,193
 259 321 259 321 272 324 c 0,194,195
 340 340 340 340 395 320 c 0,196,197
 410 315 410 315 410 317 c 0,198,199
 411 318 411 318 406 323 c 0,200,201
 378 349 378 349 400 375 c 0,202,203
 418 395 418 395 440 389 c 0,204,205
 450 385 450 385 455 374 c 0,206,207
 458 368 458 368 452 355 c 128,-1,208
 446 342 446 342 445 338 c 0,209,210
 445 325 445 325 463 340 c 0,211,212
 477 351 477 351 483 365 c 0,213,214
 493 389 493 389 487 411 c 128,-1,215
 481 433 481 433 462 437 c 0,216,217
 447 440 447 440 444 429 c 0,218,219
 442 424 442 424 446 422 c 0,220,221
 446 421 446 421 450.5 419.5 c 128,-1,222
 455 418 455 418 457 416 c 0,223,224
 466 407 466 407 454 408 c 0,225,226
 434 409 434 409 427 422 c 0,227,228
 424 427 424 427 426 432 c 0,229,230
 430 444 430 444 440 452 c 128,-1,231
 450 460 450 460 463.5 459 c 128,-1,232
 477 458 477 458 487 442 c 0,233,234
 492 434 492 434 494 434 c 128,-1,235
 496 434 496 434 498 439 c 0,236,237
 499 441 499 441 500 442 c 0,238,239
 505 453 505 453 496 458 c 128,-1,240
 487 463 487 463 485 485 c 0,241,242
 484 499 484 499 492 505.5 c 128,-1,243
 500 512 500 512 512 512 c 0,244,0
 517 512 517 512 517 495.5 c 128,-1,1
379 446 m 0,245,246
 379 426 379 426 362 411 c 0,247,248
 348 398 348 398 325 407 c 0,249,250
 312 413 312 413 321 417 c 0,251,252
 322 417 322 417 324 418 c 0,253,254
 330 420 330 420 335 418.5 c 128,-1,255
 340 417 340 417 345 419 c 128,-1,256
 350 421 350 421 353 427 c 0,257,258
 359 439 359 439 352 449 c 128,-1,259
 345 459 345 459 332 458 c 0,260,261
 324 458 324 458 317 456.5 c 128,-1,262
 310 455 310 455 302 451 c 128,-1,263
 294 447 294 447 290 445 c 128,-1,264
 286 443 286 443 277 437.5 c 128,-1,265
 268 432 268 432 265 430 c 0,266,267
 181 381 181 381 140 435 c 0,268,269
 136 440 136 440 140 443 c 128,-1,270
 144 446 144 446 154 449 c 0,271,272
 180 458 180 458 173 478 c 128,-1,273
 166 498 166 498 141 499 c 0,274,275
 127 499 127 499 113 490 c 0,276,277
 84 470 84 470 80 487 c 0,278,279
 78 500 78 500 92 509 c 0,280,281
 97 512 97 512 103 512 c 2,282,-1
 189 512 l 1,283,284
 189 494 189 494 197 481 c 128,-1,285
 205 468 205 468 215.5 468 c 128,-1,286
 226 468 226 468 234 481 c 128,-1,287
 242 494 242 494 242 512 c 1,288,-1
 295 512 l 2,289,290
 312 512 312 512 334.5 501 c 128,-1,291
 357 490 357 490 366 480 c 0,292,293
 378 465 378 465 379 450 c 0,294,295
 379 448 379 448 379 446 c 0,245,246
67 0 m 2,296,297
 67 -4 67 -4 58.5 -4 c 128,-1,298
 50 -4 50 -4 50 0 c 2,299,-1
 50 512 l 2,300,301
 50 516 50 516 58.5 516 c 128,-1,302
 67 516 67 516 67 512 c 2,303,-1
 67 0 l 2,296,297
33 0 m 2,304,305
 33 -4 33 -4 16.5 -4 c 128,-1,306
 0 -4 0 -4 0 0 c 2,307,-1
 0 512 l 2,308,309
 0 516 0 516 16.5 516 c 128,-1,310
 33 516 33 516 33 512 c 2,311,-1
 33 0 l 2,304,305
EndSplineSet
EndChar

StartChar: NE Down and Horizontal
Encoding: 9520 9520 21
Width: 512
VWidth: 1024
GlyphClass: 2
Flags: W
LayerCount: 2
Fore
SplineSet
495.5 -5 m 128,-1,1
 479 -5 479 -5 479 0 c 0,2,3
 479 8 479 8 470.5 6.5 c 128,-1,4
 462 5 462 5 462 0 c 0,5,6
 462 -7 462 -7 445 0 c 0,7,8
 430 6 430 6 422 8.5 c 128,-1,9
 414 11 414 11 411.5 11 c 128,-1,10
 409 11 409 11 402.5 10 c 128,-1,11
 396 9 396 9 389 8 c 0,12,13
 352 9 352 9 330 30 c 0,14,15
 304 54 304 54 309 80 c 0,16,17
 311 93 311 93 304 84 c 0,18,19
 303 83 303 83 300 78 c 0,20,21
 290 65 290 65 276 53 c 0,22,23
 250 30 250 30 221 19 c 128,-1,24
 192 8 192 8 145 7 c 0,25,26
 113 6 113 6 68 9 c 0,27,28
 34 12 34 12 0 19 c 0,29,30
 -6 20 -6 20 -4 45 c 0,31,32
 -2 54 -2 54 0 55 c 0,33,34
 1 54 1 54 2 54 c 0,35,36
 5 53 5 53 9.5 51 c 128,-1,37
 14 49 14 49 17 48 c 128,-1,38
 20 47 20 47 24 45.5 c 128,-1,39
 28 44 28 44 30 44 c 128,-1,40
 32 44 32 44 34.5 44 c 128,-1,41
 37 44 37 44 38.5 45.5 c 128,-1,42
 40 47 40 47 41 49 c 128,-1,43
 42 51 42 51 41.5 55 c 128,-1,44
 41 59 41 59 39 65 c 0,45,46
 32 95 32 95 61 103 c 0,47,48
 86 110 86 110 100 86 c 0,49,50
 113 62 113 62 94 49 c 0,51,52
 89 46 89 46 83 45 c 0,53,54
 69 42 69 42 68 38 c 0,55,56
 68 36 68 36 71 35 c 0,57,58
 85 30 85 30 111.5 26 c 128,-1,59
 138 22 138 22 183 27.5 c 128,-1,60
 228 33 228 33 256 58 c 0,61,62
 273 73 273 73 288 93 c 0,63,64
 295 103 295 103 287 103 c 0,65,66
 283 103 283 103 277 99 c 0,67,68
 250 85 250 85 236 85 c 0,69,70
 216 86 216 86 204 97 c 0,71,72
 180 121 180 121 196 144 c 0,73,74
 209 164 209 164 227 153 c 0,75,76
 231 151 231 151 234 147 c 0,77,78
 240 140 240 140 247.5 142 c 128,-1,79
 255 144 255 144 252 154 c 0,80,81
 243 177 243 177 218 183 c 128,-1,82
 193 189 193 189 170.5 178 c 128,-1,83
 148 167 148 167 145 147 c 0,84,85
 144 141 144 141 145 136 c 128,-1,86
 146 131 146 131 147.5 128.5 c 128,-1,87
 149 126 149 126 152.5 121.5 c 128,-1,88
 156 117 156 117 157 116 c 0,89,90
 166 101 166 101 159 90 c 0,91,92
 156 86 156 86 153 92 c 0,93,94
 150 97 150 97 143 106 c 128,-1,95
 136 115 136 115 132.5 122.5 c 128,-1,96
 129 130 129 130 128 140 c 0,97,98
 128 163 128 163 143 179 c 0,99,100
 182 221 182 221 238 196 c 0,101,102
 259 186 259 186 273.5 166.5 c 128,-1,103
 288 147 288 147 291 128 c 0,104,105
 294 115 294 115 298 116 c 0,106,107
 301 116 301 116 303 123 c 0,108,109
 329 214 329 214 278 277 c 0,110,111
 262 297 262 297 241.5 309.5 c 128,-1,112
 221 322 221 322 190.5 326 c 128,-1,113
 160 330 160 330 128 313 c 0,114,115
 94 296 94 296 99 258 c 0,116,117
 102 237 102 237 114 237 c 256,118,119
 126 237 126 237 128 250 c 0,120,121
 129 253 129 253 128 256 c 0,122,123
 125 269 125 269 125 269 c 2,124,125
 124 283 124 283 135 277 c 0,126,127
 150 269 150 269 148 250 c 0,128,129
 147 237 147 237 134 226 c 0,130,131
 119 212 119 212 91 220 c 0,132,133
 74 224 74 224 78 234 c 0,134,135
 83 242 83 242 82.5 246 c 128,-1,136
 82 250 82 250 73 250 c 256,137,138
 64 250 64 250 61 252.5 c 128,-1,139
 58 255 58 255 57 264 c 0,140,141
 56 276 56 276 59 283 c 0,142,143
 61 288 61 288 67 290.5 c 128,-1,144
 73 293 73 293 78 293 c 128,-1,145
 83 293 83 293 86.5 294.5 c 128,-1,146
 90 296 90 296 88 300 c 0,147,148
 87 302 87 302 74.5 305.5 c 128,-1,149
 62 309 62 309 60 320 c 0,150,151
 58 336 58 336 72.5 351.5 c 128,-1,152
 87 367 87 367 98 365 c 0,153,154
 102 364 102 364 106 362 c 128,-1,155
 110 360 110 360 112 358.5 c 128,-1,156
 114 357 114 357 116 353.5 c 128,-1,157
 118 350 118 350 118.5 349 c 128,-1,158
 119 348 119 348 121 343 c 128,-1,159
 123 338 123 338 123 337 c 0,160,161
 126 333 126 333 131 333 c 128,-1,162
 136 333 136 333 140.5 336.5 c 128,-1,163
 145 340 145 340 143 345 c 0,164,165
 142 347 142 347 136.5 355.5 c 128,-1,166
 131 364 131 364 130 368.5 c 128,-1,167
 129 373 129 373 131 382 c 0,168,169
 139 399 139 399 159.5 408.5 c 128,-1,170
 180 418 180 418 194 408 c 0,171,172
 208 397 208 397 210.5 387 c 128,-1,173
 213 377 213 377 208.5 366.5 c 128,-1,174
 204 356 204 356 204 353 c 0,175,176
 204 347 204 347 212 344.5 c 128,-1,177
 220 342 220 342 227.5 346 c 128,-1,178
 235 350 235 350 234 358 c 0,179,180
 231 388 231 388 256 394 c 0,181,182
 271 399 271 399 287.5 387.5 c 128,-1,183
 304 376 304 376 310 362 c 0,184,185
 326 324 326 324 289 311 c 0,186,187
 285 310 285 310 284.5 309 c 128,-1,188
 284 308 284 308 285.5 306 c 128,-1,189
 287 304 287 304 290.5 301 c 128,-1,190
 294 298 294 298 298.5 292.5 c 128,-1,191
 303 287 303 287 307.5 280.5 c 128,-1,192
 312 274 312 274 316.5 263.5 c 128,-1,193
 321 253 321 253 324 240 c 0,194,195
 340 172 340 172 320 117 c 0,196,197
 315 102 315 102 317 102 c 0,198,199
 318 101 318 101 323 106 c 0,200,201
 349 134 349 134 375 112 c 0,202,203
 395 94 395 94 389 72 c 0,204,205
 385 62 385 62 374 57 c 0,206,207
 368 54 368 54 355 60 c 128,-1,208
 342 66 342 66 338 67 c 0,209,210
 325 67 325 67 340 49 c 0,211,212
 351 35 351 35 365 29 c 0,213,214
 389 19 389 19 411 25 c 128,-1,215
 433 31 433 31 437 50 c 0,216,217
 440 65 440 65 429 68 c 0,218,219
 424 70 424 70 422 66 c 0,220,221
 421 66 421 66 419.5 61.5 c 128,-1,222
 418 57 418 57 416 55 c 0,223,224
 407 46 407 46 408 58 c 0,225,226
 409 78 409 78 422 85 c 0,227,228
 427 88 427 88 432 86 c 0,229,230
 444 82 444 82 452 72 c 128,-1,231
 460 62 460 62 459 48.5 c 128,-1,232
 458 35 458 35 442 25 c 0,233,234
 434 20 434 20 434 18 c 128,-1,235
 434 16 434 16 439 14 c 0,236,237
 441 13 441 13 442 12 c 0,238,239
 453 7 453 7 458 16 c 128,-1,240
 463 25 463 25 485 27 c 0,241,242
 499 28 499 28 505.5 20 c 128,-1,243
 512 12 512 12 512 0 c 0,244,0
 512 -5 512 -5 495.5 -5 c 128,-1,1
446 133 m 0,245,246
 426 133 426 133 411 150 c 0,247,248
 398 164 398 164 407 187 c 0,249,250
 413 200 413 200 417 191 c 0,251,252
 417 190 417 190 418 188 c 0,253,254
 420 182 420 182 418.5 177 c 128,-1,255
 417 172 417 172 419 167 c 128,-1,256
 421 162 421 162 427 159 c 0,257,258
 439 153 439 153 449 160 c 128,-1,259
 459 167 459 167 458 180 c 0,260,261
 458 188 458 188 456.5 195 c 128,-1,262
 455 202 455 202 451 210 c 128,-1,263
 447 218 447 218 445 222 c 128,-1,264
 443 226 443 226 437.5 235 c 128,-1,265
 432 244 432 244 430 247 c 0,266,267
 381 331 381 331 435 372 c 0,268,269
 440 376 440 376 443 372 c 128,-1,270
 446 368 446 368 449 358 c 0,271,272
 458 332 458 332 478 339 c 128,-1,273
 498 346 498 346 499 371 c 0,274,275
 499 385 499 385 490 399 c 0,276,277
 470 428 470 428 487 432 c 0,278,279
 500 434 500 434 509 420 c 0,280,281
 512 415 512 415 512 409 c 2,282,-1
 512 323 l 1,283,284
 494 323 494 323 481 315 c 128,-1,285
 468 307 468 307 468 296.5 c 128,-1,286
 468 286 468 286 481 278 c 128,-1,287
 494 270 494 270 512 270 c 1,288,-1
 512 217 l 2,289,290
 512 200 512 200 501 177.5 c 128,-1,291
 490 155 490 155 480 146 c 0,292,293
 465 134 465 134 450 133 c 0,294,295
 448 133 448 133 446 133 c 0,245,246
0 445 m 2,296,297
 -4 445 -4 445 -4 453.5 c 128,-1,298
 -4 462 -4 462 0 462 c 2,299,-1
 512 462 l 2,300,301
 516 462 516 462 516 453.5 c 128,-1,302
 516 445 516 445 512 445 c 2,303,-1
 0 445 l 2,296,297
0 479 m 2,304,305
 -4 479 -4 479 -4 495.5 c 128,-1,306
 -4 512 -4 512 0 512 c 2,307,-1
 512 512 l 2,308,309
 516 512 516 512 516 495.5 c 128,-1,310
 516 479 516 479 512 479 c 2,311,-1
 0 479 l 2,304,305
EndSplineSet
EndChar

StartChar: SE Vertical and Left
Encoding: 9515 9515 22
Width: 512
VWidth: 1024
GlyphClass: 2
Flags: W
LayerCount: 2
Fore
SplineSet
-5 16.5 m 128,-1,1
 -5 33 -5 33 0 33 c 0,2,3
 8 33 8 33 6.5 41.5 c 128,-1,4
 5 50 5 50 0 50 c 0,5,6
 -7 50 -7 50 0 67 c 0,7,8
 6 82 6 82 8.5 90 c 128,-1,9
 11 98 11 98 11 100.5 c 128,-1,10
 11 103 11 103 10 109.5 c 128,-1,11
 9 116 9 116 8 123 c 0,12,13
 9 160 9 160 30 182 c 0,14,15
 54 208 54 208 80 203 c 0,16,17
 93 201 93 201 84 208 c 0,18,19
 83 209 83 209 78 212 c 0,20,21
 65 222 65 222 53 236 c 0,22,23
 30 262 30 262 19 291 c 128,-1,24
 8 320 8 320 7 367 c 0,25,26
 6 399 6 399 9 444 c 0,27,28
 12 478 12 478 19 512 c 0,29,30
 20 518 20 518 45 516 c 0,31,32
 54 514 54 514 55 512 c 0,33,34
 54 511 54 511 54 510 c 0,35,36
 53 507 53 507 51 502.5 c 128,-1,37
 49 498 49 498 48 495 c 128,-1,38
 47 492 47 492 45.5 488 c 128,-1,39
 44 484 44 484 44 482 c 128,-1,40
 44 480 44 480 44 477.5 c 128,-1,41
 44 475 44 475 45.5 473.5 c 128,-1,42
 47 472 47 472 49 471 c 128,-1,43
 51 470 51 470 55 470.5 c 128,-1,44
 59 471 59 471 65 473 c 0,45,46
 95 480 95 480 103 451 c 0,47,48
 110 426 110 426 86 412 c 0,49,50
 62 399 62 399 49 418 c 0,51,52
 46 423 46 423 45 429 c 0,53,54
 42 443 42 443 38 444 c 0,55,56
 36 444 36 444 35 441 c 0,57,58
 30 427 30 427 26 400.5 c 128,-1,59
 22 374 22 374 27.5 329 c 128,-1,60
 33 284 33 284 58 256 c 0,61,62
 73 239 73 239 93 224 c 0,63,64
 103 217 103 217 103 225 c 0,65,66
 103 229 103 229 99 235 c 0,67,68
 85 262 85 262 85 276 c 0,69,70
 86 296 86 296 97 308 c 0,71,72
 121 332 121 332 144 316 c 0,73,74
 164 303 164 303 153 285 c 0,75,76
 151 281 151 281 147 278 c 0,77,78
 140 272 140 272 142 264.5 c 128,-1,79
 144 257 144 257 154 260 c 0,80,81
 177 269 177 269 183 294 c 128,-1,82
 189 319 189 319 178 341.5 c 128,-1,83
 167 364 167 364 147 367 c 0,84,85
 141 368 141 368 136 367 c 128,-1,86
 131 366 131 366 128.5 364.5 c 128,-1,87
 126 363 126 363 121.5 359.5 c 128,-1,88
 117 356 117 356 116 355 c 0,89,90
 101 346 101 346 90 353 c 0,91,92
 86 356 86 356 92 359 c 0,93,94
 97 362 97 362 106 369 c 128,-1,95
 115 376 115 376 122.5 379.5 c 128,-1,96
 130 383 130 383 140 384 c 0,97,98
 163 384 163 384 179 369 c 0,99,100
 221 330 221 330 196 274 c 0,101,102
 186 253 186 253 166.5 238.5 c 128,-1,103
 147 224 147 224 128 221 c 0,104,105
 115 218 115 218 116 214 c 0,106,107
 116 211 116 211 123 209 c 0,108,109
 214 183 214 183 277 234 c 0,110,111
 297 250 297 250 309.5 270.5 c 128,-1,112
 322 291 322 291 326 321.5 c 128,-1,113
 330 352 330 352 313 384 c 0,114,115
 296 418 296 418 258 413 c 0,116,117
 237 410 237 410 237 398 c 256,118,119
 237 386 237 386 250 384 c 0,120,121
 253 383 253 383 256 384 c 0,122,123
 269 387 269 387 269 387 c 2,124,125
 283 388 283 388 277 377 c 0,126,127
 269 362 269 362 250 364 c 0,128,129
 237 365 237 365 226 378 c 0,130,131
 212 393 212 393 220 421 c 0,132,133
 224 438 224 438 234 434 c 0,134,135
 242 429 242 429 246 429.5 c 128,-1,136
 250 430 250 430 250 439 c 256,137,138
 250 448 250 448 252.5 451 c 128,-1,139
 255 454 255 454 264 455 c 0,140,141
 276 456 276 456 283 453 c 0,142,143
 288 451 288 451 290.5 445 c 128,-1,144
 293 439 293 439 293 434 c 128,-1,145
 293 429 293 429 294.5 425.5 c 128,-1,146
 296 422 296 422 300 424 c 0,147,148
 302 425 302 425 305.5 437.5 c 128,-1,149
 309 450 309 450 320 452 c 0,150,151
 336 454 336 454 351.5 439.5 c 128,-1,152
 367 425 367 425 365 414 c 0,153,154
 364 410 364 410 362 406 c 128,-1,155
 360 402 360 402 358.5 400 c 128,-1,156
 357 398 357 398 353.5 396 c 128,-1,157
 350 394 350 394 349 393.5 c 128,-1,158
 348 393 348 393 343 391 c 128,-1,159
 338 389 338 389 337 389 c 0,160,161
 333 386 333 386 333 381 c 128,-1,162
 333 376 333 376 336.5 371.5 c 128,-1,163
 340 367 340 367 345 369 c 0,164,165
 347 370 347 370 355.5 375.5 c 128,-1,166
 364 381 364 381 368.5 382 c 128,-1,167
 373 383 373 383 382 381 c 0,168,169
 399 373 399 373 408.5 352.5 c 128,-1,170
 418 332 418 332 408 318 c 0,171,172
 397 304 397 304 387 301.5 c 128,-1,173
 377 299 377 299 366.5 303.5 c 128,-1,174
 356 308 356 308 353 308 c 0,175,176
 347 308 347 308 344.5 300 c 128,-1,177
 342 292 342 292 346 284.5 c 128,-1,178
 350 277 350 277 358 278 c 0,179,180
 388 281 388 281 394 256 c 0,181,182
 399 241 399 241 387.5 224.5 c 128,-1,183
 376 208 376 208 362 202 c 0,184,185
 324 186 324 186 311 223 c 0,186,187
 310 227 310 227 309 227.5 c 128,-1,188
 308 228 308 228 306 226.5 c 128,-1,189
 304 225 304 225 301 221.5 c 128,-1,190
 298 218 298 218 292.5 213.5 c 128,-1,191
 287 209 287 209 280.5 204.5 c 128,-1,192
 274 200 274 200 263.5 195.5 c 128,-1,193
 253 191 253 191 240 188 c 0,194,195
 172 172 172 172 117 192 c 0,196,197
 102 197 102 197 102 195 c 0,198,199
 101 194 101 194 106 189 c 0,200,201
 134 163 134 163 112 137 c 0,202,203
 94 117 94 117 72 123 c 0,204,205
 62 127 62 127 57 138 c 0,206,207
 54 144 54 144 60 157 c 128,-1,208
 66 170 66 170 67 174 c 0,209,210
 67 187 67 187 49 172 c 0,211,212
 35 161 35 161 29 147 c 0,213,214
 19 123 19 123 25 101 c 128,-1,215
 31 79 31 79 50 75 c 0,216,217
 65 72 65 72 68 83 c 0,218,219
 70 88 70 88 66 90 c 0,220,221
 66 91 66 91 61.5 92.5 c 128,-1,222
 57 94 57 94 55 96 c 0,223,224
 46 105 46 105 58 104 c 0,225,226
 78 103 78 103 85 90 c 0,227,228
 88 85 88 85 86 80 c 0,229,230
 82 68 82 68 72 60 c 128,-1,231
 62 52 62 52 48.5 53 c 128,-1,232
 35 54 35 54 25 70 c 0,233,234
 20 78 20 78 18 78 c 128,-1,235
 16 78 16 78 14 73 c 0,236,237
 13 71 13 71 12 70 c 0,238,239
 7 59 7 59 16 54 c 128,-1,240
 25 49 25 49 27 27 c 0,241,242
 28 13 28 13 20 6.5 c 128,-1,243
 12 0 12 0 0 0 c 0,244,0
 -5 0 -5 0 -5 16.5 c 128,-1,1
133 66 m 0,245,246
 133 86 133 86 150 101 c 0,247,248
 164 114 164 114 187 105 c 0,249,250
 200 99 200 99 191 95 c 0,251,252
 190 95 190 95 188 94 c 0,253,254
 182 92 182 92 177 93.5 c 128,-1,255
 172 95 172 95 167 93 c 128,-1,256
 162 91 162 91 159 85 c 0,257,258
 153 73 153 73 160 63 c 128,-1,259
 167 53 167 53 180 54 c 0,260,261
 188 54 188 54 195 55.5 c 128,-1,262
 202 57 202 57 210 61 c 128,-1,263
 218 65 218 65 222 67 c 128,-1,264
 226 69 226 69 235 74.5 c 128,-1,265
 244 80 244 80 247 82 c 0,266,267
 331 131 331 131 372 77 c 0,268,269
 376 72 376 72 372 69 c 128,-1,270
 368 66 368 66 358 63 c 0,271,272
 332 54 332 54 339 34 c 128,-1,273
 346 14 346 14 371 13 c 0,274,275
 385 13 385 13 399 22 c 0,276,277
 428 42 428 42 432 25 c 0,278,279
 434 12 434 12 420 3 c 0,280,281
 415 0 415 0 409 0 c 2,282,-1
 323 0 l 1,283,284
 323 18 323 18 315 31 c 128,-1,285
 307 44 307 44 296.5 44 c 128,-1,286
 286 44 286 44 278 31 c 128,-1,287
 270 18 270 18 270 0 c 1,288,-1
 217 0 l 2,289,290
 200 0 200 0 177.5 11 c 128,-1,291
 155 22 155 22 146 32 c 0,292,293
 134 47 134 47 133 62 c 0,294,295
 133 64 133 64 133 66 c 0,245,246
445 512 m 2,296,297
 445 516 445 516 453.5 516 c 128,-1,298
 462 516 462 516 462 512 c 2,299,-1
 462 0 l 2,300,301
 462 -4 462 -4 453.5 -4 c 128,-1,302
 445 -4 445 -4 445 0 c 2,303,-1
 445 512 l 2,296,297
479 512 m 2,304,305
 479 516 479 516 495.5 516 c 128,-1,306
 512 516 512 516 512 512 c 2,307,-1
 512 0 l 2,308,309
 512 -4 512 -4 495.5 -4 c 128,-1,310
 479 -4 479 -4 479 0 c 2,311,-1
 479 512 l 2,304,305
EndSplineSet
EndChar

StartChar: N Horizontal
Encoding: 9472 9472 24
Width: 512
VWidth: 1024
GlyphClass: 2
Flags: W
LayerCount: 2
Fore
SplineSet
148 389 m 2,0,1
 138 389 138 389 130.5 381.5 c 128,-1,2
 123 374 123 374 123 364 c 2,3,-1
 123 148 l 2,4,5
 123 138 123 138 130.5 130.5 c 128,-1,6
 138 123 138 123 148 123 c 2,7,-1
 364 123 l 2,8,9
 374 123 374 123 381.5 130.5 c 128,-1,10
 389 138 389 138 389 148 c 2,11,-1
 389 364 l 2,12,13
 389 374 389 374 381.5 381.5 c 128,-1,14
 374 389 374 389 364 389 c 2,15,-1
 148 389 l 2,0,1
148 379 m 2,16,-1
 364 379 l 2,17,18
 379 379 379 379 379 364 c 2,19,-1
 379 148 l 2,20,21
 379 133 379 133 364 133 c 2,22,-1
 148 133 l 2,23,24
 133 133 133 133 133 148 c 2,25,-1
 133 364 l 2,26,27
 133 379 133 379 148 379 c 2,16,-1
EndSplineSet
EndChar

StartChar: S Horizontal
Encoding: 9473 9473 25
Width: 512
VWidth: 1024
GlyphClass: 2
Flags: W
LayerCount: 2
Fore
SplineSet
148 389 m 2,0,1
 138 389 138 389 130.5 381.5 c 128,-1,2
 123 374 123 374 123 364 c 2,3,-1
 123 148 l 2,4,5
 123 138 123 138 130.5 130.5 c 128,-1,6
 138 123 138 123 148 123 c 2,7,-1
 364 123 l 2,8,9
 374 123 374 123 381.5 130.5 c 128,-1,10
 389 138 389 138 389 148 c 2,11,-1
 389 364 l 2,12,13
 389 374 389 374 381.5 381.5 c 128,-1,14
 374 389 374 389 364 389 c 2,15,-1
 148 389 l 2,0,1
148 379 m 2,16,-1
 364 379 l 2,17,18
 379 379 379 379 379 364 c 2,19,-1
 379 148 l 2,20,21
 379 133 379 133 364 133 c 2,22,-1
 148 133 l 2,23,24
 133 133 133 133 133 148 c 2,25,-1
 133 364 l 2,26,27
 133 379 133 379 148 379 c 2,16,-1
EndSplineSet
EndChar

StartChar: W Vertical
Encoding: 9474 9474 26
Width: 512
VWidth: 1024
GlyphClass: 2
Flags: W
LayerCount: 2
Fore
SplineSet
148 389 m 2,0,1
 138 389 138 389 130.5 381.5 c 128,-1,2
 123 374 123 374 123 364 c 2,3,-1
 123 148 l 2,4,5
 123 138 123 138 130.5 130.5 c 128,-1,6
 138 123 138 123 148 123 c 2,7,-1
 364 123 l 2,8,9
 374 123 374 123 381.5 130.5 c 128,-1,10
 389 138 389 138 389 148 c 2,11,-1
 389 364 l 2,12,13
 389 374 389 374 381.5 381.5 c 128,-1,14
 374 389 374 389 364 389 c 2,15,-1
 148 389 l 2,0,1
148 379 m 2,16,-1
 364 379 l 2,17,18
 379 379 379 379 379 364 c 2,19,-1
 379 148 l 2,20,21
 379 133 379 133 364 133 c 2,22,-1
 148 133 l 2,23,24
 133 133 133 133 133 148 c 2,25,-1
 133 364 l 2,26,27
 133 379 133 379 148 379 c 2,16,-1
EndSplineSet
EndChar

StartChar: E Vertical
Encoding: 9475 9475 27
Width: 512
VWidth: 1024
GlyphClass: 2
Flags: W
LayerCount: 2
Fore
SplineSet
148 389 m 2,0,1
 138 389 138 389 130.5 381.5 c 128,-1,2
 123 374 123 374 123 364 c 2,3,-1
 123 148 l 2,4,5
 123 138 123 138 130.5 130.5 c 128,-1,6
 138 123 138 123 148 123 c 2,7,-1
 364 123 l 2,8,9
 374 123 374 123 381.5 130.5 c 128,-1,10
 389 138 389 138 389 148 c 2,11,-1
 389 364 l 2,12,13
 389 374 389 374 381.5 381.5 c 128,-1,14
 374 389 374 389 364 389 c 2,15,-1
 148 389 l 2,0,1
148 379 m 2,16,-1
 364 379 l 2,17,18
 379 379 379 379 379 364 c 2,19,-1
 379 148 l 2,20,21
 379 133 379 133 364 133 c 2,22,-1
 148 133 l 2,23,24
 133 133 133 133 133 148 c 2,25,-1
 133 364 l 2,26,27
 133 379 133 379 148 379 c 2,16,-1
EndSplineSet
EndChar

StartChar: N Horizontal 2
Encoding: 9476 9476 28
Width: 512
VWidth: 1024
GlyphClass: 2
Flags: W
LayerCount: 2
Fore
SplineSet
148 389 m 2,0,1
 138 389 138 389 130.5 381.5 c 128,-1,2
 123 374 123 374 123 364 c 2,3,-1
 123 148 l 2,4,5
 123 138 123 138 130.5 130.5 c 128,-1,6
 138 123 138 123 148 123 c 2,7,-1
 364 123 l 2,8,9
 374 123 374 123 381.5 130.5 c 128,-1,10
 389 138 389 138 389 148 c 2,11,-1
 389 364 l 2,12,13
 389 374 389 374 381.5 381.5 c 128,-1,14
 374 389 374 389 364 389 c 2,15,-1
 148 389 l 2,0,1
148 379 m 2,16,-1
 364 379 l 2,17,18
 379 379 379 379 379 364 c 2,19,-1
 379 148 l 2,20,21
 379 133 379 133 364 133 c 2,22,-1
 148 133 l 2,23,24
 133 133 133 133 133 148 c 2,25,-1
 133 364 l 2,26,27
 133 379 133 379 148 379 c 2,16,-1
EndSplineSet
EndChar

StartChar: S Horizontal 2
Encoding: 9477 9477 29
Width: 512
VWidth: 1024
GlyphClass: 2
Flags: W
LayerCount: 2
Fore
SplineSet
148 389 m 2,0,1
 138 389 138 389 130.5 381.5 c 128,-1,2
 123 374 123 374 123 364 c 2,3,-1
 123 148 l 2,4,5
 123 138 123 138 130.5 130.5 c 128,-1,6
 138 123 138 123 148 123 c 2,7,-1
 364 123 l 2,8,9
 374 123 374 123 381.5 130.5 c 128,-1,10
 389 138 389 138 389 148 c 2,11,-1
 389 364 l 2,12,13
 389 374 389 374 381.5 381.5 c 128,-1,14
 374 389 374 389 364 389 c 2,15,-1
 148 389 l 2,0,1
148 379 m 2,16,-1
 364 379 l 2,17,18
 379 379 379 379 379 364 c 2,19,-1
 379 148 l 2,20,21
 379 133 379 133 364 133 c 2,22,-1
 148 133 l 2,23,24
 133 133 133 133 133 148 c 2,25,-1
 133 364 l 2,26,27
 133 379 133 379 148 379 c 2,16,-1
EndSplineSet
EndChar

StartChar: W Vertical 2
Encoding: 9478 9478 30
Width: 512
VWidth: 1024
GlyphClass: 2
Flags: W
LayerCount: 2
Fore
SplineSet
148 389 m 2,0,1
 138 389 138 389 130.5 381.5 c 128,-1,2
 123 374 123 374 123 364 c 2,3,-1
 123 148 l 2,4,5
 123 138 123 138 130.5 130.5 c 128,-1,6
 138 123 138 123 148 123 c 2,7,-1
 364 123 l 2,8,9
 374 123 374 123 381.5 130.5 c 128,-1,10
 389 138 389 138 389 148 c 2,11,-1
 389 364 l 2,12,13
 389 374 389 374 381.5 381.5 c 128,-1,14
 374 389 374 389 364 389 c 2,15,-1
 148 389 l 2,0,1
148 379 m 2,16,-1
 364 379 l 2,17,18
 379 379 379 379 379 364 c 2,19,-1
 379 148 l 2,20,21
 379 133 379 133 364 133 c 2,22,-1
 148 133 l 2,23,24
 133 133 133 133 133 148 c 2,25,-1
 133 364 l 2,26,27
 133 379 133 379 148 379 c 2,16,-1
EndSplineSet
EndChar

StartChar: E Vertical 2
Encoding: 9479 9479 31
Width: 512
VWidth: 1024
GlyphClass: 2
Flags: W
LayerCount: 2
Fore
SplineSet
148 389 m 2,0,1
 138 389 138 389 130.5 381.5 c 128,-1,2
 123 374 123 374 123 364 c 2,3,-1
 123 148 l 2,4,5
 123 138 123 138 130.5 130.5 c 128,-1,6
 138 123 138 123 148 123 c 2,7,-1
 364 123 l 2,8,9
 374 123 374 123 381.5 130.5 c 128,-1,10
 389 138 389 138 389 148 c 2,11,-1
 389 364 l 2,12,13
 389 374 389 374 381.5 381.5 c 128,-1,14
 374 389 374 389 364 389 c 2,15,-1
 148 389 l 2,0,1
148 379 m 2,16,-1
 364 379 l 2,17,18
 379 379 379 379 379 364 c 2,19,-1
 379 148 l 2,20,21
 379 133 379 133 364 133 c 2,22,-1
 148 133 l 2,23,24
 133 133 133 133 133 148 c 2,25,-1
 133 364 l 2,26,27
 133 379 133 379 148 379 c 2,16,-1
EndSplineSet
EndChar

StartChar: N Horizontal 3
Encoding: 9480 9480 32
Width: 512
VWidth: 1024
GlyphClass: 2
Flags: W
LayerCount: 2
Fore
SplineSet
148 389 m 2,0,1
 138 389 138 389 130.5 381.5 c 128,-1,2
 123 374 123 374 123 364 c 2,3,-1
 123 148 l 2,4,5
 123 138 123 138 130.5 130.5 c 128,-1,6
 138 123 138 123 148 123 c 2,7,-1
 364 123 l 2,8,9
 374 123 374 123 381.5 130.5 c 128,-1,10
 389 138 389 138 389 148 c 2,11,-1
 389 364 l 2,12,13
 389 374 389 374 381.5 381.5 c 128,-1,14
 374 389 374 389 364 389 c 2,15,-1
 148 389 l 2,0,1
148 379 m 2,16,-1
 364 379 l 2,17,18
 379 379 379 379 379 364 c 2,19,-1
 379 148 l 2,20,21
 379 133 379 133 364 133 c 2,22,-1
 148 133 l 2,23,24
 133 133 133 133 133 148 c 2,25,-1
 133 364 l 2,26,27
 133 379 133 379 148 379 c 2,16,-1
EndSplineSet
EndChar

StartChar: S Horizontal 3
Encoding: 9481 9481 33
Width: 512
VWidth: 1024
GlyphClass: 2
Flags: W
LayerCount: 2
Fore
SplineSet
148 389 m 2,0,1
 138 389 138 389 130.5 381.5 c 128,-1,2
 123 374 123 374 123 364 c 2,3,-1
 123 148 l 2,4,5
 123 138 123 138 130.5 130.5 c 128,-1,6
 138 123 138 123 148 123 c 2,7,-1
 364 123 l 2,8,9
 374 123 374 123 381.5 130.5 c 128,-1,10
 389 138 389 138 389 148 c 2,11,-1
 389 364 l 2,12,13
 389 374 389 374 381.5 381.5 c 128,-1,14
 374 389 374 389 364 389 c 2,15,-1
 148 389 l 2,0,1
148 379 m 2,16,-1
 364 379 l 2,17,18
 379 379 379 379 379 364 c 2,19,-1
 379 148 l 2,20,21
 379 133 379 133 364 133 c 2,22,-1
 148 133 l 2,23,24
 133 133 133 133 133 148 c 2,25,-1
 133 364 l 2,26,27
 133 379 133 379 148 379 c 2,16,-1
EndSplineSet
EndChar

StartChar: W Vertical 3
Encoding: 9482 9482 34
Width: 512
VWidth: 1024
GlyphClass: 2
Flags: W
LayerCount: 2
Fore
SplineSet
148 389 m 2,0,1
 138 389 138 389 130.5 381.5 c 128,-1,2
 123 374 123 374 123 364 c 2,3,-1
 123 148 l 2,4,5
 123 138 123 138 130.5 130.5 c 128,-1,6
 138 123 138 123 148 123 c 2,7,-1
 364 123 l 2,8,9
 374 123 374 123 381.5 130.5 c 128,-1,10
 389 138 389 138 389 148 c 2,11,-1
 389 364 l 2,12,13
 389 374 389 374 381.5 381.5 c 128,-1,14
 374 389 374 389 364 389 c 2,15,-1
 148 389 l 2,0,1
148 379 m 2,16,-1
 364 379 l 2,17,18
 379 379 379 379 379 364 c 2,19,-1
 379 148 l 2,20,21
 379 133 379 133 364 133 c 2,22,-1
 148 133 l 2,23,24
 133 133 133 133 133 148 c 2,25,-1
 133 364 l 2,26,27
 133 379 133 379 148 379 c 2,16,-1
EndSplineSet
EndChar

StartChar: E Vertical 3
Encoding: 9483 9483 35
Width: 512
VWidth: 1024
GlyphClass: 2
Flags: W
LayerCount: 2
Fore
SplineSet
148 389 m 2,0,1
 138 389 138 389 130.5 381.5 c 128,-1,2
 123 374 123 374 123 364 c 2,3,-1
 123 148 l 2,4,5
 123 138 123 138 130.5 130.5 c 128,-1,6
 138 123 138 123 148 123 c 2,7,-1
 364 123 l 2,8,9
 374 123 374 123 381.5 130.5 c 128,-1,10
 389 138 389 138 389 148 c 2,11,-1
 389 364 l 2,12,13
 389 374 389 374 381.5 381.5 c 128,-1,14
 374 389 374 389 364 389 c 2,15,-1
 148 389 l 2,0,1
148 379 m 2,16,-1
 364 379 l 2,17,18
 379 379 379 379 379 364 c 2,19,-1
 379 148 l 2,20,21
 379 133 379 133 364 133 c 2,22,-1
 148 133 l 2,23,24
 133 133 133 133 133 148 c 2,25,-1
 133 364 l 2,26,27
 133 379 133 379 148 379 c 2,16,-1
EndSplineSet
EndChar

StartChar: NW Down and Right
Encoding: 9484 9484 36
Width: 512
VWidth: 1024
GlyphClass: 2
Flags: W
LayerCount: 2
Fore
SplineSet
148 389 m 2,0,1
 138 389 138 389 130.5 381.5 c 128,-1,2
 123 374 123 374 123 364 c 2,3,-1
 123 148 l 2,4,5
 123 138 123 138 130.5 130.5 c 128,-1,6
 138 123 138 123 148 123 c 2,7,-1
 364 123 l 2,8,9
 374 123 374 123 381.5 130.5 c 128,-1,10
 389 138 389 138 389 148 c 2,11,-1
 389 364 l 2,12,13
 389 374 389 374 381.5 381.5 c 128,-1,14
 374 389 374 389 364 389 c 2,15,-1
 148 389 l 2,0,1
148 379 m 2,16,-1
 364 379 l 2,17,18
 379 379 379 379 379 364 c 2,19,-1
 379 148 l 2,20,21
 379 133 379 133 364 133 c 2,22,-1
 148 133 l 2,23,24
 133 133 133 133 133 148 c 2,25,-1
 133 364 l 2,26,27
 133 379 133 379 148 379 c 2,16,-1
EndSplineSet
EndChar

StartChar: SW Down and Right
Encoding: 9485 9485 37
Width: 512
VWidth: 1024
GlyphClass: 2
Flags: W
LayerCount: 2
Fore
SplineSet
148 389 m 2,0,1
 138 389 138 389 130.5 381.5 c 128,-1,2
 123 374 123 374 123 364 c 2,3,-1
 123 148 l 2,4,5
 123 138 123 138 130.5 130.5 c 128,-1,6
 138 123 138 123 148 123 c 2,7,-1
 364 123 l 2,8,9
 374 123 374 123 381.5 130.5 c 128,-1,10
 389 138 389 138 389 148 c 2,11,-1
 389 364 l 2,12,13
 389 374 389 374 381.5 381.5 c 128,-1,14
 374 389 374 389 364 389 c 2,15,-1
 148 389 l 2,0,1
148 379 m 2,16,-1
 364 379 l 2,17,18
 379 379 379 379 379 364 c 2,19,-1
 379 148 l 2,20,21
 379 133 379 133 364 133 c 2,22,-1
 148 133 l 2,23,24
 133 133 133 133 133 148 c 2,25,-1
 133 364 l 2,26,27
 133 379 133 379 148 379 c 2,16,-1
EndSplineSet
EndChar

StartChar: NE Down and Right
Encoding: 9486 9486 38
Width: 512
VWidth: 1024
GlyphClass: 2
Flags: W
LayerCount: 2
Fore
SplineSet
148 389 m 2,0,1
 138 389 138 389 130.5 381.5 c 128,-1,2
 123 374 123 374 123 364 c 2,3,-1
 123 148 l 2,4,5
 123 138 123 138 130.5 130.5 c 128,-1,6
 138 123 138 123 148 123 c 2,7,-1
 364 123 l 2,8,9
 374 123 374 123 381.5 130.5 c 128,-1,10
 389 138 389 138 389 148 c 2,11,-1
 389 364 l 2,12,13
 389 374 389 374 381.5 381.5 c 128,-1,14
 374 389 374 389 364 389 c 2,15,-1
 148 389 l 2,0,1
148 379 m 2,16,-1
 364 379 l 2,17,18
 379 379 379 379 379 364 c 2,19,-1
 379 148 l 2,20,21
 379 133 379 133 364 133 c 2,22,-1
 148 133 l 2,23,24
 133 133 133 133 133 148 c 2,25,-1
 133 364 l 2,26,27
 133 379 133 379 148 379 c 2,16,-1
EndSplineSet
EndChar

StartChar: NW Down and Left
Encoding: 9488 9488 39
Width: 512
VWidth: 1024
GlyphClass: 2
Flags: W
LayerCount: 2
Fore
SplineSet
148 389 m 2,0,1
 138 389 138 389 130.5 381.5 c 128,-1,2
 123 374 123 374 123 364 c 2,3,-1
 123 148 l 2,4,5
 123 138 123 138 130.5 130.5 c 128,-1,6
 138 123 138 123 148 123 c 2,7,-1
 364 123 l 2,8,9
 374 123 374 123 381.5 130.5 c 128,-1,10
 389 138 389 138 389 148 c 2,11,-1
 389 364 l 2,12,13
 389 374 389 374 381.5 381.5 c 128,-1,14
 374 389 374 389 364 389 c 2,15,-1
 148 389 l 2,0,1
148 379 m 2,16,-1
 364 379 l 2,17,18
 379 379 379 379 379 364 c 2,19,-1
 379 148 l 2,20,21
 379 133 379 133 364 133 c 2,22,-1
 148 133 l 2,23,24
 133 133 133 133 133 148 c 2,25,-1
 133 364 l 2,26,27
 133 379 133 379 148 379 c 2,16,-1
EndSplineSet
EndChar

StartChar: NE Down and Left
Encoding: 9490 9490 40
Width: 512
VWidth: 1024
GlyphClass: 2
Flags: W
LayerCount: 2
Fore
SplineSet
148 389 m 2,0,1
 138 389 138 389 130.5 381.5 c 128,-1,2
 123 374 123 374 123 364 c 2,3,-1
 123 148 l 2,4,5
 123 138 123 138 130.5 130.5 c 128,-1,6
 138 123 138 123 148 123 c 2,7,-1
 364 123 l 2,8,9
 374 123 374 123 381.5 130.5 c 128,-1,10
 389 138 389 138 389 148 c 2,11,-1
 389 364 l 2,12,13
 389 374 389 374 381.5 381.5 c 128,-1,14
 374 389 374 389 364 389 c 2,15,-1
 148 389 l 2,0,1
148 379 m 2,16,-1
 364 379 l 2,17,18
 379 379 379 379 379 364 c 2,19,-1
 379 148 l 2,20,21
 379 133 379 133 364 133 c 2,22,-1
 148 133 l 2,23,24
 133 133 133 133 133 148 c 2,25,-1
 133 364 l 2,26,27
 133 379 133 379 148 379 c 2,16,-1
EndSplineSet
EndChar

StartChar: SE Down and Left
Encoding: 9491 9491 41
Width: 512
VWidth: 1024
GlyphClass: 2
Flags: W
LayerCount: 2
Fore
SplineSet
148 389 m 2,0,1
 138 389 138 389 130.5 381.5 c 128,-1,2
 123 374 123 374 123 364 c 2,3,-1
 123 148 l 2,4,5
 123 138 123 138 130.5 130.5 c 128,-1,6
 138 123 138 123 148 123 c 2,7,-1
 364 123 l 2,8,9
 374 123 374 123 381.5 130.5 c 128,-1,10
 389 138 389 138 389 148 c 2,11,-1
 389 364 l 2,12,13
 389 374 389 374 381.5 381.5 c 128,-1,14
 374 389 374 389 364 389 c 2,15,-1
 148 389 l 2,0,1
148 379 m 2,16,-1
 364 379 l 2,17,18
 379 379 379 379 379 364 c 2,19,-1
 379 148 l 2,20,21
 379 133 379 133 364 133 c 2,22,-1
 148 133 l 2,23,24
 133 133 133 133 133 148 c 2,25,-1
 133 364 l 2,26,27
 133 379 133 379 148 379 c 2,16,-1
EndSplineSet
EndChar

StartChar: NW Up and Right
Encoding: 9492 9492 42
Width: 512
VWidth: 1024
GlyphClass: 2
Flags: W
LayerCount: 2
Fore
SplineSet
148 389 m 2,0,1
 138 389 138 389 130.5 381.5 c 128,-1,2
 123 374 123 374 123 364 c 2,3,-1
 123 148 l 2,4,5
 123 138 123 138 130.5 130.5 c 128,-1,6
 138 123 138 123 148 123 c 2,7,-1
 364 123 l 2,8,9
 374 123 374 123 381.5 130.5 c 128,-1,10
 389 138 389 138 389 148 c 2,11,-1
 389 364 l 2,12,13
 389 374 389 374 381.5 381.5 c 128,-1,14
 374 389 374 389 364 389 c 2,15,-1
 148 389 l 2,0,1
148 379 m 2,16,-1
 364 379 l 2,17,18
 379 379 379 379 379 364 c 2,19,-1
 379 148 l 2,20,21
 379 133 379 133 364 133 c 2,22,-1
 148 133 l 2,23,24
 133 133 133 133 133 148 c 2,25,-1
 133 364 l 2,26,27
 133 379 133 379 148 379 c 2,16,-1
EndSplineSet
EndChar

StartChar: SW Up and Right
Encoding: 9493 9493 43
Width: 512
VWidth: 1024
GlyphClass: 2
Flags: W
LayerCount: 2
Fore
SplineSet
148 389 m 2,0,1
 138 389 138 389 130.5 381.5 c 128,-1,2
 123 374 123 374 123 364 c 2,3,-1
 123 148 l 2,4,5
 123 138 123 138 130.5 130.5 c 128,-1,6
 138 123 138 123 148 123 c 2,7,-1
 364 123 l 2,8,9
 374 123 374 123 381.5 130.5 c 128,-1,10
 389 138 389 138 389 148 c 2,11,-1
 389 364 l 2,12,13
 389 374 389 374 381.5 381.5 c 128,-1,14
 374 389 374 389 364 389 c 2,15,-1
 148 389 l 2,0,1
148 379 m 2,16,-1
 364 379 l 2,17,18
 379 379 379 379 379 364 c 2,19,-1
 379 148 l 2,20,21
 379 133 379 133 364 133 c 2,22,-1
 148 133 l 2,23,24
 133 133 133 133 133 148 c 2,25,-1
 133 364 l 2,26,27
 133 379 133 379 148 379 c 2,16,-1
EndSplineSet
EndChar

StartChar: SE Up and Right
Encoding: 9495 9495 44
Width: 512
VWidth: 1024
GlyphClass: 2
Flags: W
LayerCount: 2
Fore
SplineSet
148 389 m 2,0,1
 138 389 138 389 130.5 381.5 c 128,-1,2
 123 374 123 374 123 364 c 2,3,-1
 123 148 l 2,4,5
 123 138 123 138 130.5 130.5 c 128,-1,6
 138 123 138 123 148 123 c 2,7,-1
 364 123 l 2,8,9
 374 123 374 123 381.5 130.5 c 128,-1,10
 389 138 389 138 389 148 c 2,11,-1
 389 364 l 2,12,13
 389 374 389 374 381.5 381.5 c 128,-1,14
 374 389 374 389 364 389 c 2,15,-1
 148 389 l 2,0,1
148 379 m 2,16,-1
 364 379 l 2,17,18
 379 379 379 379 379 364 c 2,19,-1
 379 148 l 2,20,21
 379 133 379 133 364 133 c 2,22,-1
 148 133 l 2,23,24
 133 133 133 133 133 148 c 2,25,-1
 133 364 l 2,26,27
 133 379 133 379 148 379 c 2,16,-1
EndSplineSet
EndChar

StartChar: SW Up and Left
Encoding: 9497 9497 45
Width: 512
VWidth: 1024
GlyphClass: 2
Flags: W
LayerCount: 2
Fore
SplineSet
148 389 m 2,0,1
 138 389 138 389 130.5 381.5 c 128,-1,2
 123 374 123 374 123 364 c 2,3,-1
 123 148 l 2,4,5
 123 138 123 138 130.5 130.5 c 128,-1,6
 138 123 138 123 148 123 c 2,7,-1
 364 123 l 2,8,9
 374 123 374 123 381.5 130.5 c 128,-1,10
 389 138 389 138 389 148 c 2,11,-1
 389 364 l 2,12,13
 389 374 389 374 381.5 381.5 c 128,-1,14
 374 389 374 389 364 389 c 2,15,-1
 148 389 l 2,0,1
148 379 m 2,16,-1
 364 379 l 2,17,18
 379 379 379 379 379 364 c 2,19,-1
 379 148 l 2,20,21
 379 133 379 133 364 133 c 2,22,-1
 148 133 l 2,23,24
 133 133 133 133 133 148 c 2,25,-1
 133 364 l 2,26,27
 133 379 133 379 148 379 c 2,16,-1
EndSplineSet
EndChar

StartChar: NE Up and Left
Encoding: 9498 9498 46
Width: 512
VWidth: 1024
GlyphClass: 2
Flags: W
LayerCount: 2
Fore
SplineSet
148 389 m 2,0,1
 138 389 138 389 130.5 381.5 c 128,-1,2
 123 374 123 374 123 364 c 2,3,-1
 123 148 l 2,4,5
 123 138 123 138 130.5 130.5 c 128,-1,6
 138 123 138 123 148 123 c 2,7,-1
 364 123 l 2,8,9
 374 123 374 123 381.5 130.5 c 128,-1,10
 389 138 389 138 389 148 c 2,11,-1
 389 364 l 2,12,13
 389 374 389 374 381.5 381.5 c 128,-1,14
 374 389 374 389 364 389 c 2,15,-1
 148 389 l 2,0,1
148 379 m 2,16,-1
 364 379 l 2,17,18
 379 379 379 379 379 364 c 2,19,-1
 379 148 l 2,20,21
 379 133 379 133 364 133 c 2,22,-1
 148 133 l 2,23,24
 133 133 133 133 133 148 c 2,25,-1
 133 364 l 2,26,27
 133 379 133 379 148 379 c 2,16,-1
EndSplineSet
EndChar

StartChar: SE Up and Left
Encoding: 9499 9499 47
Width: 512
VWidth: 1024
GlyphClass: 2
Flags: W
LayerCount: 2
Fore
SplineSet
148 389 m 2,0,1
 138 389 138 389 130.5 381.5 c 128,-1,2
 123 374 123 374 123 364 c 2,3,-1
 123 148 l 2,4,5
 123 138 123 138 130.5 130.5 c 128,-1,6
 138 123 138 123 148 123 c 2,7,-1
 364 123 l 2,8,9
 374 123 374 123 381.5 130.5 c 128,-1,10
 389 138 389 138 389 148 c 2,11,-1
 389 364 l 2,12,13
 389 374 389 374 381.5 381.5 c 128,-1,14
 374 389 374 389 364 389 c 2,15,-1
 148 389 l 2,0,1
148 379 m 2,16,-1
 364 379 l 2,17,18
 379 379 379 379 379 364 c 2,19,-1
 379 148 l 2,20,21
 379 133 379 133 364 133 c 2,22,-1
 148 133 l 2,23,24
 133 133 133 133 133 148 c 2,25,-1
 133 364 l 2,26,27
 133 379 133 379 148 379 c 2,16,-1
EndSplineSet
EndChar

StartChar: NT Vertical and Right
Encoding: 9502 9502 48
Width: 512
VWidth: 1024
GlyphClass: 2
Flags: W
LayerCount: 2
Fore
SplineSet
148 389 m 2,0,1
 138 389 138 389 130.5 381.5 c 128,-1,2
 123 374 123 374 123 364 c 2,3,-1
 123 148 l 2,4,5
 123 138 123 138 130.5 130.5 c 128,-1,6
 138 123 138 123 148 123 c 2,7,-1
 364 123 l 2,8,9
 374 123 374 123 381.5 130.5 c 128,-1,10
 389 138 389 138 389 148 c 2,11,-1
 389 364 l 2,12,13
 389 374 389 374 381.5 381.5 c 128,-1,14
 374 389 374 389 364 389 c 2,15,-1
 148 389 l 2,0,1
148 379 m 2,16,-1
 364 379 l 2,17,18
 379 379 379 379 379 364 c 2,19,-1
 379 148 l 2,20,21
 379 133 379 133 364 133 c 2,22,-1
 148 133 l 2,23,24
 133 133 133 133 133 148 c 2,25,-1
 133 364 l 2,26,27
 133 379 133 379 148 379 c 2,16,-1
EndSplineSet
EndChar

StartChar: NB Vertical and Right
Encoding: 9503 9503 49
Width: 512
VWidth: 1024
GlyphClass: 2
Flags: W
LayerCount: 2
Fore
SplineSet
148 389 m 2,0,1
 138 389 138 389 130.5 381.5 c 128,-1,2
 123 374 123 374 123 364 c 2,3,-1
 123 148 l 2,4,5
 123 138 123 138 130.5 130.5 c 128,-1,6
 138 123 138 123 148 123 c 2,7,-1
 364 123 l 2,8,9
 374 123 374 123 381.5 130.5 c 128,-1,10
 389 138 389 138 389 148 c 2,11,-1
 389 364 l 2,12,13
 389 374 389 374 381.5 381.5 c 128,-1,14
 374 389 374 389 364 389 c 2,15,-1
 148 389 l 2,0,1
148 379 m 2,16,-1
 364 379 l 2,17,18
 379 379 379 379 379 364 c 2,19,-1
 379 148 l 2,20,21
 379 133 379 133 364 133 c 2,22,-1
 148 133 l 2,23,24
 133 133 133 133 133 148 c 2,25,-1
 133 364 l 2,26,27
 133 379 133 379 148 379 c 2,16,-1
EndSplineSet
EndChar

StartChar: NE Vertical and Right
Encoding: 9504 9504 50
Width: 512
VWidth: 1024
GlyphClass: 2
Flags: W
LayerCount: 2
Fore
SplineSet
148 389 m 2,0,1
 138 389 138 389 130.5 381.5 c 128,-1,2
 123 374 123 374 123 364 c 2,3,-1
 123 148 l 2,4,5
 123 138 123 138 130.5 130.5 c 128,-1,6
 138 123 138 123 148 123 c 2,7,-1
 364 123 l 2,8,9
 374 123 374 123 381.5 130.5 c 128,-1,10
 389 138 389 138 389 148 c 2,11,-1
 389 364 l 2,12,13
 389 374 389 374 381.5 381.5 c 128,-1,14
 374 389 374 389 364 389 c 2,15,-1
 148 389 l 2,0,1
148 379 m 2,16,-1
 364 379 l 2,17,18
 379 379 379 379 379 364 c 2,19,-1
 379 148 l 2,20,21
 379 133 379 133 364 133 c 2,22,-1
 148 133 l 2,23,24
 133 133 133 133 133 148 c 2,25,-1
 133 364 l 2,26,27
 133 379 133 379 148 379 c 2,16,-1
EndSplineSet
EndChar

StartChar: ST Vertical and Right
Encoding: 9505 9505 51
Width: 512
VWidth: 1024
GlyphClass: 2
Flags: W
LayerCount: 2
Fore
SplineSet
148 389 m 2,0,1
 138 389 138 389 130.5 381.5 c 128,-1,2
 123 374 123 374 123 364 c 2,3,-1
 123 148 l 2,4,5
 123 138 123 138 130.5 130.5 c 128,-1,6
 138 123 138 123 148 123 c 2,7,-1
 364 123 l 2,8,9
 374 123 374 123 381.5 130.5 c 128,-1,10
 389 138 389 138 389 148 c 2,11,-1
 389 364 l 2,12,13
 389 374 389 374 381.5 381.5 c 128,-1,14
 374 389 374 389 364 389 c 2,15,-1
 148 389 l 2,0,1
148 379 m 2,16,-1
 364 379 l 2,17,18
 379 379 379 379 379 364 c 2,19,-1
 379 148 l 2,20,21
 379 133 379 133 364 133 c 2,22,-1
 148 133 l 2,23,24
 133 133 133 133 133 148 c 2,25,-1
 133 364 l 2,26,27
 133 379 133 379 148 379 c 2,16,-1
EndSplineSet
EndChar

StartChar: SB Vertical and Right
Encoding: 9506 9506 52
Width: 512
VWidth: 1024
GlyphClass: 2
Flags: W
LayerCount: 2
Fore
SplineSet
148 389 m 2,0,1
 138 389 138 389 130.5 381.5 c 128,-1,2
 123 374 123 374 123 364 c 2,3,-1
 123 148 l 2,4,5
 123 138 123 138 130.5 130.5 c 128,-1,6
 138 123 138 123 148 123 c 2,7,-1
 364 123 l 2,8,9
 374 123 374 123 381.5 130.5 c 128,-1,10
 389 138 389 138 389 148 c 2,11,-1
 389 364 l 2,12,13
 389 374 389 374 381.5 381.5 c 128,-1,14
 374 389 374 389 364 389 c 2,15,-1
 148 389 l 2,0,1
148 379 m 2,16,-1
 364 379 l 2,17,18
 379 379 379 379 379 364 c 2,19,-1
 379 148 l 2,20,21
 379 133 379 133 364 133 c 2,22,-1
 148 133 l 2,23,24
 133 133 133 133 133 148 c 2,25,-1
 133 364 l 2,26,27
 133 379 133 379 148 379 c 2,16,-1
EndSplineSet
EndChar

StartChar: SE Vertical and RIght
Encoding: 9507 9507 53
Width: 512
VWidth: 1024
GlyphClass: 2
Flags: W
LayerCount: 2
Fore
SplineSet
148 389 m 2,0,1
 138 389 138 389 130.5 381.5 c 128,-1,2
 123 374 123 374 123 364 c 2,3,-1
 123 148 l 2,4,5
 123 138 123 138 130.5 130.5 c 128,-1,6
 138 123 138 123 148 123 c 2,7,-1
 364 123 l 2,8,9
 374 123 374 123 381.5 130.5 c 128,-1,10
 389 138 389 138 389 148 c 2,11,-1
 389 364 l 2,12,13
 389 374 389 374 381.5 381.5 c 128,-1,14
 374 389 374 389 364 389 c 2,15,-1
 148 389 l 2,0,1
148 379 m 2,16,-1
 364 379 l 2,17,18
 379 379 379 379 379 364 c 2,19,-1
 379 148 l 2,20,21
 379 133 379 133 364 133 c 2,22,-1
 148 133 l 2,23,24
 133 133 133 133 133 148 c 2,25,-1
 133 364 l 2,26,27
 133 379 133 379 148 379 c 2,16,-1
EndSplineSet
EndChar

StartChar: NW Vertical and Left
Encoding: 9508 9508 54
Width: 512
VWidth: 1024
GlyphClass: 2
Flags: W
LayerCount: 2
Fore
SplineSet
148 389 m 2,0,1
 138 389 138 389 130.5 381.5 c 128,-1,2
 123 374 123 374 123 364 c 2,3,-1
 123 148 l 2,4,5
 123 138 123 138 130.5 130.5 c 128,-1,6
 138 123 138 123 148 123 c 2,7,-1
 364 123 l 2,8,9
 374 123 374 123 381.5 130.5 c 128,-1,10
 389 138 389 138 389 148 c 2,11,-1
 389 364 l 2,12,13
 389 374 389 374 381.5 381.5 c 128,-1,14
 374 389 374 389 364 389 c 2,15,-1
 148 389 l 2,0,1
148 379 m 2,16,-1
 364 379 l 2,17,18
 379 379 379 379 379 364 c 2,19,-1
 379 148 l 2,20,21
 379 133 379 133 364 133 c 2,22,-1
 148 133 l 2,23,24
 133 133 133 133 133 148 c 2,25,-1
 133 364 l 2,26,27
 133 379 133 379 148 379 c 2,16,-1
EndSplineSet
EndChar

StartChar: SW Vertical and Left
Encoding: 9509 9509 55
Width: 512
VWidth: 1024
GlyphClass: 2
Flags: W
LayerCount: 2
Fore
SplineSet
148 389 m 2,0,1
 138 389 138 389 130.5 381.5 c 128,-1,2
 123 374 123 374 123 364 c 2,3,-1
 123 148 l 2,4,5
 123 138 123 138 130.5 130.5 c 128,-1,6
 138 123 138 123 148 123 c 2,7,-1
 364 123 l 2,8,9
 374 123 374 123 381.5 130.5 c 128,-1,10
 389 138 389 138 389 148 c 2,11,-1
 389 364 l 2,12,13
 389 374 389 374 381.5 381.5 c 128,-1,14
 374 389 374 389 364 389 c 2,15,-1
 148 389 l 2,0,1
148 379 m 2,16,-1
 364 379 l 2,17,18
 379 379 379 379 379 364 c 2,19,-1
 379 148 l 2,20,21
 379 133 379 133 364 133 c 2,22,-1
 148 133 l 2,23,24
 133 133 133 133 133 148 c 2,25,-1
 133 364 l 2,26,27
 133 379 133 379 148 379 c 2,16,-1
EndSplineSet
EndChar

StartChar: NT Vertical and Left
Encoding: 9510 9510 56
Width: 512
VWidth: 1024
GlyphClass: 2
Flags: W
LayerCount: 2
Fore
SplineSet
148 389 m 2,0,1
 138 389 138 389 130.5 381.5 c 128,-1,2
 123 374 123 374 123 364 c 2,3,-1
 123 148 l 2,4,5
 123 138 123 138 130.5 130.5 c 128,-1,6
 138 123 138 123 148 123 c 2,7,-1
 364 123 l 2,8,9
 374 123 374 123 381.5 130.5 c 128,-1,10
 389 138 389 138 389 148 c 2,11,-1
 389 364 l 2,12,13
 389 374 389 374 381.5 381.5 c 128,-1,14
 374 389 374 389 364 389 c 2,15,-1
 148 389 l 2,0,1
148 379 m 2,16,-1
 364 379 l 2,17,18
 379 379 379 379 379 364 c 2,19,-1
 379 148 l 2,20,21
 379 133 379 133 364 133 c 2,22,-1
 148 133 l 2,23,24
 133 133 133 133 133 148 c 2,25,-1
 133 364 l 2,26,27
 133 379 133 379 148 379 c 2,16,-1
EndSplineSet
EndChar

StartChar: NB Vertical and Left
Encoding: 9511 9511 57
Width: 512
VWidth: 1024
GlyphClass: 2
Flags: W
LayerCount: 2
Fore
SplineSet
148 389 m 2,0,1
 138 389 138 389 130.5 381.5 c 128,-1,2
 123 374 123 374 123 364 c 2,3,-1
 123 148 l 2,4,5
 123 138 123 138 130.5 130.5 c 128,-1,6
 138 123 138 123 148 123 c 2,7,-1
 364 123 l 2,8,9
 374 123 374 123 381.5 130.5 c 128,-1,10
 389 138 389 138 389 148 c 2,11,-1
 389 364 l 2,12,13
 389 374 389 374 381.5 381.5 c 128,-1,14
 374 389 374 389 364 389 c 2,15,-1
 148 389 l 2,0,1
148 379 m 2,16,-1
 364 379 l 2,17,18
 379 379 379 379 379 364 c 2,19,-1
 379 148 l 2,20,21
 379 133 379 133 364 133 c 2,22,-1
 148 133 l 2,23,24
 133 133 133 133 133 148 c 2,25,-1
 133 364 l 2,26,27
 133 379 133 379 148 379 c 2,16,-1
EndSplineSet
EndChar

StartChar: ST Vertical and Left
Encoding: 9513 9513 58
Width: 512
VWidth: 1024
GlyphClass: 2
Flags: W
LayerCount: 2
Fore
SplineSet
148 389 m 2,0,1
 138 389 138 389 130.5 381.5 c 128,-1,2
 123 374 123 374 123 364 c 2,3,-1
 123 148 l 2,4,5
 123 138 123 138 130.5 130.5 c 128,-1,6
 138 123 138 123 148 123 c 2,7,-1
 364 123 l 2,8,9
 374 123 374 123 381.5 130.5 c 128,-1,10
 389 138 389 138 389 148 c 2,11,-1
 389 364 l 2,12,13
 389 374 389 374 381.5 381.5 c 128,-1,14
 374 389 374 389 364 389 c 2,15,-1
 148 389 l 2,0,1
148 379 m 2,16,-1
 364 379 l 2,17,18
 379 379 379 379 379 364 c 2,19,-1
 379 148 l 2,20,21
 379 133 379 133 364 133 c 2,22,-1
 148 133 l 2,23,24
 133 133 133 133 133 148 c 2,25,-1
 133 364 l 2,26,27
 133 379 133 379 148 379 c 2,16,-1
EndSplineSet
EndChar

StartChar: SB Vertical and Left
Encoding: 9514 9514 59
Width: 512
VWidth: 1024
GlyphClass: 2
Flags: W
LayerCount: 2
Fore
SplineSet
148 389 m 2,0,1
 138 389 138 389 130.5 381.5 c 128,-1,2
 123 374 123 374 123 364 c 2,3,-1
 123 148 l 2,4,5
 123 138 123 138 130.5 130.5 c 128,-1,6
 138 123 138 123 148 123 c 2,7,-1
 364 123 l 2,8,9
 374 123 374 123 381.5 130.5 c 128,-1,10
 389 138 389 138 389 148 c 2,11,-1
 389 364 l 2,12,13
 389 374 389 374 381.5 381.5 c 128,-1,14
 374 389 374 389 364 389 c 2,15,-1
 148 389 l 2,0,1
148 379 m 2,16,-1
 364 379 l 2,17,18
 379 379 379 379 379 364 c 2,19,-1
 379 148 l 2,20,21
 379 133 379 133 364 133 c 2,22,-1
 148 133 l 2,23,24
 133 133 133 133 133 148 c 2,25,-1
 133 364 l 2,26,27
 133 379 133 379 148 379 c 2,16,-1
EndSplineSet
EndChar

StartChar: TW Down and Horizontal
Encoding: 9517 9517 60
Width: 512
VWidth: 1024
GlyphClass: 2
Flags: W
LayerCount: 2
Fore
SplineSet
148 389 m 2,0,1
 138 389 138 389 130.5 381.5 c 128,-1,2
 123 374 123 374 123 364 c 2,3,-1
 123 148 l 2,4,5
 123 138 123 138 130.5 130.5 c 128,-1,6
 138 123 138 123 148 123 c 2,7,-1
 364 123 l 2,8,9
 374 123 374 123 381.5 130.5 c 128,-1,10
 389 138 389 138 389 148 c 2,11,-1
 389 364 l 2,12,13
 389 374 389 374 381.5 381.5 c 128,-1,14
 374 389 374 389 364 389 c 2,15,-1
 148 389 l 2,0,1
148 379 m 2,16,-1
 364 379 l 2,17,18
 379 379 379 379 379 364 c 2,19,-1
 379 148 l 2,20,21
 379 133 379 133 364 133 c 2,22,-1
 148 133 l 2,23,24
 133 133 133 133 133 148 c 2,25,-1
 133 364 l 2,26,27
 133 379 133 379 148 379 c 2,16,-1
EndSplineSet
EndChar

StartChar: BW Down and Horizontal
Encoding: 9518 9518 61
Width: 512
VWidth: 1024
GlyphClass: 2
Flags: W
LayerCount: 2
Fore
SplineSet
148 389 m 2,0,1
 138 389 138 389 130.5 381.5 c 128,-1,2
 123 374 123 374 123 364 c 2,3,-1
 123 148 l 2,4,5
 123 138 123 138 130.5 130.5 c 128,-1,6
 138 123 138 123 148 123 c 2,7,-1
 364 123 l 2,8,9
 374 123 374 123 381.5 130.5 c 128,-1,10
 389 138 389 138 389 148 c 2,11,-1
 389 364 l 2,12,13
 389 374 389 374 381.5 381.5 c 128,-1,14
 374 389 374 389 364 389 c 2,15,-1
 148 389 l 2,0,1
148 379 m 2,16,-1
 364 379 l 2,17,18
 379 379 379 379 379 364 c 2,19,-1
 379 148 l 2,20,21
 379 133 379 133 364 133 c 2,22,-1
 148 133 l 2,23,24
 133 133 133 133 133 148 c 2,25,-1
 133 364 l 2,26,27
 133 379 133 379 148 379 c 2,16,-1
EndSplineSet
EndChar

StartChar: SW Down and Horizontal
Encoding: 9519 9519 62
Width: 512
VWidth: 1024
GlyphClass: 2
Flags: W
LayerCount: 2
Fore
SplineSet
148 389 m 2,0,1
 138 389 138 389 130.5 381.5 c 128,-1,2
 123 374 123 374 123 364 c 2,3,-1
 123 148 l 2,4,5
 123 138 123 138 130.5 130.5 c 128,-1,6
 138 123 138 123 148 123 c 2,7,-1
 364 123 l 2,8,9
 374 123 374 123 381.5 130.5 c 128,-1,10
 389 138 389 138 389 148 c 2,11,-1
 389 364 l 2,12,13
 389 374 389 374 381.5 381.5 c 128,-1,14
 374 389 374 389 364 389 c 2,15,-1
 148 389 l 2,0,1
148 379 m 2,16,-1
 364 379 l 2,17,18
 379 379 379 379 379 364 c 2,19,-1
 379 148 l 2,20,21
 379 133 379 133 364 133 c 2,22,-1
 148 133 l 2,23,24
 133 133 133 133 133 148 c 2,25,-1
 133 364 l 2,26,27
 133 379 133 379 148 379 c 2,16,-1
EndSplineSet
EndChar

StartChar: TE Down and Horizontal
Encoding: 9521 9521 63
Width: 512
VWidth: 1024
GlyphClass: 2
Flags: W
LayerCount: 2
Fore
SplineSet
148 389 m 2,0,1
 138 389 138 389 130.5 381.5 c 128,-1,2
 123 374 123 374 123 364 c 2,3,-1
 123 148 l 2,4,5
 123 138 123 138 130.5 130.5 c 128,-1,6
 138 123 138 123 148 123 c 2,7,-1
 364 123 l 2,8,9
 374 123 374 123 381.5 130.5 c 128,-1,10
 389 138 389 138 389 148 c 2,11,-1
 389 364 l 2,12,13
 389 374 389 374 381.5 381.5 c 128,-1,14
 374 389 374 389 364 389 c 2,15,-1
 148 389 l 2,0,1
148 379 m 2,16,-1
 364 379 l 2,17,18
 379 379 379 379 379 364 c 2,19,-1
 379 148 l 2,20,21
 379 133 379 133 364 133 c 2,22,-1
 148 133 l 2,23,24
 133 133 133 133 133 148 c 2,25,-1
 133 364 l 2,26,27
 133 379 133 379 148 379 c 2,16,-1
EndSplineSet
EndChar

StartChar: BE Down and Horizontal
Encoding: 9522 9522 64
Width: 512
VWidth: 1024
GlyphClass: 2
Flags: W
LayerCount: 2
Fore
SplineSet
148 389 m 2,0,1
 138 389 138 389 130.5 381.5 c 128,-1,2
 123 374 123 374 123 364 c 2,3,-1
 123 148 l 2,4,5
 123 138 123 138 130.5 130.5 c 128,-1,6
 138 123 138 123 148 123 c 2,7,-1
 364 123 l 2,8,9
 374 123 374 123 381.5 130.5 c 128,-1,10
 389 138 389 138 389 148 c 2,11,-1
 389 364 l 2,12,13
 389 374 389 374 381.5 381.5 c 128,-1,14
 374 389 374 389 364 389 c 2,15,-1
 148 389 l 2,0,1
148 379 m 2,16,-1
 364 379 l 2,17,18
 379 379 379 379 379 364 c 2,19,-1
 379 148 l 2,20,21
 379 133 379 133 364 133 c 2,22,-1
 148 133 l 2,23,24
 133 133 133 133 133 148 c 2,25,-1
 133 364 l 2,26,27
 133 379 133 379 148 379 c 2,16,-1
EndSplineSet
EndChar

StartChar: SE Down and Horizontal
Encoding: 9523 9523 65
Width: 512
VWidth: 1024
GlyphClass: 2
Flags: W
LayerCount: 2
Fore
SplineSet
148 389 m 2,0,1
 138 389 138 389 130.5 381.5 c 128,-1,2
 123 374 123 374 123 364 c 2,3,-1
 123 148 l 2,4,5
 123 138 123 138 130.5 130.5 c 128,-1,6
 138 123 138 123 148 123 c 2,7,-1
 364 123 l 2,8,9
 374 123 374 123 381.5 130.5 c 128,-1,10
 389 138 389 138 389 148 c 2,11,-1
 389 364 l 2,12,13
 389 374 389 374 381.5 381.5 c 128,-1,14
 374 389 374 389 364 389 c 2,15,-1
 148 389 l 2,0,1
148 379 m 2,16,-1
 364 379 l 2,17,18
 379 379 379 379 379 364 c 2,19,-1
 379 148 l 2,20,21
 379 133 379 133 364 133 c 2,22,-1
 148 133 l 2,23,24
 133 133 133 133 133 148 c 2,25,-1
 133 364 l 2,26,27
 133 379 133 379 148 379 c 2,16,-1
EndSplineSet
EndChar

StartChar: NW Up and Horizontal
Encoding: 9524 9524 66
Width: 512
VWidth: 1024
GlyphClass: 2
Flags: W
LayerCount: 2
Fore
SplineSet
148 389 m 2,0,1
 138 389 138 389 130.5 381.5 c 128,-1,2
 123 374 123 374 123 364 c 2,3,-1
 123 148 l 2,4,5
 123 138 123 138 130.5 130.5 c 128,-1,6
 138 123 138 123 148 123 c 2,7,-1
 364 123 l 2,8,9
 374 123 374 123 381.5 130.5 c 128,-1,10
 389 138 389 138 389 148 c 2,11,-1
 389 364 l 2,12,13
 389 374 389 374 381.5 381.5 c 128,-1,14
 374 389 374 389 364 389 c 2,15,-1
 148 389 l 2,0,1
148 379 m 2,16,-1
 364 379 l 2,17,18
 379 379 379 379 379 364 c 2,19,-1
 379 148 l 2,20,21
 379 133 379 133 364 133 c 2,22,-1
 148 133 l 2,23,24
 133 133 133 133 133 148 c 2,25,-1
 133 364 l 2,26,27
 133 379 133 379 148 379 c 2,16,-1
EndSplineSet
EndChar

StartChar: TW Up and Horizontal
Encoding: 9525 9525 67
Width: 512
VWidth: 1024
GlyphClass: 2
Flags: W
LayerCount: 2
Fore
SplineSet
148 389 m 2,0,1
 138 389 138 389 130.5 381.5 c 128,-1,2
 123 374 123 374 123 364 c 2,3,-1
 123 148 l 2,4,5
 123 138 123 138 130.5 130.5 c 128,-1,6
 138 123 138 123 148 123 c 2,7,-1
 364 123 l 2,8,9
 374 123 374 123 381.5 130.5 c 128,-1,10
 389 138 389 138 389 148 c 2,11,-1
 389 364 l 2,12,13
 389 374 389 374 381.5 381.5 c 128,-1,14
 374 389 374 389 364 389 c 2,15,-1
 148 389 l 2,0,1
148 379 m 2,16,-1
 364 379 l 2,17,18
 379 379 379 379 379 364 c 2,19,-1
 379 148 l 2,20,21
 379 133 379 133 364 133 c 2,22,-1
 148 133 l 2,23,24
 133 133 133 133 133 148 c 2,25,-1
 133 364 l 2,26,27
 133 379 133 379 148 379 c 2,16,-1
EndSplineSet
EndChar

StartChar: BW Up and Horizontal
Encoding: 9526 9526 68
Width: 512
VWidth: 1024
GlyphClass: 2
Flags: W
LayerCount: 2
Fore
SplineSet
148 389 m 2,0,1
 138 389 138 389 130.5 381.5 c 128,-1,2
 123 374 123 374 123 364 c 2,3,-1
 123 148 l 2,4,5
 123 138 123 138 130.5 130.5 c 128,-1,6
 138 123 138 123 148 123 c 2,7,-1
 364 123 l 2,8,9
 374 123 374 123 381.5 130.5 c 128,-1,10
 389 138 389 138 389 148 c 2,11,-1
 389 364 l 2,12,13
 389 374 389 374 381.5 381.5 c 128,-1,14
 374 389 374 389 364 389 c 2,15,-1
 148 389 l 2,0,1
148 379 m 2,16,-1
 364 379 l 2,17,18
 379 379 379 379 379 364 c 2,19,-1
 379 148 l 2,20,21
 379 133 379 133 364 133 c 2,22,-1
 148 133 l 2,23,24
 133 133 133 133 133 148 c 2,25,-1
 133 364 l 2,26,27
 133 379 133 379 148 379 c 2,16,-1
EndSplineSet
EndChar

StartChar: NE Up and Horizontal
Encoding: 9528 9528 69
Width: 512
VWidth: 1024
GlyphClass: 2
Flags: W
LayerCount: 2
Fore
SplineSet
148 389 m 2,0,1
 138 389 138 389 130.5 381.5 c 128,-1,2
 123 374 123 374 123 364 c 2,3,-1
 123 148 l 2,4,5
 123 138 123 138 130.5 130.5 c 128,-1,6
 138 123 138 123 148 123 c 2,7,-1
 364 123 l 2,8,9
 374 123 374 123 381.5 130.5 c 128,-1,10
 389 138 389 138 389 148 c 2,11,-1
 389 364 l 2,12,13
 389 374 389 374 381.5 381.5 c 128,-1,14
 374 389 374 389 364 389 c 2,15,-1
 148 389 l 2,0,1
148 379 m 2,16,-1
 364 379 l 2,17,18
 379 379 379 379 379 364 c 2,19,-1
 379 148 l 2,20,21
 379 133 379 133 364 133 c 2,22,-1
 148 133 l 2,23,24
 133 133 133 133 133 148 c 2,25,-1
 133 364 l 2,26,27
 133 379 133 379 148 379 c 2,16,-1
EndSplineSet
EndChar

StartChar: TE Up and Horizontal
Encoding: 9529 9529 70
Width: 512
VWidth: 1024
GlyphClass: 2
Flags: W
LayerCount: 2
Fore
SplineSet
148 389 m 2,0,1
 138 389 138 389 130.5 381.5 c 128,-1,2
 123 374 123 374 123 364 c 2,3,-1
 123 148 l 2,4,5
 123 138 123 138 130.5 130.5 c 128,-1,6
 138 123 138 123 148 123 c 2,7,-1
 364 123 l 2,8,9
 374 123 374 123 381.5 130.5 c 128,-1,10
 389 138 389 138 389 148 c 2,11,-1
 389 364 l 2,12,13
 389 374 389 374 381.5 381.5 c 128,-1,14
 374 389 374 389 364 389 c 2,15,-1
 148 389 l 2,0,1
148 379 m 2,16,-1
 364 379 l 2,17,18
 379 379 379 379 379 364 c 2,19,-1
 379 148 l 2,20,21
 379 133 379 133 364 133 c 2,22,-1
 148 133 l 2,23,24
 133 133 133 133 133 148 c 2,25,-1
 133 364 l 2,26,27
 133 379 133 379 148 379 c 2,16,-1
EndSplineSet
EndChar

StartChar: BE Up and Horizontal
Encoding: 9530 9530 71
Width: 512
VWidth: 1024
GlyphClass: 2
Flags: W
LayerCount: 2
Fore
SplineSet
148 389 m 2,0,1
 138 389 138 389 130.5 381.5 c 128,-1,2
 123 374 123 374 123 364 c 2,3,-1
 123 148 l 2,4,5
 123 138 123 138 130.5 130.5 c 128,-1,6
 138 123 138 123 148 123 c 2,7,-1
 364 123 l 2,8,9
 374 123 374 123 381.5 130.5 c 128,-1,10
 389 138 389 138 389 148 c 2,11,-1
 389 364 l 2,12,13
 389 374 389 374 381.5 381.5 c 128,-1,14
 374 389 374 389 364 389 c 2,15,-1
 148 389 l 2,0,1
148 379 m 2,16,-1
 364 379 l 2,17,18
 379 379 379 379 379 364 c 2,19,-1
 379 148 l 2,20,21
 379 133 379 133 364 133 c 2,22,-1
 148 133 l 2,23,24
 133 133 133 133 133 148 c 2,25,-1
 133 364 l 2,26,27
 133 379 133 379 148 379 c 2,16,-1
EndSplineSet
EndChar

StartChar: NW Vertical and Horizontal
Encoding: 9532 9532 72
Width: 512
VWidth: 1024
GlyphClass: 2
Flags: W
LayerCount: 2
Fore
SplineSet
148 389 m 2,0,1
 138 389 138 389 130.5 381.5 c 128,-1,2
 123 374 123 374 123 364 c 2,3,-1
 123 148 l 2,4,5
 123 138 123 138 130.5 130.5 c 128,-1,6
 138 123 138 123 148 123 c 2,7,-1
 364 123 l 2,8,9
 374 123 374 123 381.5 130.5 c 128,-1,10
 389 138 389 138 389 148 c 2,11,-1
 389 364 l 2,12,13
 389 374 389 374 381.5 381.5 c 128,-1,14
 374 389 374 389 364 389 c 2,15,-1
 148 389 l 2,0,1
148 379 m 2,16,-1
 364 379 l 2,17,18
 379 379 379 379 379 364 c 2,19,-1
 379 148 l 2,20,21
 379 133 379 133 364 133 c 2,22,-1
 148 133 l 2,23,24
 133 133 133 133 133 148 c 2,25,-1
 133 364 l 2,26,27
 133 379 133 379 148 379 c 2,16,-1
EndSplineSet
EndChar

StartChar: TW Vertical and Horizontal
Encoding: 9533 9533 73
Width: 512
VWidth: 1024
GlyphClass: 2
Flags: W
LayerCount: 2
Fore
SplineSet
148 389 m 2,0,1
 138 389 138 389 130.5 381.5 c 128,-1,2
 123 374 123 374 123 364 c 2,3,-1
 123 148 l 2,4,5
 123 138 123 138 130.5 130.5 c 128,-1,6
 138 123 138 123 148 123 c 2,7,-1
 364 123 l 2,8,9
 374 123 374 123 381.5 130.5 c 128,-1,10
 389 138 389 138 389 148 c 2,11,-1
 389 364 l 2,12,13
 389 374 389 374 381.5 381.5 c 128,-1,14
 374 389 374 389 364 389 c 2,15,-1
 148 389 l 2,0,1
148 379 m 2,16,-1
 364 379 l 2,17,18
 379 379 379 379 379 364 c 2,19,-1
 379 148 l 2,20,21
 379 133 379 133 364 133 c 2,22,-1
 148 133 l 2,23,24
 133 133 133 133 133 148 c 2,25,-1
 133 364 l 2,26,27
 133 379 133 379 148 379 c 2,16,-1
EndSplineSet
EndChar

StartChar: BW Vertical and Horizontal
Encoding: 9534 9534 74
Width: 512
VWidth: 1024
GlyphClass: 2
Flags: W
LayerCount: 2
Fore
SplineSet
148 389 m 2,0,1
 138 389 138 389 130.5 381.5 c 128,-1,2
 123 374 123 374 123 364 c 2,3,-1
 123 148 l 2,4,5
 123 138 123 138 130.5 130.5 c 128,-1,6
 138 123 138 123 148 123 c 2,7,-1
 364 123 l 2,8,9
 374 123 374 123 381.5 130.5 c 128,-1,10
 389 138 389 138 389 148 c 2,11,-1
 389 364 l 2,12,13
 389 374 389 374 381.5 381.5 c 128,-1,14
 374 389 374 389 364 389 c 2,15,-1
 148 389 l 2,0,1
148 379 m 2,16,-1
 364 379 l 2,17,18
 379 379 379 379 379 364 c 2,19,-1
 379 148 l 2,20,21
 379 133 379 133 364 133 c 2,22,-1
 148 133 l 2,23,24
 133 133 133 133 133 148 c 2,25,-1
 133 364 l 2,26,27
 133 379 133 379 148 379 c 2,16,-1
EndSplineSet
EndChar

StartChar: SW Vertical and Horizontal
Encoding: 9535 9535 75
Width: 512
VWidth: 1024
GlyphClass: 2
Flags: W
LayerCount: 2
Fore
SplineSet
148 389 m 2,0,1
 138 389 138 389 130.5 381.5 c 128,-1,2
 123 374 123 374 123 364 c 2,3,-1
 123 148 l 2,4,5
 123 138 123 138 130.5 130.5 c 128,-1,6
 138 123 138 123 148 123 c 2,7,-1
 364 123 l 2,8,9
 374 123 374 123 381.5 130.5 c 128,-1,10
 389 138 389 138 389 148 c 2,11,-1
 389 364 l 2,12,13
 389 374 389 374 381.5 381.5 c 128,-1,14
 374 389 374 389 364 389 c 2,15,-1
 148 389 l 2,0,1
148 379 m 2,16,-1
 364 379 l 2,17,18
 379 379 379 379 379 364 c 2,19,-1
 379 148 l 2,20,21
 379 133 379 133 364 133 c 2,22,-1
 148 133 l 2,23,24
 133 133 133 133 133 148 c 2,25,-1
 133 364 l 2,26,27
 133 379 133 379 148 379 c 2,16,-1
EndSplineSet
EndChar

StartChar: NT Vertical and Horizontal
Encoding: 9536 9536 76
Width: 512
VWidth: 1024
GlyphClass: 2
Flags: W
LayerCount: 2
Fore
SplineSet
148 389 m 2,0,1
 138 389 138 389 130.5 381.5 c 128,-1,2
 123 374 123 374 123 364 c 2,3,-1
 123 148 l 2,4,5
 123 138 123 138 130.5 130.5 c 128,-1,6
 138 123 138 123 148 123 c 2,7,-1
 364 123 l 2,8,9
 374 123 374 123 381.5 130.5 c 128,-1,10
 389 138 389 138 389 148 c 2,11,-1
 389 364 l 2,12,13
 389 374 389 374 381.5 381.5 c 128,-1,14
 374 389 374 389 364 389 c 2,15,-1
 148 389 l 2,0,1
148 379 m 2,16,-1
 364 379 l 2,17,18
 379 379 379 379 379 364 c 2,19,-1
 379 148 l 2,20,21
 379 133 379 133 364 133 c 2,22,-1
 148 133 l 2,23,24
 133 133 133 133 133 148 c 2,25,-1
 133 364 l 2,26,27
 133 379 133 379 148 379 c 2,16,-1
EndSplineSet
EndChar

StartChar: NB Vertical and Horizontal
Encoding: 9537 9537 77
Width: 512
VWidth: 1024
GlyphClass: 2
Flags: W
LayerCount: 2
Fore
SplineSet
148 389 m 2,0,1
 138 389 138 389 130.5 381.5 c 128,-1,2
 123 374 123 374 123 364 c 2,3,-1
 123 148 l 2,4,5
 123 138 123 138 130.5 130.5 c 128,-1,6
 138 123 138 123 148 123 c 2,7,-1
 364 123 l 2,8,9
 374 123 374 123 381.5 130.5 c 128,-1,10
 389 138 389 138 389 148 c 2,11,-1
 389 364 l 2,12,13
 389 374 389 374 381.5 381.5 c 128,-1,14
 374 389 374 389 364 389 c 2,15,-1
 148 389 l 2,0,1
148 379 m 2,16,-1
 364 379 l 2,17,18
 379 379 379 379 379 364 c 2,19,-1
 379 148 l 2,20,21
 379 133 379 133 364 133 c 2,22,-1
 148 133 l 2,23,24
 133 133 133 133 133 148 c 2,25,-1
 133 364 l 2,26,27
 133 379 133 379 148 379 c 2,16,-1
EndSplineSet
EndChar

StartChar: NE Vertical and Horizontal
Encoding: 9538 9538 78
Width: 512
VWidth: 1024
GlyphClass: 2
Flags: W
LayerCount: 2
Fore
SplineSet
148 389 m 2,0,1
 138 389 138 389 130.5 381.5 c 128,-1,2
 123 374 123 374 123 364 c 2,3,-1
 123 148 l 2,4,5
 123 138 123 138 130.5 130.5 c 128,-1,6
 138 123 138 123 148 123 c 2,7,-1
 364 123 l 2,8,9
 374 123 374 123 381.5 130.5 c 128,-1,10
 389 138 389 138 389 148 c 2,11,-1
 389 364 l 2,12,13
 389 374 389 374 381.5 381.5 c 128,-1,14
 374 389 374 389 364 389 c 2,15,-1
 148 389 l 2,0,1
148 379 m 2,16,-1
 364 379 l 2,17,18
 379 379 379 379 379 364 c 2,19,-1
 379 148 l 2,20,21
 379 133 379 133 364 133 c 2,22,-1
 148 133 l 2,23,24
 133 133 133 133 133 148 c 2,25,-1
 133 364 l 2,26,27
 133 379 133 379 148 379 c 2,16,-1
EndSplineSet
EndChar

StartChar: TT Vertical and Horizontal
Encoding: 9539 9539 79
Width: 512
VWidth: 1024
GlyphClass: 2
Flags: W
LayerCount: 2
Fore
SplineSet
148 389 m 2,0,1
 138 389 138 389 130.5 381.5 c 128,-1,2
 123 374 123 374 123 364 c 2,3,-1
 123 148 l 2,4,5
 123 138 123 138 130.5 130.5 c 128,-1,6
 138 123 138 123 148 123 c 2,7,-1
 364 123 l 2,8,9
 374 123 374 123 381.5 130.5 c 128,-1,10
 389 138 389 138 389 148 c 2,11,-1
 389 364 l 2,12,13
 389 374 389 374 381.5 381.5 c 128,-1,14
 374 389 374 389 364 389 c 2,15,-1
 148 389 l 2,0,1
148 379 m 2,16,-1
 364 379 l 2,17,18
 379 379 379 379 379 364 c 2,19,-1
 379 148 l 2,20,21
 379 133 379 133 364 133 c 2,22,-1
 148 133 l 2,23,24
 133 133 133 133 133 148 c 2,25,-1
 133 364 l 2,26,27
 133 379 133 379 148 379 c 2,16,-1
EndSplineSet
EndChar

StartChar: BT Vertical and Horizontal
Encoding: 9540 9540 80
Width: 512
VWidth: 1024
GlyphClass: 2
Flags: W
LayerCount: 2
Fore
SplineSet
148 389 m 2,0,1
 138 389 138 389 130.5 381.5 c 128,-1,2
 123 374 123 374 123 364 c 2,3,-1
 123 148 l 2,4,5
 123 138 123 138 130.5 130.5 c 128,-1,6
 138 123 138 123 148 123 c 2,7,-1
 364 123 l 2,8,9
 374 123 374 123 381.5 130.5 c 128,-1,10
 389 138 389 138 389 148 c 2,11,-1
 389 364 l 2,12,13
 389 374 389 374 381.5 381.5 c 128,-1,14
 374 389 374 389 364 389 c 2,15,-1
 148 389 l 2,0,1
148 379 m 2,16,-1
 364 379 l 2,17,18
 379 379 379 379 379 364 c 2,19,-1
 379 148 l 2,20,21
 379 133 379 133 364 133 c 2,22,-1
 148 133 l 2,23,24
 133 133 133 133 133 148 c 2,25,-1
 133 364 l 2,26,27
 133 379 133 379 148 379 c 2,16,-1
EndSplineSet
EndChar

StartChar: TB Vertical and Horizontal
Encoding: 9541 9541 81
Width: 512
VWidth: 1024
GlyphClass: 2
Flags: W
LayerCount: 2
Fore
SplineSet
148 389 m 2,0,1
 138 389 138 389 130.5 381.5 c 128,-1,2
 123 374 123 374 123 364 c 2,3,-1
 123 148 l 2,4,5
 123 138 123 138 130.5 130.5 c 128,-1,6
 138 123 138 123 148 123 c 2,7,-1
 364 123 l 2,8,9
 374 123 374 123 381.5 130.5 c 128,-1,10
 389 138 389 138 389 148 c 2,11,-1
 389 364 l 2,12,13
 389 374 389 374 381.5 381.5 c 128,-1,14
 374 389 374 389 364 389 c 2,15,-1
 148 389 l 2,0,1
148 379 m 2,16,-1
 364 379 l 2,17,18
 379 379 379 379 379 364 c 2,19,-1
 379 148 l 2,20,21
 379 133 379 133 364 133 c 2,22,-1
 148 133 l 2,23,24
 133 133 133 133 133 148 c 2,25,-1
 133 364 l 2,26,27
 133 379 133 379 148 379 c 2,16,-1
EndSplineSet
EndChar

StartChar: BB Vertical and Horizontal
Encoding: 9542 9542 82
Width: 512
VWidth: 1024
GlyphClass: 2
Flags: W
LayerCount: 2
Fore
SplineSet
148 389 m 2,0,1
 138 389 138 389 130.5 381.5 c 128,-1,2
 123 374 123 374 123 364 c 2,3,-1
 123 148 l 2,4,5
 123 138 123 138 130.5 130.5 c 128,-1,6
 138 123 138 123 148 123 c 2,7,-1
 364 123 l 2,8,9
 374 123 374 123 381.5 130.5 c 128,-1,10
 389 138 389 138 389 148 c 2,11,-1
 389 364 l 2,12,13
 389 374 389 374 381.5 381.5 c 128,-1,14
 374 389 374 389 364 389 c 2,15,-1
 148 389 l 2,0,1
148 379 m 2,16,-1
 364 379 l 2,17,18
 379 379 379 379 379 364 c 2,19,-1
 379 148 l 2,20,21
 379 133 379 133 364 133 c 2,22,-1
 148 133 l 2,23,24
 133 133 133 133 133 148 c 2,25,-1
 133 364 l 2,26,27
 133 379 133 379 148 379 c 2,16,-1
EndSplineSet
EndChar

StartChar: ST Vertical and Horizontal
Encoding: 9543 9543 83
Width: 512
VWidth: 1024
GlyphClass: 2
Flags: W
LayerCount: 2
Fore
SplineSet
148 389 m 2,0,1
 138 389 138 389 130.5 381.5 c 128,-1,2
 123 374 123 374 123 364 c 2,3,-1
 123 148 l 2,4,5
 123 138 123 138 130.5 130.5 c 128,-1,6
 138 123 138 123 148 123 c 2,7,-1
 364 123 l 2,8,9
 374 123 374 123 381.5 130.5 c 128,-1,10
 389 138 389 138 389 148 c 2,11,-1
 389 364 l 2,12,13
 389 374 389 374 381.5 381.5 c 128,-1,14
 374 389 374 389 364 389 c 2,15,-1
 148 389 l 2,0,1
148 379 m 2,16,-1
 364 379 l 2,17,18
 379 379 379 379 379 364 c 2,19,-1
 379 148 l 2,20,21
 379 133 379 133 364 133 c 2,22,-1
 148 133 l 2,23,24
 133 133 133 133 133 148 c 2,25,-1
 133 364 l 2,26,27
 133 379 133 379 148 379 c 2,16,-1
EndSplineSet
EndChar

StartChar: SB Vertical and Horizontal
Encoding: 9544 9544 84
Width: 512
VWidth: 1024
GlyphClass: 2
Flags: W
LayerCount: 2
Fore
SplineSet
148 389 m 2,0,1
 138 389 138 389 130.5 381.5 c 128,-1,2
 123 374 123 374 123 364 c 2,3,-1
 123 148 l 2,4,5
 123 138 123 138 130.5 130.5 c 128,-1,6
 138 123 138 123 148 123 c 2,7,-1
 364 123 l 2,8,9
 374 123 374 123 381.5 130.5 c 128,-1,10
 389 138 389 138 389 148 c 2,11,-1
 389 364 l 2,12,13
 389 374 389 374 381.5 381.5 c 128,-1,14
 374 389 374 389 364 389 c 2,15,-1
 148 389 l 2,0,1
148 379 m 2,16,-1
 364 379 l 2,17,18
 379 379 379 379 379 364 c 2,19,-1
 379 148 l 2,20,21
 379 133 379 133 364 133 c 2,22,-1
 148 133 l 2,23,24
 133 133 133 133 133 148 c 2,25,-1
 133 364 l 2,26,27
 133 379 133 379 148 379 c 2,16,-1
EndSplineSet
EndChar

StartChar: TE Vertical and Horizontal
Encoding: 9545 9545 85
Width: 512
VWidth: 1024
GlyphClass: 2
Flags: W
LayerCount: 2
Fore
SplineSet
148 389 m 2,0,1
 138 389 138 389 130.5 381.5 c 128,-1,2
 123 374 123 374 123 364 c 2,3,-1
 123 148 l 2,4,5
 123 138 123 138 130.5 130.5 c 128,-1,6
 138 123 138 123 148 123 c 2,7,-1
 364 123 l 2,8,9
 374 123 374 123 381.5 130.5 c 128,-1,10
 389 138 389 138 389 148 c 2,11,-1
 389 364 l 2,12,13
 389 374 389 374 381.5 381.5 c 128,-1,14
 374 389 374 389 364 389 c 2,15,-1
 148 389 l 2,0,1
148 379 m 2,16,-1
 364 379 l 2,17,18
 379 379 379 379 379 364 c 2,19,-1
 379 148 l 2,20,21
 379 133 379 133 364 133 c 2,22,-1
 148 133 l 2,23,24
 133 133 133 133 133 148 c 2,25,-1
 133 364 l 2,26,27
 133 379 133 379 148 379 c 2,16,-1
EndSplineSet
EndChar

StartChar: BE Vertical and Horizontal
Encoding: 9546 9546 86
Width: 512
VWidth: 1024
GlyphClass: 2
Flags: W
LayerCount: 2
Fore
SplineSet
148 389 m 2,0,1
 138 389 138 389 130.5 381.5 c 128,-1,2
 123 374 123 374 123 364 c 2,3,-1
 123 148 l 2,4,5
 123 138 123 138 130.5 130.5 c 128,-1,6
 138 123 138 123 148 123 c 2,7,-1
 364 123 l 2,8,9
 374 123 374 123 381.5 130.5 c 128,-1,10
 389 138 389 138 389 148 c 2,11,-1
 389 364 l 2,12,13
 389 374 389 374 381.5 381.5 c 128,-1,14
 374 389 374 389 364 389 c 2,15,-1
 148 389 l 2,0,1
148 379 m 2,16,-1
 364 379 l 2,17,18
 379 379 379 379 379 364 c 2,19,-1
 379 148 l 2,20,21
 379 133 379 133 364 133 c 2,22,-1
 148 133 l 2,23,24
 133 133 133 133 133 148 c 2,25,-1
 133 364 l 2,26,27
 133 379 133 379 148 379 c 2,16,-1
EndSplineSet
EndChar

StartChar: SE Vertical and Horizontal
Encoding: 9547 9547 87
Width: 512
VWidth: 1024
GlyphClass: 2
Flags: W
LayerCount: 2
Fore
SplineSet
148 389 m 2,0,1
 138 389 138 389 130.5 381.5 c 128,-1,2
 123 374 123 374 123 364 c 2,3,-1
 123 148 l 2,4,5
 123 138 123 138 130.5 130.5 c 128,-1,6
 138 123 138 123 148 123 c 2,7,-1
 364 123 l 2,8,9
 374 123 374 123 381.5 130.5 c 128,-1,10
 389 138 389 138 389 148 c 2,11,-1
 389 364 l 2,12,13
 389 374 389 374 381.5 381.5 c 128,-1,14
 374 389 374 389 364 389 c 2,15,-1
 148 389 l 2,0,1
148 379 m 2,16,-1
 364 379 l 2,17,18
 379 379 379 379 379 364 c 2,19,-1
 379 148 l 2,20,21
 379 133 379 133 364 133 c 2,22,-1
 148 133 l 2,23,24
 133 133 133 133 133 148 c 2,25,-1
 133 364 l 2,26,27
 133 379 133 379 148 379 c 2,16,-1
EndSplineSet
EndChar

StartChar: N Horizontal 1
Encoding: 9548 9548 88
Width: 512
VWidth: 1024
GlyphClass: 2
Flags: W
LayerCount: 2
Fore
SplineSet
148 389 m 2,0,1
 138 389 138 389 130.5 381.5 c 128,-1,2
 123 374 123 374 123 364 c 2,3,-1
 123 148 l 2,4,5
 123 138 123 138 130.5 130.5 c 128,-1,6
 138 123 138 123 148 123 c 2,7,-1
 364 123 l 2,8,9
 374 123 374 123 381.5 130.5 c 128,-1,10
 389 138 389 138 389 148 c 2,11,-1
 389 364 l 2,12,13
 389 374 389 374 381.5 381.5 c 128,-1,14
 374 389 374 389 364 389 c 2,15,-1
 148 389 l 2,0,1
148 379 m 2,16,-1
 364 379 l 2,17,18
 379 379 379 379 379 364 c 2,19,-1
 379 148 l 2,20,21
 379 133 379 133 364 133 c 2,22,-1
 148 133 l 2,23,24
 133 133 133 133 133 148 c 2,25,-1
 133 364 l 2,26,27
 133 379 133 379 148 379 c 2,16,-1
EndSplineSet
EndChar

StartChar: S Horizontal 1
Encoding: 9549 9549 89
Width: 512
VWidth: 1024
GlyphClass: 2
Flags: W
LayerCount: 2
Fore
SplineSet
148 389 m 2,0,1
 138 389 138 389 130.5 381.5 c 128,-1,2
 123 374 123 374 123 364 c 2,3,-1
 123 148 l 2,4,5
 123 138 123 138 130.5 130.5 c 128,-1,6
 138 123 138 123 148 123 c 2,7,-1
 364 123 l 2,8,9
 374 123 374 123 381.5 130.5 c 128,-1,10
 389 138 389 138 389 148 c 2,11,-1
 389 364 l 2,12,13
 389 374 389 374 381.5 381.5 c 128,-1,14
 374 389 374 389 364 389 c 2,15,-1
 148 389 l 2,0,1
148 379 m 2,16,-1
 364 379 l 2,17,18
 379 379 379 379 379 364 c 2,19,-1
 379 148 l 2,20,21
 379 133 379 133 364 133 c 2,22,-1
 148 133 l 2,23,24
 133 133 133 133 133 148 c 2,25,-1
 133 364 l 2,26,27
 133 379 133 379 148 379 c 2,16,-1
EndSplineSet
EndChar

StartChar: W Vertical 1
Encoding: 9550 9550 90
Width: 512
VWidth: 1024
GlyphClass: 2
Flags: W
LayerCount: 2
Fore
SplineSet
148 389 m 2,0,1
 138 389 138 389 130.5 381.5 c 128,-1,2
 123 374 123 374 123 364 c 2,3,-1
 123 148 l 2,4,5
 123 138 123 138 130.5 130.5 c 128,-1,6
 138 123 138 123 148 123 c 2,7,-1
 364 123 l 2,8,9
 374 123 374 123 381.5 130.5 c 128,-1,10
 389 138 389 138 389 148 c 2,11,-1
 389 364 l 2,12,13
 389 374 389 374 381.5 381.5 c 128,-1,14
 374 389 374 389 364 389 c 2,15,-1
 148 389 l 2,0,1
148 379 m 2,16,-1
 364 379 l 2,17,18
 379 379 379 379 379 364 c 2,19,-1
 379 148 l 2,20,21
 379 133 379 133 364 133 c 2,22,-1
 148 133 l 2,23,24
 133 133 133 133 133 148 c 2,25,-1
 133 364 l 2,26,27
 133 379 133 379 148 379 c 2,16,-1
EndSplineSet
EndChar

StartChar: E Vertical 1
Encoding: 9551 9551 91
Width: 512
VWidth: 1024
GlyphClass: 2
Flags: W
LayerCount: 2
Fore
SplineSet
148 389 m 2,0,1
 138 389 138 389 130.5 381.5 c 128,-1,2
 123 374 123 374 123 364 c 2,3,-1
 123 148 l 2,4,5
 123 138 123 138 130.5 130.5 c 128,-1,6
 138 123 138 123 148 123 c 2,7,-1
 364 123 l 2,8,9
 374 123 374 123 381.5 130.5 c 128,-1,10
 389 138 389 138 389 148 c 2,11,-1
 389 364 l 2,12,13
 389 374 389 374 381.5 381.5 c 128,-1,14
 374 389 374 389 364 389 c 2,15,-1
 148 389 l 2,0,1
148 379 m 2,16,-1
 364 379 l 2,17,18
 379 379 379 379 379 364 c 2,19,-1
 379 148 l 2,20,21
 379 133 379 133 364 133 c 2,22,-1
 148 133 l 2,23,24
 133 133 133 133 133 148 c 2,25,-1
 133 364 l 2,26,27
 133 379 133 379 148 379 c 2,16,-1
EndSplineSet
EndChar

StartChar: Venetian Horizontal
Encoding: 9552 9552 92
Width: 512
VWidth: 1024
GlyphClass: 2
Flags: W
LayerCount: 2
Fore
SplineSet
148 389 m 2,0,1
 138 389 138 389 130.5 381.5 c 128,-1,2
 123 374 123 374 123 364 c 2,3,-1
 123 148 l 2,4,5
 123 138 123 138 130.5 130.5 c 128,-1,6
 138 123 138 123 148 123 c 2,7,-1
 364 123 l 2,8,9
 374 123 374 123 381.5 130.5 c 128,-1,10
 389 138 389 138 389 148 c 2,11,-1
 389 364 l 2,12,13
 389 374 389 374 381.5 381.5 c 128,-1,14
 374 389 374 389 364 389 c 2,15,-1
 148 389 l 2,0,1
148 379 m 2,16,-1
 364 379 l 2,17,18
 379 379 379 379 379 364 c 2,19,-1
 379 148 l 2,20,21
 379 133 379 133 364 133 c 2,22,-1
 148 133 l 2,23,24
 133 133 133 133 133 148 c 2,25,-1
 133 364 l 2,26,27
 133 379 133 379 148 379 c 2,16,-1
EndSplineSet
EndChar

StartChar: Venetian Vertical
Encoding: 9553 9553 93
Width: 512
VWidth: 1024
GlyphClass: 2
Flags: W
LayerCount: 2
Fore
SplineSet
148 389 m 2,0,1
 138 389 138 389 130.5 381.5 c 128,-1,2
 123 374 123 374 123 364 c 2,3,-1
 123 148 l 2,4,5
 123 138 123 138 130.5 130.5 c 128,-1,6
 138 123 138 123 148 123 c 2,7,-1
 364 123 l 2,8,9
 374 123 374 123 381.5 130.5 c 128,-1,10
 389 138 389 138 389 148 c 2,11,-1
 389 364 l 2,12,13
 389 374 389 374 381.5 381.5 c 128,-1,14
 374 389 374 389 364 389 c 2,15,-1
 148 389 l 2,0,1
148 379 m 2,16,-1
 364 379 l 2,17,18
 379 379 379 379 379 364 c 2,19,-1
 379 148 l 2,20,21
 379 133 379 133 364 133 c 2,22,-1
 148 133 l 2,23,24
 133 133 133 133 133 148 c 2,25,-1
 133 364 l 2,26,27
 133 379 133 379 148 379 c 2,16,-1
EndSplineSet
EndChar

StartChar: Venetian Down and Right
Encoding: 9556 9556 94
Width: 512
VWidth: 1024
GlyphClass: 2
Flags: W
LayerCount: 2
Fore
SplineSet
148 389 m 2,0,1
 138 389 138 389 130.5 381.5 c 128,-1,2
 123 374 123 374 123 364 c 2,3,-1
 123 148 l 2,4,5
 123 138 123 138 130.5 130.5 c 128,-1,6
 138 123 138 123 148 123 c 2,7,-1
 364 123 l 2,8,9
 374 123 374 123 381.5 130.5 c 128,-1,10
 389 138 389 138 389 148 c 2,11,-1
 389 364 l 2,12,13
 389 374 389 374 381.5 381.5 c 128,-1,14
 374 389 374 389 364 389 c 2,15,-1
 148 389 l 2,0,1
148 379 m 2,16,-1
 364 379 l 2,17,18
 379 379 379 379 379 364 c 2,19,-1
 379 148 l 2,20,21
 379 133 379 133 364 133 c 2,22,-1
 148 133 l 2,23,24
 133 133 133 133 133 148 c 2,25,-1
 133 364 l 2,26,27
 133 379 133 379 148 379 c 2,16,-1
EndSplineSet
EndChar

StartChar: Venetian Down and Left
Encoding: 9559 9559 95
Width: 512
VWidth: 1024
GlyphClass: 2
Flags: W
LayerCount: 2
Fore
SplineSet
148 389 m 2,0,1
 138 389 138 389 130.5 381.5 c 128,-1,2
 123 374 123 374 123 364 c 2,3,-1
 123 148 l 2,4,5
 123 138 123 138 130.5 130.5 c 128,-1,6
 138 123 138 123 148 123 c 2,7,-1
 364 123 l 2,8,9
 374 123 374 123 381.5 130.5 c 128,-1,10
 389 138 389 138 389 148 c 2,11,-1
 389 364 l 2,12,13
 389 374 389 374 381.5 381.5 c 128,-1,14
 374 389 374 389 364 389 c 2,15,-1
 148 389 l 2,0,1
148 379 m 2,16,-1
 364 379 l 2,17,18
 379 379 379 379 379 364 c 2,19,-1
 379 148 l 2,20,21
 379 133 379 133 364 133 c 2,22,-1
 148 133 l 2,23,24
 133 133 133 133 133 148 c 2,25,-1
 133 364 l 2,26,27
 133 379 133 379 148 379 c 2,16,-1
EndSplineSet
EndChar

StartChar: Venetian Up and Right
Encoding: 9562 9562 96
Width: 512
VWidth: 1024
GlyphClass: 2
Flags: W
LayerCount: 2
Fore
SplineSet
148 389 m 2,0,1
 138 389 138 389 130.5 381.5 c 128,-1,2
 123 374 123 374 123 364 c 2,3,-1
 123 148 l 2,4,5
 123 138 123 138 130.5 130.5 c 128,-1,6
 138 123 138 123 148 123 c 2,7,-1
 364 123 l 2,8,9
 374 123 374 123 381.5 130.5 c 128,-1,10
 389 138 389 138 389 148 c 2,11,-1
 389 364 l 2,12,13
 389 374 389 374 381.5 381.5 c 128,-1,14
 374 389 374 389 364 389 c 2,15,-1
 148 389 l 2,0,1
148 379 m 2,16,-1
 364 379 l 2,17,18
 379 379 379 379 379 364 c 2,19,-1
 379 148 l 2,20,21
 379 133 379 133 364 133 c 2,22,-1
 148 133 l 2,23,24
 133 133 133 133 133 148 c 2,25,-1
 133 364 l 2,26,27
 133 379 133 379 148 379 c 2,16,-1
EndSplineSet
EndChar

StartChar: Venetian Up and Left
Encoding: 9565 9565 97
Width: 512
VWidth: 1024
GlyphClass: 2
Flags: W
LayerCount: 2
Fore
SplineSet
148 389 m 2,0,1
 138 389 138 389 130.5 381.5 c 128,-1,2
 123 374 123 374 123 364 c 2,3,-1
 123 148 l 2,4,5
 123 138 123 138 130.5 130.5 c 128,-1,6
 138 123 138 123 148 123 c 2,7,-1
 364 123 l 2,8,9
 374 123 374 123 381.5 130.5 c 128,-1,10
 389 138 389 138 389 148 c 2,11,-1
 389 364 l 2,12,13
 389 374 389 374 381.5 381.5 c 128,-1,14
 374 389 374 389 364 389 c 2,15,-1
 148 389 l 2,0,1
148 379 m 2,16,-1
 364 379 l 2,17,18
 379 379 379 379 379 364 c 2,19,-1
 379 148 l 2,20,21
 379 133 379 133 364 133 c 2,22,-1
 148 133 l 2,23,24
 133 133 133 133 133 148 c 2,25,-1
 133 364 l 2,26,27
 133 379 133 379 148 379 c 2,16,-1
EndSplineSet
EndChar

StartChar: Venetian Vertical and Right
Encoding: 9568 9568 98
Width: 512
VWidth: 1024
GlyphClass: 2
Flags: W
LayerCount: 2
Fore
SplineSet
148 389 m 2,0,1
 138 389 138 389 130.5 381.5 c 128,-1,2
 123 374 123 374 123 364 c 2,3,-1
 123 148 l 2,4,5
 123 138 123 138 130.5 130.5 c 128,-1,6
 138 123 138 123 148 123 c 2,7,-1
 364 123 l 2,8,9
 374 123 374 123 381.5 130.5 c 128,-1,10
 389 138 389 138 389 148 c 2,11,-1
 389 364 l 2,12,13
 389 374 389 374 381.5 381.5 c 128,-1,14
 374 389 374 389 364 389 c 2,15,-1
 148 389 l 2,0,1
148 379 m 2,16,-1
 364 379 l 2,17,18
 379 379 379 379 379 364 c 2,19,-1
 379 148 l 2,20,21
 379 133 379 133 364 133 c 2,22,-1
 148 133 l 2,23,24
 133 133 133 133 133 148 c 2,25,-1
 133 364 l 2,26,27
 133 379 133 379 148 379 c 2,16,-1
EndSplineSet
EndChar

StartChar: Venetian Vertical and Left
Encoding: 9571 9571 99
Width: 512
VWidth: 1024
GlyphClass: 2
Flags: W
LayerCount: 2
Fore
SplineSet
148 389 m 2,0,1
 138 389 138 389 130.5 381.5 c 128,-1,2
 123 374 123 374 123 364 c 2,3,-1
 123 148 l 2,4,5
 123 138 123 138 130.5 130.5 c 128,-1,6
 138 123 138 123 148 123 c 2,7,-1
 364 123 l 2,8,9
 374 123 374 123 381.5 130.5 c 128,-1,10
 389 138 389 138 389 148 c 2,11,-1
 389 364 l 2,12,13
 389 374 389 374 381.5 381.5 c 128,-1,14
 374 389 374 389 364 389 c 2,15,-1
 148 389 l 2,0,1
148 379 m 2,16,-1
 364 379 l 2,17,18
 379 379 379 379 379 364 c 2,19,-1
 379 148 l 2,20,21
 379 133 379 133 364 133 c 2,22,-1
 148 133 l 2,23,24
 133 133 133 133 133 148 c 2,25,-1
 133 364 l 2,26,27
 133 379 133 379 148 379 c 2,16,-1
EndSplineSet
EndChar

StartChar: Venetian Down and Horizontal
Encoding: 9574 9574 100
Width: 512
VWidth: 1024
GlyphClass: 2
Flags: W
LayerCount: 2
Fore
SplineSet
148 389 m 2,0,1
 138 389 138 389 130.5 381.5 c 128,-1,2
 123 374 123 374 123 364 c 2,3,-1
 123 148 l 2,4,5
 123 138 123 138 130.5 130.5 c 128,-1,6
 138 123 138 123 148 123 c 2,7,-1
 364 123 l 2,8,9
 374 123 374 123 381.5 130.5 c 128,-1,10
 389 138 389 138 389 148 c 2,11,-1
 389 364 l 2,12,13
 389 374 389 374 381.5 381.5 c 128,-1,14
 374 389 374 389 364 389 c 2,15,-1
 148 389 l 2,0,1
148 379 m 2,16,-1
 364 379 l 2,17,18
 379 379 379 379 379 364 c 2,19,-1
 379 148 l 2,20,21
 379 133 379 133 364 133 c 2,22,-1
 148 133 l 2,23,24
 133 133 133 133 133 148 c 2,25,-1
 133 364 l 2,26,27
 133 379 133 379 148 379 c 2,16,-1
EndSplineSet
EndChar

StartChar: Venetian Up and Horizontal
Encoding: 9577 9577 101
Width: 512
VWidth: 1024
GlyphClass: 2
Flags: W
LayerCount: 2
Fore
SplineSet
148 389 m 2,0,1
 138 389 138 389 130.5 381.5 c 128,-1,2
 123 374 123 374 123 364 c 2,3,-1
 123 148 l 2,4,5
 123 138 123 138 130.5 130.5 c 128,-1,6
 138 123 138 123 148 123 c 2,7,-1
 364 123 l 2,8,9
 374 123 374 123 381.5 130.5 c 128,-1,10
 389 138 389 138 389 148 c 2,11,-1
 389 364 l 2,12,13
 389 374 389 374 381.5 381.5 c 128,-1,14
 374 389 374 389 364 389 c 2,15,-1
 148 389 l 2,0,1
148 379 m 2,16,-1
 364 379 l 2,17,18
 379 379 379 379 379 364 c 2,19,-1
 379 148 l 2,20,21
 379 133 379 133 364 133 c 2,22,-1
 148 133 l 2,23,24
 133 133 133 133 133 148 c 2,25,-1
 133 364 l 2,26,27
 133 379 133 379 148 379 c 2,16,-1
EndSplineSet
EndChar

StartChar: Venetian Vertical and Horizontal
Encoding: 9580 9580 102
Width: 512
VWidth: 1024
GlyphClass: 2
Flags: W
LayerCount: 2
Fore
SplineSet
148 389 m 2,0,1
 138 389 138 389 130.5 381.5 c 128,-1,2
 123 374 123 374 123 364 c 2,3,-1
 123 148 l 2,4,5
 123 138 123 138 130.5 130.5 c 128,-1,6
 138 123 138 123 148 123 c 2,7,-1
 364 123 l 2,8,9
 374 123 374 123 381.5 130.5 c 128,-1,10
 389 138 389 138 389 148 c 2,11,-1
 389 364 l 2,12,13
 389 374 389 374 381.5 381.5 c 128,-1,14
 374 389 374 389 364 389 c 2,15,-1
 148 389 l 2,0,1
148 379 m 2,16,-1
 364 379 l 2,17,18
 379 379 379 379 379 364 c 2,19,-1
 379 148 l 2,20,21
 379 133 379 133 364 133 c 2,22,-1
 148 133 l 2,23,24
 133 133 133 133 133 148 c 2,25,-1
 133 364 l 2,26,27
 133 379 133 379 148 379 c 2,16,-1
EndSplineSet
EndChar

StartChar: NE Diagonal
Encoding: 9585 9585 103
Width: 512
VWidth: 1024
GlyphClass: 2
Flags: W
LayerCount: 2
Fore
SplineSet
148 389 m 2,0,1
 138 389 138 389 130.5 381.5 c 128,-1,2
 123 374 123 374 123 364 c 2,3,-1
 123 148 l 2,4,5
 123 138 123 138 130.5 130.5 c 128,-1,6
 138 123 138 123 148 123 c 2,7,-1
 364 123 l 2,8,9
 374 123 374 123 381.5 130.5 c 128,-1,10
 389 138 389 138 389 148 c 2,11,-1
 389 364 l 2,12,13
 389 374 389 374 381.5 381.5 c 128,-1,14
 374 389 374 389 364 389 c 2,15,-1
 148 389 l 2,0,1
148 379 m 2,16,-1
 364 379 l 2,17,18
 379 379 379 379 379 364 c 2,19,-1
 379 148 l 2,20,21
 379 133 379 133 364 133 c 2,22,-1
 148 133 l 2,23,24
 133 133 133 133 133 148 c 2,25,-1
 133 364 l 2,26,27
 133 379 133 379 148 379 c 2,16,-1
EndSplineSet
EndChar

StartChar: NW Diagonal
Encoding: 9586 9586 104
Width: 512
VWidth: 1024
GlyphClass: 2
Flags: W
LayerCount: 2
Fore
SplineSet
148 389 m 2,0,1
 138 389 138 389 130.5 381.5 c 128,-1,2
 123 374 123 374 123 364 c 2,3,-1
 123 148 l 2,4,5
 123 138 123 138 130.5 130.5 c 128,-1,6
 138 123 138 123 148 123 c 2,7,-1
 364 123 l 2,8,9
 374 123 374 123 381.5 130.5 c 128,-1,10
 389 138 389 138 389 148 c 2,11,-1
 389 364 l 2,12,13
 389 374 389 374 381.5 381.5 c 128,-1,14
 374 389 374 389 364 389 c 2,15,-1
 148 389 l 2,0,1
148 379 m 2,16,-1
 364 379 l 2,17,18
 379 379 379 379 379 364 c 2,19,-1
 379 148 l 2,20,21
 379 133 379 133 364 133 c 2,22,-1
 148 133 l 2,23,24
 133 133 133 133 133 148 c 2,25,-1
 133 364 l 2,26,27
 133 379 133 379 148 379 c 2,16,-1
EndSplineSet
EndChar

StartChar: Double Diagonal
Encoding: 9587 9587 105
Width: 512
VWidth: 1024
GlyphClass: 2
Flags: W
LayerCount: 2
Fore
SplineSet
148 389 m 2,0,1
 138 389 138 389 130.5 381.5 c 128,-1,2
 123 374 123 374 123 364 c 2,3,-1
 123 148 l 2,4,5
 123 138 123 138 130.5 130.5 c 128,-1,6
 138 123 138 123 148 123 c 2,7,-1
 364 123 l 2,8,9
 374 123 374 123 381.5 130.5 c 128,-1,10
 389 138 389 138 389 148 c 2,11,-1
 389 364 l 2,12,13
 389 374 389 374 381.5 381.5 c 128,-1,14
 374 389 374 389 364 389 c 2,15,-1
 148 389 l 2,0,1
148 379 m 2,16,-1
 364 379 l 2,17,18
 379 379 379 379 379 364 c 2,19,-1
 379 148 l 2,20,21
 379 133 379 133 364 133 c 2,22,-1
 148 133 l 2,23,24
 133 133 133 133 133 148 c 2,25,-1
 133 364 l 2,26,27
 133 379 133 379 148 379 c 2,16,-1
EndSplineSet
EndChar

StartChar: B Horizontal
Encoding: 9596 9596 106
Width: 512
VWidth: 1024
GlyphClass: 2
Flags: W
LayerCount: 2
Fore
SplineSet
148 389 m 2,0,1
 138 389 138 389 130.5 381.5 c 128,-1,2
 123 374 123 374 123 364 c 2,3,-1
 123 148 l 2,4,5
 123 138 123 138 130.5 130.5 c 128,-1,6
 138 123 138 123 148 123 c 2,7,-1
 364 123 l 2,8,9
 374 123 374 123 381.5 130.5 c 128,-1,10
 389 138 389 138 389 148 c 2,11,-1
 389 364 l 2,12,13
 389 374 389 374 381.5 381.5 c 128,-1,14
 374 389 374 389 364 389 c 2,15,-1
 148 389 l 2,0,1
148 379 m 2,16,-1
 364 379 l 2,17,18
 379 379 379 379 379 364 c 2,19,-1
 379 148 l 2,20,21
 379 133 379 133 364 133 c 2,22,-1
 148 133 l 2,23,24
 133 133 133 133 133 148 c 2,25,-1
 133 364 l 2,26,27
 133 379 133 379 148 379 c 2,16,-1
EndSplineSet
EndChar

StartChar: B Vertical
Encoding: 9597 9597 107
Width: 512
VWidth: 1024
GlyphClass: 2
Flags: W
LayerCount: 2
Fore
SplineSet
148 389 m 2,0,1
 138 389 138 389 130.5 381.5 c 128,-1,2
 123 374 123 374 123 364 c 2,3,-1
 123 148 l 2,4,5
 123 138 123 138 130.5 130.5 c 128,-1,6
 138 123 138 123 148 123 c 2,7,-1
 364 123 l 2,8,9
 374 123 374 123 381.5 130.5 c 128,-1,10
 389 138 389 138 389 148 c 2,11,-1
 389 364 l 2,12,13
 389 374 389 374 381.5 381.5 c 128,-1,14
 374 389 374 389 364 389 c 2,15,-1
 148 389 l 2,0,1
148 379 m 2,16,-1
 364 379 l 2,17,18
 379 379 379 379 379 364 c 2,19,-1
 379 148 l 2,20,21
 379 133 379 133 364 133 c 2,22,-1
 148 133 l 2,23,24
 133 133 133 133 133 148 c 2,25,-1
 133 364 l 2,26,27
 133 379 133 379 148 379 c 2,16,-1
EndSplineSet
EndChar

